<?xml version="1.0" encoding="UTF-8"?>
<svg xmlns="http://www.w3.org/2000/svg" width="175" height="125" viewBox="0 0 175 125" fill="none">
  <path d="M95.6603 54.3105V54.2805C95.7503 53.9805 95.8803 53.7005 96.0403 53.4305C96.2503 53.2105 96.4903 53.0305 96.7603 52.8805C97.3003 52.6105 97.7403 52.1805 98.0403 51.6605C98.2503 51.1005 98.3003 50.4905 98.1703 49.9005C98.1103 49.5905 98.1103 49.2705 98.1503 48.9605C98.2403 48.6705 98.3803 48.4005 98.5603 48.1605C98.9303 47.6705 99.1503 47.0905 99.2003 46.4805C99.1503 45.8705 98.9303 45.2905 98.5603 44.8005C98.3803 44.5505 98.2503 44.2805 98.1503 44.0005C98.1103 43.6905 98.1203 43.3705 98.1703 43.0605C98.2903 42.4705 98.2503 41.8705 98.0403 41.3005C97.7403 40.7805 97.3003 40.3605 96.7603 40.0805C96.4903 39.9305 96.2503 39.7505 96.0403 39.5305C95.8703 39.2705 95.7503 38.9805 95.6703 38.6805C95.5303 38.0905 95.2303 37.5605 94.8003 37.1405C94.3103 36.8005 93.7303 36.6205 93.1303 36.6105C92.8303 36.6005 92.5303 36.5405 92.2403 36.4305C91.9903 36.2705 91.7603 36.0705 91.5703 35.8405C91.1903 35.3705 90.6803 35.0105 90.1103 34.8305C89.5303 34.7505 88.9303 34.8305 88.4003 35.0905C88.1203 35.2105 87.8103 35.2905 87.5103 35.3205C87.2003 35.2905 86.9003 35.2105 86.6203 35.0905C86.0903 34.8405 85.4903 34.7505 84.9103 34.8305C84.3303 35.0205 83.8203 35.3705 83.4503 35.8405C83.2603 36.0705 83.0303 36.2705 82.7803 36.4305C82.5003 36.5405 82.2003 36.6005 81.8903 36.6105C81.2903 36.6105 80.7103 36.8005 80.2203 37.1405C79.7903 37.5605 79.4803 38.0905 79.3503 38.6805C79.2703 38.9805 79.1503 39.2605 78.9803 39.5305C78.7703 39.7505 78.5303 39.9305 78.2603 40.0805C77.7203 40.3505 77.2803 40.7805 76.9803 41.3005C76.7703 41.8605 76.7203 42.4705 76.8503 43.0605C76.9103 43.3705 76.9103 43.6905 76.8703 44.0005C76.7803 44.2905 76.6403 44.5605 76.4603 44.8005C76.0903 45.2905 75.8703 45.8705 75.8203 46.4805C75.8703 47.0905 76.0903 47.6705 76.4603 48.1605C76.6403 48.4105 76.7703 48.6805 76.8703 48.9605C76.9103 49.2705 76.9003 49.5905 76.8503 49.9005C76.7303 50.4905 76.7703 51.0905 76.9803 51.6605C77.2803 52.1805 77.7203 52.6005 78.2603 52.8805C78.5303 53.0305 78.7703 53.2105 78.9803 53.4305C79.1503 53.6905 79.2703 53.9805 79.3503 54.2805V54.3105L76.0003 60.1105C75.6403 60.7305 75.8503 61.5305 76.4703 61.8805C76.7303 62.0305 77.0203 62.0805 77.3203 62.0405L79.5803 61.7005L80.4103 63.8305C80.5903 64.3005 81.0203 64.6205 81.5203 64.6505C81.5503 64.6505 81.5903 64.6505 81.6203 64.6505C82.0803 64.6505 82.5103 64.4005 82.7403 64.0005L86.2103 57.9905C86.3503 57.9505 86.4803 57.9005 86.6103 57.8505C86.8903 57.7305 87.2003 57.6505 87.5003 57.6205C87.8103 57.6505 88.1103 57.7305 88.3903 57.8505C88.5203 57.9005 88.6603 57.9405 88.7903 57.9905L92.2603 64.0005C92.4903 64.4005 92.9203 64.6505 93.3803 64.6505C93.4103 64.6505 93.4503 64.6505 93.4803 64.6505C93.9803 64.6105 94.4103 64.2905 94.5903 63.8305L95.4203 61.7005L97.6803 62.0405C98.3903 62.1505 99.0503 61.6605 99.1603 60.9505C99.2003 60.6605 99.1503 60.3605 99.0003 60.1005L95.6403 54.2905L95.6603 54.3105ZM81.6103 63.3705L80.5903 60.7505C80.4803 60.4705 80.1903 60.3005 79.8903 60.3405L77.1103 60.7605L80.0603 55.6505C80.1103 55.7005 80.1503 55.7505 80.2003 55.8005C80.6903 56.1405 81.2703 56.3205 81.8703 56.3305C82.1703 56.3405 82.4703 56.4005 82.7603 56.5105C83.0103 56.6705 83.2403 56.8705 83.4303 57.1005C83.7703 57.5005 84.2003 57.8205 84.6803 58.0305L81.6103 63.3505V63.3705ZM88.8403 56.6505C88.4203 56.4705 87.9603 56.3605 87.5003 56.3405C87.0403 56.3705 86.5903 56.4705 86.1603 56.6505C85.8603 56.8005 85.5203 56.8705 85.1903 56.8705C84.8703 56.7205 84.5903 56.5005 84.3703 56.2205C84.0803 55.8805 83.7303 55.5905 83.3303 55.3705C82.9103 55.1905 82.4703 55.0905 82.0103 55.0605C81.6703 55.0605 81.3303 54.9705 81.0203 54.8105C80.7903 54.5405 80.6303 54.2105 80.5603 53.8605C80.4403 53.4205 80.2403 53.0005 79.9803 52.6305C79.6803 52.2905 79.3303 52.0005 78.9303 51.7805C78.6103 51.6205 78.3403 51.3905 78.1303 51.1105C78.0403 50.7705 78.0403 50.4005 78.1103 50.0605C78.1903 49.6005 78.1903 49.1405 78.1103 48.6805C77.9903 48.2505 77.7903 47.8405 77.5403 47.4705C77.3103 47.1805 77.1603 46.8405 77.1003 46.4805C77.1603 46.1205 77.3203 45.7805 77.5403 45.4905C77.8003 45.1205 77.9903 44.7105 78.1103 44.2805C78.1903 43.8205 78.1803 43.3605 78.1103 42.9005C78.0303 42.5505 78.0403 42.1905 78.1303 41.8505C78.3403 41.5605 78.6103 41.3305 78.9303 41.1805C79.3303 40.9605 79.6803 40.6705 79.9803 40.3305C80.2403 39.9605 80.4403 39.5405 80.5603 39.1005C80.6403 38.7505 80.8003 38.4305 81.0203 38.1505C81.3203 37.9905 81.6603 37.9005 82.0103 37.9005C82.4603 37.8805 82.9103 37.7705 83.3303 37.5905C83.7203 37.3705 84.0703 37.0805 84.3703 36.7405C84.5903 36.4605 84.8703 36.2405 85.1903 36.0905C85.5303 36.0905 85.8603 36.1605 86.1603 36.3105C86.5803 36.4905 87.0403 36.6005 87.5003 36.6205C87.9603 36.5905 88.4103 36.4905 88.8403 36.3105C89.1403 36.1605 89.4803 36.0905 89.8103 36.0905C90.1303 36.2405 90.4103 36.4605 90.6303 36.7405C90.9203 37.0805 91.2703 37.3705 91.6703 37.5905C92.0903 37.7705 92.5303 37.8705 92.9903 37.9005C93.3303 37.9005 93.6703 37.9905 93.9803 38.1505C94.2103 38.4205 94.3703 38.7505 94.4403 39.1005C94.5603 39.5405 94.7603 39.9605 95.0203 40.3305C95.3203 40.6705 95.6703 40.9605 96.0703 41.1805C96.3903 41.3405 96.6603 41.5705 96.8703 41.8505C96.9603 42.1905 96.9603 42.5605 96.8903 42.9005C96.8103 43.3605 96.8103 43.8205 96.8903 44.2805C97.0103 44.7105 97.2103 45.1205 97.4603 45.4905C97.6903 45.7805 97.8403 46.1205 97.9003 46.4805C97.8403 46.8405 97.6803 47.1805 97.4603 47.4705C97.2003 47.8405 97.0103 48.2505 96.8903 48.6805C96.8103 49.1405 96.8203 49.6005 96.8903 50.0605C96.9703 50.4105 96.9603 50.7705 96.8703 51.1105C96.6603 51.4005 96.3903 51.6305 96.0703 51.7805C95.6703 52.0005 95.3203 52.2905 95.0203 52.6305C94.7603 53.0005 94.5603 53.4205 94.4403 53.8605C94.3603 54.2105 94.2003 54.5305 93.9803 54.8105C93.6803 54.9705 93.3403 55.0605 92.9903 55.0605C92.5403 55.0805 92.0903 55.1905 91.6703 55.3705C91.2803 55.5905 90.9303 55.8805 90.6303 56.2205C90.4103 56.5005 90.1303 56.7205 89.8103 56.8705C89.4703 56.8705 89.1403 56.8005 88.8403 56.6505ZM95.1203 60.3505C94.8203 60.3105 94.5303 60.4705 94.4203 60.7605L93.4003 63.3805L90.3303 58.0605C90.8103 57.8505 91.2403 57.5305 91.5803 57.1305C91.7703 56.9005 92.0003 56.7005 92.2503 56.5405C92.5303 56.4305 92.8303 56.3705 93.1403 56.3605C93.7403 56.3605 94.3203 56.1705 94.8103 55.8305C94.8603 55.7805 94.9103 55.7305 94.9603 55.6805L97.9103 60.7905L95.1403 60.3705L95.1203 60.3505ZM95.2903 46.4905C95.2903 42.1905 91.8003 38.7005 87.5003 38.7005C83.2003 38.7005 79.7103 42.1905 79.7103 46.4905C79.7103 50.7905 83.2003 54.2805 87.5003 54.2805C91.8003 54.2805 95.2903 50.7905 95.2903 46.4905ZM87.5003 52.9805C83.9103 52.9805 81.0003 50.0705 81.0003 46.4805C81.0003 42.8905 83.9103 39.9805 87.5003 39.9805C91.0903 39.9805 94.0003 42.8905 94.0003 46.4805C94.0003 50.0705 91.0903 52.9705 87.5003 52.9805ZM90.4603 44.0005C90.7603 44.2005 90.8403 44.6005 90.6403 44.9005L88.0403 48.8005C87.9303 48.9605 87.7603 49.0705 87.5603 49.0905C87.5403 49.0905 87.5203 49.0905 87.5003 49.0905C87.3303 49.0905 87.1603 49.0205 87.0403 48.9005L85.0903 46.9505C84.8403 46.6905 84.8503 46.2805 85.1103 46.0305C85.3603 45.7905 85.7603 45.7905 86.0103 46.0305L87.4003 47.4205L89.5603 44.1805C89.7603 43.8805 90.1603 43.8005 90.4603 44.0005Z" fill="#B2872D"></path>
  <path d="M47.3088 83.6191L49.4888 88.2991H48.9787L48.2388 86.7591H46.2188L45.4888 88.2991H44.9688L47.1787 83.6191H47.2887H47.3088ZM47.2487 84.6191L46.4487 86.3191H48.0487L47.2487 84.6191Z" fill="black"></path>
  <path d="M51.8903 85.22L51.6003 85.52C51.3603 85.29 51.1303 85.17 50.9003 85.17C50.7603 85.17 50.6303 85.22 50.5303 85.31C50.4303 85.41 50.3703 85.52 50.3703 85.64C50.3703 85.75 50.4103 85.86 50.5003 85.96C50.5803 86.06 50.7603 86.19 51.0403 86.33C51.3703 86.5 51.6003 86.67 51.7203 86.83C51.8403 86.99 51.8903 87.17 51.8903 87.37C51.8903 87.66 51.7903 87.9 51.5903 88.09C51.3903 88.29 51.1403 88.39 50.8403 88.39C50.6403 88.39 50.4503 88.35 50.2703 88.26C50.0903 88.17 49.9403 88.05 49.8203 87.9L50.1003 87.58C50.3303 87.84 50.5703 87.97 50.8203 87.97C51.0003 87.97 51.1503 87.91 51.2803 87.8C51.4103 87.68 51.4703 87.55 51.4703 87.4C51.4703 87.27 51.4303 87.16 51.3503 87.06C51.2703 86.96 51.0803 86.84 50.7903 86.69C50.4803 86.53 50.2603 86.37 50.1503 86.21C50.0403 86.05 49.9803 85.87 49.9803 85.67C49.9803 85.41 50.0703 85.19 50.2503 85.01C50.4303 84.83 50.6603 84.75 50.9303 84.75C51.2503 84.75 51.5703 84.91 51.8903 85.22Z" fill="black"></path>
  <path d="M54.4216 85.22L54.1316 85.52C53.8916 85.29 53.6616 85.17 53.4316 85.17C53.2916 85.17 53.1616 85.22 53.0616 85.31C52.9616 85.41 52.9016 85.52 52.9016 85.64C52.9016 85.75 52.9416 85.86 53.0316 85.96C53.1116 86.06 53.2916 86.19 53.5716 86.33C53.9016 86.5 54.1316 86.67 54.2516 86.83C54.3716 86.99 54.4216 87.17 54.4216 87.37C54.4216 87.66 54.3216 87.9 54.1216 88.09C53.9216 88.29 53.6716 88.39 53.3716 88.39C53.1716 88.39 52.9816 88.35 52.8016 88.26C52.6216 88.17 52.4716 88.05 52.3516 87.9L52.6316 87.58C52.8616 87.84 53.1016 87.97 53.3516 87.97C53.5316 87.97 53.6816 87.91 53.8116 87.8C53.9416 87.68 54.0016 87.55 54.0016 87.4C54.0016 87.27 53.9616 87.16 53.8816 87.06C53.8016 86.96 53.6116 86.84 53.3216 86.69C53.0116 86.53 52.7916 86.37 52.6816 86.21C52.5716 86.05 52.5116 85.87 52.5116 85.67C52.5116 85.41 52.6016 85.19 52.7816 85.01C52.9616 84.83 53.1916 84.75 53.4616 84.75C53.7816 84.75 54.1016 84.91 54.4216 85.22Z" fill="black"></path>
  <path d="M55.1484 84.8401H55.5984V86.4601C55.5984 86.8501 55.6184 87.1301 55.6584 87.2701C55.7184 87.4801 55.8484 87.6501 56.0284 87.7701C56.2084 87.8901 56.4184 87.9501 56.6684 87.9501C56.9184 87.9501 57.1284 87.8901 57.2984 87.7701C57.4684 87.6501 57.5884 87.4901 57.6584 87.3001C57.6984 87.1701 57.7284 86.8801 57.7284 86.4501V84.8301H58.1884V86.5301C58.1884 87.0101 58.1284 87.3701 58.0184 87.6101C57.9084 87.8501 57.7384 88.0401 57.5184 88.1801C57.2984 88.3201 57.0184 88.3901 56.6784 88.3901C56.3384 88.3901 56.0584 88.3201 55.8384 88.1801C55.6184 88.0401 55.4484 87.8501 55.3284 87.6101C55.2084 87.3701 55.1584 87.0001 55.1584 86.5001V84.8301L55.1484 84.8401Z" fill="black"></path>
  <path d="M59.0022 84.84H59.4622V85.35C59.6022 85.15 59.7422 85 59.8922 84.9C60.0422 84.8 60.2022 84.75 60.3622 84.75C60.4822 84.75 60.6122 84.79 60.7522 84.87L60.5222 85.25C60.4322 85.21 60.3522 85.19 60.2822 85.19C60.1322 85.19 59.9922 85.25 59.8522 85.37C59.7122 85.49 59.6122 85.68 59.5322 85.94C59.4822 86.14 59.4522 86.54 59.4522 87.14V88.31H58.9922V84.85L59.0022 84.84Z" fill="black"></path>
  <path d="M64.0488 87.1598L64.4287 87.3598C64.3087 87.5998 64.1587 87.7998 63.9987 87.9398C63.8387 88.0798 63.6587 88.1998 63.4587 88.2798C63.2587 88.3598 63.0287 88.3998 62.7787 88.3998C62.2187 88.3998 61.7687 88.2198 61.4487 87.8498C61.1287 87.4798 60.9688 87.0598 60.9688 86.5898C60.9688 86.1498 61.0987 85.7598 61.3687 85.4198C61.7087 84.9798 62.1688 84.7598 62.7388 84.7598C63.3088 84.7598 63.7988 84.9798 64.1488 85.4298C64.3988 85.7498 64.5287 86.1398 64.5287 86.6098H61.4087C61.4087 87.0098 61.5487 87.3398 61.7987 87.5998C62.0487 87.8598 62.3587 87.9898 62.7188 87.9898C62.8988 87.9898 63.0687 87.9598 63.2287 87.8998C63.3987 87.8398 63.5388 87.7598 63.6488 87.6598C63.7688 87.5598 63.8887 87.3898 64.0287 87.1698L64.0488 87.1598ZM64.0488 86.2298C63.9888 85.9898 63.8987 85.7998 63.7887 85.6598C63.6787 85.5198 63.5287 85.3998 63.3387 85.3198C63.1487 85.2398 62.9587 85.1898 62.7487 85.1898C62.4087 85.1898 62.1187 85.2998 61.8687 85.5198C61.6887 85.6798 61.5588 85.9198 61.4688 86.2398H64.0488V86.2298Z" fill="black"></path>
  <path d="M68.8209 83.5098V88.3098H68.3809V87.7198C68.1909 87.9498 67.9809 88.1198 67.7509 88.2298C67.5209 88.3498 67.2609 88.3998 66.9909 88.3998C66.5009 88.3998 66.0809 88.2198 65.7309 87.8698C65.3809 87.5198 65.2109 87.0798 65.2109 86.5698C65.2109 86.0598 65.3809 85.6498 65.7409 85.2898C66.0909 84.9398 66.5109 84.7598 67.0009 84.7598C67.2809 84.7598 67.5409 84.8198 67.7709 84.9398C68.0009 85.0598 68.2009 85.2398 68.3809 85.4798V83.5098H68.8209ZM67.0409 85.1798C66.7909 85.1798 66.5609 85.2398 66.3509 85.3598C66.1409 85.4798 65.9709 85.6498 65.8509 85.8698C65.7309 86.0898 65.6609 86.3198 65.6609 86.5698C65.6609 86.8198 65.7209 87.0498 65.8509 87.2698C65.9809 87.4898 66.1409 87.6698 66.3509 87.7898C66.5609 87.9098 66.7909 87.9798 67.0309 87.9798C67.2709 87.9798 67.5009 87.9198 67.7209 87.7998C67.9409 87.6798 68.1109 87.5098 68.2209 87.2998C68.3409 87.0898 68.4009 86.8498 68.4009 86.5898C68.4009 86.1898 68.2709 85.8498 68.0009 85.5898C67.7409 85.3198 67.4109 85.1898 67.0309 85.1898L67.0409 85.1798Z" fill="black"></path>
  <path d="M72.0162 83.5605H72.4662V84.8505H73.1762V85.2306H72.4662V88.3105H72.0162V85.2306H71.4062V84.8505H72.0162V83.5605Z" fill="black"></path>
  <path d="M73.995 83.4199C74.095 83.4199 74.185 83.4599 74.255 83.5299C74.325 83.5999 74.365 83.6899 74.365 83.7899C74.365 83.8899 74.325 83.9799 74.255 84.0499C74.185 84.1199 74.095 84.1599 73.995 84.1599C73.895 84.1599 73.815 84.1199 73.735 84.0499C73.665 83.9799 73.625 83.8899 73.625 83.7899C73.625 83.6899 73.665 83.5999 73.735 83.5299C73.805 83.4599 73.895 83.4199 73.995 83.4199ZM73.775 84.8399H74.225V88.2999H73.775V84.8399Z" fill="black"></path>
  <path d="M75.1484 84.8398H75.5984V85.4398C75.7584 85.2198 75.9084 85.0598 76.0784 84.9598C76.2984 84.8198 76.5384 84.7598 76.7884 84.7598C76.9584 84.7598 77.1184 84.7898 77.2684 84.8598C77.4184 84.9298 77.5384 85.0098 77.6384 85.1198C77.7384 85.2298 77.8184 85.3898 77.8884 85.5898C78.0384 85.3198 78.2184 85.1098 78.4484 84.9698C78.6684 84.8298 78.9084 84.7598 79.1684 84.7598C79.4084 84.7598 79.6184 84.8198 79.7984 84.9398C79.9784 85.0598 80.1184 85.2298 80.2084 85.4498C80.2984 85.6698 80.3384 85.9898 80.3384 86.4198V88.3098H79.8784V86.4198C79.8784 86.0498 79.8484 85.7898 79.7984 85.6498C79.7484 85.5098 79.6584 85.3998 79.5284 85.3098C79.3984 85.2298 79.2484 85.1798 79.0684 85.1798C78.8484 85.1798 78.6584 85.2398 78.4784 85.3698C78.2984 85.4998 78.1684 85.6698 78.0884 85.8798C78.0084 86.0898 77.9684 86.4498 77.9684 86.9398V88.2998H77.5184V86.5298C77.5184 86.1098 77.4884 85.8298 77.4384 85.6798C77.3884 85.5298 77.2984 85.4098 77.1684 85.3198C77.0384 85.2298 76.8884 85.1798 76.7084 85.1798C76.4984 85.1798 76.3084 85.2398 76.1284 85.3698C75.9484 85.4898 75.8184 85.6598 75.7284 85.8698C75.6384 86.0798 75.5984 86.3998 75.5984 86.8298V88.2998H75.1484V84.8398Z" fill="black"></path>
  <path d="M84.1816 87.1598L84.5616 87.3598C84.4416 87.5998 84.2916 87.7998 84.1316 87.9398C83.9716 88.0798 83.7916 88.1998 83.5916 88.2798C83.3916 88.3598 83.1616 88.3998 82.9116 88.3998C82.3516 88.3998 81.9016 88.2198 81.5816 87.8498C81.2616 87.4798 81.1016 87.0598 81.1016 86.5898C81.1016 86.1498 81.2316 85.7598 81.5016 85.4198C81.8416 84.9798 82.3016 84.7598 82.8716 84.7598C83.4416 84.7598 83.9316 84.9798 84.2816 85.4298C84.5316 85.7498 84.6616 86.1398 84.6616 86.6098H81.5416C81.5416 87.0098 81.6816 87.3398 81.9316 87.5998C82.1816 87.8598 82.4916 87.9898 82.8516 87.9898C83.0316 87.9898 83.2016 87.9598 83.3616 87.8998C83.5316 87.8398 83.6716 87.7598 83.7816 87.6598C83.9016 87.5598 84.0216 87.3898 84.1616 87.1698L84.1816 87.1598ZM84.1816 86.2298C84.1216 85.9898 84.0316 85.7998 83.9216 85.6598C83.8116 85.5198 83.6616 85.3998 83.4716 85.3198C83.2816 85.2398 83.0916 85.1898 82.8816 85.1898C82.5416 85.1898 82.2516 85.2998 82.0016 85.5198C81.8216 85.6798 81.6916 85.9198 81.6016 86.2398H84.1816V86.2298Z" fill="black"></path>
  <path d="M87.2969 84.8398H87.7469V85.4398C87.9069 85.2198 88.0569 85.0598 88.2269 84.9598C88.4469 84.8198 88.6869 84.7598 88.9369 84.7598C89.1069 84.7598 89.2669 84.7898 89.4169 84.8598C89.5669 84.9298 89.6869 85.0098 89.7869 85.1198C89.8869 85.2298 89.9669 85.3898 90.0369 85.5898C90.1869 85.3198 90.3669 85.1098 90.5969 84.9698C90.8169 84.8298 91.0569 84.7598 91.3169 84.7598C91.5569 84.7598 91.7669 84.8198 91.9469 84.9398C92.1269 85.0598 92.2669 85.2298 92.3569 85.4498C92.4469 85.6698 92.4869 85.9898 92.4869 86.4198V88.3098H92.0269V86.4198C92.0269 86.0498 91.9969 85.7898 91.9469 85.6498C91.8969 85.5098 91.8069 85.3998 91.6769 85.3098C91.5469 85.2298 91.3969 85.1798 91.2169 85.1798C90.9969 85.1798 90.8069 85.2398 90.6269 85.3698C90.4469 85.4998 90.3169 85.6698 90.2369 85.8798C90.1569 86.0898 90.1169 86.4498 90.1169 86.9398V88.2998H89.6669V86.5298C89.6669 86.1098 89.6369 85.8298 89.5869 85.6798C89.5369 85.5298 89.4469 85.4098 89.3169 85.3198C89.1869 85.2298 89.0369 85.1798 88.8569 85.1798C88.6469 85.1798 88.4569 85.2398 88.2769 85.3698C88.0969 85.4898 87.9669 85.6598 87.8769 85.8698C87.7869 86.0798 87.7469 86.3998 87.7469 86.8298V88.2998H87.2969V84.8398Z" fill="black"></path>
  <path d="M96.8656 84.84V88.3H96.4256V87.71C96.2356 87.94 96.0256 88.11 95.7956 88.22C95.5656 88.34 95.3056 88.39 95.0356 88.39C94.5456 88.39 94.1256 88.21 93.7856 87.86C93.4356 87.5 93.2656 87.07 93.2656 86.56C93.2656 86.05 93.4356 85.64 93.7856 85.28C94.1356 84.93 94.5556 84.75 95.0456 84.75C95.3256 84.75 95.5856 84.81 95.8156 84.93C96.0456 85.05 96.2456 85.23 96.4256 85.47V84.83H96.8656V84.84ZM95.0856 85.18C94.8356 85.18 94.6056 85.24 94.3956 85.36C94.1856 85.48 94.0156 85.65 93.8956 85.87C93.7756 86.09 93.7056 86.32 93.7056 86.57C93.7056 86.82 93.7656 87.05 93.8956 87.27C94.0256 87.49 94.1856 87.67 94.3956 87.79C94.6056 87.91 94.8356 87.98 95.0756 87.98C95.3156 87.98 95.5456 87.92 95.7656 87.8C95.9856 87.68 96.1556 87.51 96.2656 87.3C96.3856 87.09 96.4456 86.85 96.4456 86.59C96.4456 86.19 96.3156 85.85 96.0456 85.59C95.7856 85.32 95.4556 85.19 95.0756 85.19L95.0856 85.18Z" fill="black"></path>
  <path d="M98.0262 83.4199C98.1262 83.4199 98.2162 83.4599 98.2862 83.5299C98.3562 83.5999 98.3962 83.6899 98.3962 83.7899C98.3962 83.8899 98.3562 83.9799 98.2862 84.0499C98.2162 84.1199 98.1262 84.1599 98.0262 84.1599C97.9262 84.1599 97.8462 84.1199 97.7662 84.0499C97.6962 83.9799 97.6562 83.8899 97.6562 83.7899C97.6562 83.6899 97.6962 83.5999 97.7662 83.5299C97.8362 83.4599 97.9262 83.4199 98.0262 83.4199ZM97.7962 84.8399H98.2462V88.2999H97.7962V84.8399Z" fill="black"></path>
  <path d="M99.1797 84.84H99.6297V85.46C99.8097 85.22 100.01 85.04 100.22 84.93C100.44 84.81 100.67 84.75 100.93 84.75C101.19 84.75 101.42 84.82 101.62 84.95C101.82 85.08 101.97 85.26 102.06 85.48C102.15 85.7 102.2 86.05 102.2 86.52V88.3H101.75V86.65C101.75 86.25 101.73 85.98 101.7 85.85C101.65 85.62 101.55 85.45 101.4 85.33C101.25 85.21 101.06 85.16 100.83 85.16C100.56 85.16 100.32 85.25 100.11 85.43C99.8997 85.61 99.7597 85.83 99.6897 86.09C99.6497 86.26 99.6297 86.58 99.6297 87.03V88.3H99.1797V84.84Z" fill="black"></path>
  <path d="M103.54 83.5605H103.99V84.8505H104.7V85.2306H103.99V88.3105H103.54V85.2306H102.93V84.8505H103.54V83.5605Z" fill="black"></path>
  <path d="M108.811 84.84V88.3H108.371V87.71C108.181 87.94 107.971 88.11 107.741 88.22C107.511 88.34 107.251 88.39 106.981 88.39C106.491 88.39 106.071 88.21 105.731 87.86C105.381 87.5 105.211 87.07 105.211 86.56C105.211 86.05 105.381 85.64 105.731 85.28C106.081 84.93 106.501 84.75 106.991 84.75C107.271 84.75 107.531 84.81 107.761 84.93C107.991 85.05 108.191 85.23 108.371 85.47V84.83H108.811V84.84ZM107.031 85.18C106.781 85.18 106.551 85.24 106.341 85.36C106.131 85.48 105.961 85.65 105.841 85.87C105.721 86.09 105.651 86.32 105.651 86.57C105.651 86.82 105.711 87.05 105.841 87.27C105.971 87.49 106.131 87.67 106.341 87.79C106.551 87.91 106.781 87.98 107.021 87.98C107.261 87.98 107.491 87.92 107.711 87.8C107.931 87.68 108.101 87.51 108.211 87.3C108.331 87.09 108.391 86.85 108.391 86.59C108.391 86.19 108.261 85.85 107.991 85.59C107.731 85.32 107.401 85.19 107.021 85.19L107.031 85.18Z" fill="black"></path>
  <path d="M109.812 84.84H110.263V85.46C110.443 85.22 110.643 85.04 110.853 84.93C111.073 84.81 111.303 84.75 111.562 84.75C111.822 84.75 112.053 84.82 112.253 84.95C112.453 85.08 112.603 85.26 112.693 85.48C112.783 85.7 112.833 86.05 112.833 86.52V88.3H112.382V86.65C112.382 86.25 112.363 85.98 112.333 85.85C112.283 85.62 112.183 85.45 112.033 85.33C111.883 85.21 111.693 85.16 111.463 85.16C111.193 85.16 110.953 85.25 110.743 85.43C110.533 85.61 110.393 85.83 110.323 86.09C110.283 86.26 110.263 86.58 110.263 87.03V88.3H109.812V84.84Z" fill="black"></path>
  <path d="M117.241 84.84V88.3H116.801V87.71C116.611 87.94 116.401 88.11 116.171 88.22C115.941 88.34 115.681 88.39 115.411 88.39C114.921 88.39 114.501 88.21 114.161 87.86C113.811 87.5 113.641 87.07 113.641 86.56C113.641 86.05 113.811 85.64 114.161 85.28C114.511 84.93 114.931 84.75 115.421 84.75C115.701 84.75 115.961 84.81 116.191 84.93C116.421 85.05 116.621 85.23 116.801 85.47V84.83H117.241V84.84ZM115.461 85.18C115.211 85.18 114.981 85.24 114.771 85.36C114.561 85.48 114.391 85.65 114.271 85.87C114.151 86.09 114.081 86.32 114.081 86.57C114.081 86.82 114.141 87.05 114.271 87.27C114.401 87.49 114.561 87.67 114.771 87.79C114.981 87.91 115.211 87.98 115.451 87.98C115.691 87.98 115.921 87.92 116.141 87.8C116.361 87.68 116.531 87.51 116.641 87.3C116.761 87.09 116.821 86.85 116.821 86.59C116.821 86.19 116.691 85.85 116.421 85.59C116.161 85.32 115.831 85.19 115.451 85.19L115.461 85.18Z" fill="black"></path>
  <path d="M118.242 84.84H118.692V85.46C118.872 85.22 119.072 85.04 119.282 84.93C119.502 84.81 119.732 84.75 119.992 84.75C120.252 84.75 120.482 84.82 120.682 84.95C120.882 85.08 121.032 85.26 121.122 85.48C121.212 85.7 121.262 86.05 121.262 86.52V88.3H120.812V86.65C120.812 86.25 120.792 85.98 120.762 85.85C120.712 85.62 120.612 85.45 120.462 85.33C120.312 85.21 120.122 85.16 119.892 85.16C119.622 85.16 119.382 85.25 119.172 85.43C118.962 85.61 118.822 85.83 118.752 86.09C118.712 86.26 118.692 86.58 118.692 87.03V88.3H118.242V84.84Z" fill="black"></path>
  <path d="M125.583 85.5598L125.233 85.7798C124.933 85.3698 124.513 85.1698 123.983 85.1698C123.563 85.1698 123.213 85.3098 122.933 85.5798C122.653 85.8498 122.513 86.1798 122.513 86.5698C122.513 86.8198 122.572 87.0598 122.702 87.2798C122.832 87.4998 123.003 87.6798 123.233 87.7998C123.463 87.9198 123.703 87.9798 123.983 87.9798C124.493 87.9798 124.903 87.7798 125.233 87.3698L125.583 87.5998C125.413 87.8498 125.193 88.0398 124.913 88.1798C124.633 88.3198 124.313 88.3898 123.963 88.3898C123.413 88.3898 122.963 88.2198 122.603 87.8698C122.243 87.5198 122.062 87.0998 122.062 86.5998C122.062 86.2698 122.142 85.9498 122.312 85.6698C122.483 85.3798 122.713 85.1598 123.013 84.9998C123.303 84.8398 123.633 84.7598 124.003 84.7598C124.233 84.7598 124.453 84.7998 124.663 84.8598C124.873 84.9298 125.052 85.0198 125.202 85.1298C125.352 85.2398 125.483 85.3898 125.583 85.5598Z" fill="black"></path>
  <path d="M129.346 87.1598L129.726 87.3598C129.606 87.5998 129.456 87.7998 129.296 87.9398C129.136 88.0798 128.956 88.1998 128.756 88.2798C128.556 88.3598 128.326 88.3998 128.076 88.3998C127.516 88.3998 127.066 88.2198 126.746 87.8498C126.426 87.4798 126.266 87.0598 126.266 86.5898C126.266 86.1498 126.396 85.7598 126.666 85.4198C127.006 84.9798 127.466 84.7598 128.036 84.7598C128.606 84.7598 129.096 84.9798 129.446 85.4298C129.696 85.7498 129.826 86.1398 129.826 86.6098H126.706C126.706 87.0098 126.846 87.3398 127.096 87.5998C127.346 87.8598 127.656 87.9898 128.016 87.9898C128.196 87.9898 128.366 87.9598 128.526 87.8998C128.696 87.8398 128.836 87.7598 128.946 87.6598C129.066 87.5598 129.186 87.3898 129.326 87.1698L129.346 87.1598ZM129.346 86.2298C129.286 85.9898 129.196 85.7998 129.086 85.6598C128.976 85.5198 128.826 85.3998 128.636 85.3198C128.446 85.2398 128.256 85.1898 128.046 85.1898C127.706 85.1898 127.416 85.2998 127.166 85.5198C126.986 85.6798 126.856 85.9198 126.766 86.2398H129.346V86.2298Z" fill="black"></path>
</svg>
