<?xml version="1.0" encoding="UTF-8"?>
<svg xmlns="http://www.w3.org/2000/svg" width="175" height="125" viewBox="0 0 175 125" fill="none">
  <path d="M66.4104 53.6102C67.6504 52.5702 74.9104 45.4502 84.9404 35.5702C85.2604 35.3402 86.0804 34.7902 87.1904 34.8302C87.8204 34.8502 88.3104 35.0502 88.5304 35.1402C89.1104 35.3802 89.5104 35.7102 89.7504 35.9402L108.57 54.3702C108.68 54.5802 109.48 56.1202 108.77 57.6202C108.42 58.3702 107.83 58.8002 107.73 58.8702C107.1 59.3202 106.47 59.4402 106.17 59.4702H92.5104L87.2404 54.1402H97.1204C97.9304 54.1002 98.5404 53.5502 98.5904 52.9402C98.6304 52.4902 98.3204 52.1102 98.1704 51.9302C97.2804 50.9302 93.4704 47.1402 88.2404 42.0602C88.0904 41.9402 87.7704 41.7102 87.3204 41.6502C87.2504 41.6502 87.0704 41.6202 86.8404 41.6502C86.7004 41.6702 86.2804 41.7602 85.5104 42.4202C85.2604 42.6302 75.9304 51.9402 75.9304 51.9402C75.8704 52.0102 75.4204 52.5102 75.5604 53.0902C75.7104 53.7402 76.4704 53.9902 76.7104 54.0702C77.0204 54.1702 77.3004 54.1802 77.4804 54.1702L86.8704 54.1202L81.6404 59.4502H67.9804C67.2104 59.2902 66.6904 58.9902 66.3904 58.7802C66.2804 58.7002 66.1404 58.6002 65.9704 58.4402C65.4304 57.9002 65.2604 57.2702 65.1904 57.0202C65.1204 56.7402 64.9904 56.0702 65.2004 55.3302C65.4804 54.3502 66.2104 53.7602 66.4004 53.6002L66.4104 53.6102Z" fill="#B2872D"></path>
  <path d="M87.0703 54.0606C89.0033 54.0606 90.5703 52.5115 90.5703 50.6006C90.5703 48.6897 89.0033 47.1406 87.0703 47.1406C85.1373 47.1406 83.5703 48.6897 83.5703 50.6006C83.5703 52.5115 85.1373 54.0606 87.0703 54.0606Z" fill="#B2872D"></path>
  <path d="M68.0109 61.8004H106.881L111.291 58.9004L107.061 63.8504H67.7709L63.7109 58.9004L68.0109 61.8004Z" fill="#B2872D"></path>
  <path d="M64.6719 83.6016H65.6019C65.9819 83.6016 66.2619 83.6416 66.4719 83.7316C66.6719 83.8216 66.8319 83.9516 66.9519 84.1416C67.0719 84.3316 67.1319 84.5216 67.1319 84.7516C67.1319 84.9616 67.0819 85.1516 66.9819 85.3216C66.8819 85.4916 66.7319 85.6316 66.5319 85.7416C66.7819 85.8216 66.9719 85.9216 67.1019 86.0316C67.2319 86.1416 67.3419 86.2816 67.4119 86.4316C67.4819 86.5816 67.5219 86.7616 67.5219 86.9416C67.5219 87.3216 67.3819 87.6316 67.1019 87.8916C66.8219 88.1516 66.4519 88.2816 65.9819 88.2816H64.6819V83.6016H64.6719ZM65.1419 84.0616V85.5616H65.4119C65.7419 85.5616 65.9819 85.5316 66.1419 85.4716C66.3019 85.4116 66.4219 85.3116 66.5119 85.1816C66.6019 85.0516 66.6519 84.9016 66.6519 84.7516C66.6519 84.5416 66.5719 84.3716 66.4219 84.2516C66.2719 84.1316 66.0319 84.0716 65.7019 84.0716H65.1519L65.1419 84.0616ZM65.1419 86.0316V87.8216H65.7319C66.0819 87.8216 66.3319 87.7916 66.4919 87.7216C66.6519 87.6516 66.7819 87.5516 66.8819 87.4116C66.9819 87.2716 67.0319 87.1116 67.0319 86.9516C67.0319 86.7416 66.9619 86.5616 66.8219 86.4116C66.6819 86.2616 66.4919 86.1516 66.2519 86.0916C66.0919 86.0516 65.8119 86.0316 65.4119 86.0316H65.1419Z" fill="black"></path>
  <path d="M68.3828 83.6016H68.8528V88.2816H68.3828V83.6016Z" fill="black"></path>
  <path d="M69.4553 87.4107L69.8553 87.1707C70.1353 87.6907 70.4653 87.9407 70.8353 87.9407C70.9953 87.9407 71.1453 87.9007 71.2853 87.8307C71.4253 87.7607 71.5353 87.6607 71.6053 87.5407C71.6753 87.4207 71.7153 87.2907 71.7153 87.1507C71.7153 86.9907 71.6653 86.8407 71.5553 86.6907C71.4053 86.4807 71.1353 86.2307 70.7453 85.9407C70.3453 85.6507 70.1053 85.4307 70.0053 85.3007C69.8353 85.0807 69.7553 84.8407 69.7553 84.5807C69.7553 84.3807 69.8053 84.1907 69.9053 84.0207C70.0053 83.8507 70.1453 83.7207 70.3253 83.6207C70.5053 83.5207 70.6953 83.4707 70.9053 83.4707C71.1253 83.4707 71.3353 83.5207 71.5353 83.6307C71.7353 83.7407 71.9353 83.9407 72.1553 84.2307L71.7653 84.5207C71.5853 84.2907 71.4353 84.1307 71.3053 84.0607C71.1853 83.9907 71.0453 83.9507 70.8953 83.9507C70.7053 83.9507 70.5453 84.0107 70.4253 84.1207C70.3053 84.2307 70.2453 84.3807 70.2453 84.5407C70.2453 84.6407 70.2653 84.7407 70.3053 84.8407C70.3453 84.9407 70.4253 85.0407 70.5353 85.1507C70.5953 85.2107 70.8053 85.3607 71.1453 85.6207C71.5553 85.9207 71.8353 86.1907 71.9853 86.4207C72.1353 86.6507 72.2153 86.8907 72.2153 87.1207C72.2153 87.4607 72.0853 87.7507 71.8253 88.0007C71.5653 88.2507 71.2453 88.3807 70.8753 88.3807C70.5853 88.3807 70.3253 88.3007 70.0953 88.1507C69.8653 88.0007 69.6453 87.7407 69.4453 87.3907L69.4553 87.4107Z" fill="black"></path>
  <path d="M75.0391 83.6016H75.5091V85.5616H77.9191V83.6016H78.3891V88.2816H77.9191V86.0216H75.5091V88.2816H75.0391V83.6016Z" fill="black"></path>
  <path d="M82.9703 84.8205V88.2805H82.5303V87.6905C82.3403 87.9205 82.1303 88.0905 81.8903 88.2005C81.6503 88.3205 81.4003 88.3705 81.1203 88.3705C80.6203 88.3705 80.2003 88.1905 79.8503 87.8405C79.5003 87.4805 79.3203 87.0505 79.3203 86.5405C79.3203 86.0305 79.5003 85.6205 79.8503 85.2605C80.2003 84.9005 80.6303 84.7305 81.1303 84.7305C81.4203 84.7305 81.6803 84.7905 81.9103 84.9105C82.1403 85.0305 82.3503 85.2105 82.5203 85.4505V84.8105H82.9603L82.9703 84.8205ZM81.1703 85.1605C80.9203 85.1605 80.6903 85.2205 80.4803 85.3405C80.2703 85.4605 80.1003 85.6305 79.9703 85.8505C79.8403 86.0705 79.7803 86.3005 79.7803 86.5505C79.7803 86.8005 79.8403 87.0305 79.9703 87.2505C80.1003 87.4705 80.2703 87.6505 80.4803 87.7705C80.6903 87.8905 80.9203 87.9605 81.1703 87.9605C81.4203 87.9605 81.6503 87.9005 81.8703 87.7805C82.0903 87.6605 82.2603 87.4905 82.3803 87.2805C82.5003 87.0705 82.5603 86.8305 82.5603 86.5705C82.5603 86.1705 82.4303 85.8305 82.1603 85.5705C81.8903 85.3005 81.5603 85.1705 81.1703 85.1705V85.1605Z" fill="black"></path>
  <path d="M83.9219 83.4805H84.3719V88.2805H83.9219V83.4805Z" fill="black"></path>
  <path d="M85.2422 83.4805H85.6922V88.2805H85.2422V83.4805Z" fill="black"></path>
  <path d="M86.6194 84.8202H87.0694V85.4202C87.2294 85.2002 87.3894 85.0402 87.5494 84.9402C87.7794 84.8002 88.0194 84.7402 88.2694 84.7402C88.4394 84.7402 88.5994 84.7702 88.7494 84.8402C88.8994 84.9102 89.0294 84.9902 89.1294 85.1002C89.2294 85.2102 89.3094 85.3702 89.3794 85.5702C89.5294 85.3002 89.7194 85.0902 89.9394 84.9502C90.1594 84.8102 90.4094 84.7402 90.6594 84.7402C90.8994 84.7402 91.1194 84.8002 91.2994 84.9202C91.4794 85.0402 91.6194 85.2102 91.7094 85.4302C91.7994 85.6502 91.8394 85.9702 91.8394 86.4002V88.2902H91.3794V86.4002C91.3794 86.0302 91.3494 85.7702 91.2994 85.6302C91.2494 85.4902 91.1594 85.3802 91.0294 85.2902C90.8994 85.2102 90.7394 85.1602 90.5694 85.1602C90.3494 85.1602 90.1494 85.2202 89.9694 85.3502C89.7894 85.4802 89.6594 85.6502 89.5694 85.8602C89.4894 86.0702 89.4494 86.4302 89.4494 86.9202V88.2802H88.9994V86.5102C88.9994 86.0902 88.9694 85.8102 88.9194 85.6602C88.8694 85.5102 88.7794 85.3902 88.6394 85.3002C88.5094 85.2102 88.3494 85.1602 88.1694 85.1602C87.9594 85.1602 87.7694 85.2202 87.5894 85.3502C87.4094 85.4702 87.2694 85.6402 87.1894 85.8502C87.1094 86.0602 87.0594 86.3802 87.0594 86.8102V88.2802H86.6094V84.8202H86.6194Z" fill="black"></path>
  <path d="M96.2984 84.8205V88.2805H95.8584V87.6905C95.6684 87.9205 95.4584 88.0905 95.2184 88.2005C94.9784 88.3205 94.7284 88.3705 94.4484 88.3705C93.9484 88.3705 93.5284 88.1905 93.1784 87.8405C92.8284 87.4905 92.6484 87.0505 92.6484 86.5405C92.6484 86.0305 92.8284 85.6205 93.1784 85.2605C93.5284 84.9005 93.9584 84.7305 94.4584 84.7305C94.7484 84.7305 95.0084 84.7905 95.2384 84.9105C95.4684 85.0305 95.6784 85.2105 95.8484 85.4505V84.8105H96.2884L96.2984 84.8205ZM94.4984 85.1605C94.2484 85.1605 94.0184 85.2205 93.8084 85.3405C93.5984 85.4605 93.4284 85.6305 93.2984 85.8505C93.1684 86.0705 93.1084 86.3005 93.1084 86.5505C93.1084 86.8005 93.1684 87.0305 93.2984 87.2505C93.4284 87.4705 93.5984 87.6505 93.8084 87.7705C94.0184 87.8905 94.2484 87.9605 94.4984 87.9605C94.7484 87.9605 94.9784 87.9005 95.1984 87.7805C95.4184 87.6605 95.5884 87.4905 95.7084 87.2805C95.8284 87.0705 95.8884 86.8305 95.8884 86.5705C95.8884 86.1705 95.7584 85.8305 95.4884 85.5705C95.2184 85.3005 94.8884 85.1705 94.4984 85.1705V85.1605Z" fill="black"></path>
  <path d="M97.1484 84.8205H97.6084V85.3305C97.7484 85.1305 97.8884 84.9805 98.0384 84.8805C98.1884 84.7805 98.3484 84.7305 98.5184 84.7305C98.6384 84.7305 98.7784 84.7705 98.9184 84.8505L98.6884 85.2305C98.5984 85.1905 98.5184 85.1705 98.4484 85.1705C98.2984 85.1705 98.1484 85.2305 98.0084 85.3505C97.8684 85.4705 97.7584 85.6605 97.6884 85.9205C97.6284 86.1205 97.6084 86.5205 97.6084 87.1205V88.2905H97.1484V84.8305V84.8205Z" fill="black"></path>
  <path d="M99.3047 83.4807H99.7547V86.2107L101.375 84.8107H102.035L100.105 86.4607L102.145 88.2707H101.515L99.7547 86.7107V88.2707H99.3047V83.4707V83.4807Z" fill="black"></path>
  <path d="M105.563 87.1305L105.943 87.3305C105.823 87.5705 105.673 87.7705 105.513 87.9105C105.353 88.0505 105.163 88.1705 104.963 88.2505C104.753 88.3305 104.523 88.3705 104.273 88.3705C103.703 88.3705 103.253 88.1905 102.933 87.8205C102.613 87.4505 102.453 87.0305 102.453 86.5605C102.453 86.1205 102.593 85.7305 102.863 85.3905C103.213 84.9505 103.673 84.7305 104.253 84.7305C104.833 84.7305 105.333 84.9505 105.683 85.4005C105.933 85.7205 106.063 86.1105 106.073 86.5805H102.923C102.923 86.9805 103.063 87.3105 103.313 87.5705C103.563 87.8305 103.873 87.9605 104.243 87.9605C104.423 87.9605 104.593 87.9305 104.763 87.8705C104.933 87.8105 105.073 87.7305 105.193 87.6305C105.313 87.5305 105.443 87.3605 105.573 87.1405L105.563 87.1305ZM105.563 86.2005C105.503 85.9605 105.413 85.7705 105.303 85.6305C105.183 85.4905 105.033 85.3705 104.843 85.2905C104.653 85.2005 104.453 85.1605 104.243 85.1605C103.903 85.1605 103.603 85.2705 103.353 85.4905C103.173 85.6505 103.033 85.8905 102.943 86.2105H105.553L105.563 86.2005Z" fill="black"></path>
  <path d="M110.4 83.4805V88.2805H109.96V87.6905C109.77 87.9205 109.56 88.0905 109.32 88.2005C109.09 88.3205 108.83 88.3705 108.55 88.3705C108.05 88.3705 107.63 88.1905 107.28 87.8405C106.93 87.4805 106.75 87.0505 106.75 86.5405C106.75 86.0305 106.93 85.6205 107.28 85.2605C107.63 84.9105 108.06 84.7305 108.56 84.7305C108.85 84.7305 109.11 84.7905 109.34 84.9105C109.57 85.0305 109.78 85.2105 109.95 85.4505V83.4805H110.39H110.4ZM108.59 85.1605C108.34 85.1605 108.11 85.2205 107.89 85.3405C107.68 85.4605 107.51 85.6305 107.38 85.8505C107.26 86.0705 107.19 86.3005 107.19 86.5505C107.19 86.8005 107.25 87.0305 107.38 87.2505C107.51 87.4705 107.68 87.6505 107.89 87.7705C108.1 87.8905 108.33 87.9605 108.58 87.9605C108.83 87.9605 109.06 87.9005 109.28 87.7805C109.5 87.6605 109.67 87.4905 109.79 87.2805C109.91 87.0705 109.97 86.8305 109.97 86.5705C109.97 86.1705 109.84 85.8305 109.57 85.5705C109.3 85.3005 108.97 85.1705 108.58 85.1705L108.59 85.1605Z" fill="black"></path>
</svg>
