<?xml version="1.0" encoding="UTF-8"?>
<svg xmlns="http://www.w3.org/2000/svg" width="175" height="125" viewBox="0 0 175 125" fill="none">
  <path d="M58.2188 87.2913V82.6113H59.1887C59.8887 82.6113 60.3988 82.6713 60.7188 82.7813C61.1687 82.9413 61.5287 83.2113 61.7787 83.6113C62.0287 84.0013 62.1587 84.4713 62.1587 85.0113C62.1587 85.4813 62.0587 85.8913 61.8587 86.2513C61.6587 86.6113 61.3887 86.8713 61.0687 87.0413C60.7487 87.2113 60.2887 87.2913 59.7087 87.2913H58.2188ZM58.6687 86.8513H59.2087C59.8587 86.8513 60.3088 86.8113 60.5588 86.7313C60.9088 86.6213 61.1887 86.4113 61.3887 86.1113C61.5887 85.8113 61.6887 85.4513 61.6887 85.0213C61.6887 84.5913 61.5787 84.1813 61.3587 83.8613C61.1387 83.5413 60.8387 83.3213 60.4487 83.2013C60.1587 83.1113 59.6687 83.0713 58.9987 83.0713H58.6687V86.8513Z" fill="black"></path>
  <path d="M63.1513 82.4004C63.2513 82.4004 63.3413 82.4404 63.4113 82.5104C63.4813 82.5804 63.5213 82.6704 63.5213 82.7704C63.5213 82.8704 63.4813 82.9604 63.4113 83.0304C63.3413 83.1004 63.2513 83.1404 63.1513 83.1404C63.0513 83.1404 62.9713 83.1004 62.8913 83.0304C62.8213 82.9604 62.7812 82.8704 62.7812 82.7704C62.7812 82.6704 62.8213 82.5804 62.8913 82.5104C62.9613 82.4404 63.0513 82.4004 63.1513 82.4004ZM62.9313 83.8204H63.3813V87.2804H62.9313V83.8204Z" fill="black"></path>
  <path d="M65.7269 82.4906V82.9306C65.5669 82.8606 65.4269 82.8206 65.3069 82.8206C65.2169 82.8206 65.1469 82.8406 65.0869 82.8706C65.0269 82.9106 64.9969 82.9506 64.9769 82.9906C64.9569 83.0306 64.9569 83.1606 64.9569 83.3506V83.8206H65.6769V84.2006H64.9569V87.2806H64.5069V84.2006H64.0469V83.8206H64.5069V83.2806C64.5069 83.0306 64.5269 82.8506 64.5769 82.7506C64.6169 82.6406 64.6969 82.5606 64.8069 82.4906C64.9169 82.4306 65.0469 82.3906 65.2069 82.3906C65.3469 82.3906 65.5269 82.4206 65.7269 82.4806V82.4906Z" fill="black"></path>
  <path d="M67.7659 82.4906V82.9306C67.6059 82.8606 67.4659 82.8206 67.3459 82.8206C67.2559 82.8206 67.1859 82.8406 67.1259 82.8706C67.0659 82.9106 67.0359 82.9506 67.0159 82.9906C66.9959 83.0306 66.9959 83.1606 66.9959 83.3506V83.8206H67.7159V84.2006H66.9959V87.2806H66.5459V84.2006H66.0859V83.8206H66.5459V83.2806C66.5459 83.0306 66.5659 82.8506 66.6159 82.7506C66.6559 82.6406 66.7359 82.5606 66.8459 82.4906C66.9559 82.4306 67.0859 82.3906 67.2459 82.3906C67.3859 82.3906 67.5659 82.4206 67.7659 82.4806V82.4906Z" fill="black"></path>
  <path d="M71.3066 86.1402L71.6866 86.3402C71.5666 86.5802 71.4166 86.7802 71.2566 86.9202C71.0966 87.0602 70.9166 87.1802 70.7166 87.2602C70.5166 87.3402 70.2866 87.3802 70.0366 87.3802C69.4766 87.3802 69.0266 87.2002 68.7066 86.8302C68.3866 86.4602 68.2266 86.0402 68.2266 85.5702C68.2266 85.1302 68.3566 84.7402 68.6266 84.4002C68.9666 83.9602 69.4266 83.7402 69.9966 83.7402C70.5666 83.7402 71.0566 83.9602 71.4066 84.4102C71.6566 84.7302 71.7866 85.1202 71.7866 85.5902H68.6666C68.6666 85.9902 68.8066 86.3202 69.0566 86.5802C69.3066 86.8402 69.6166 86.9702 69.9766 86.9702C70.1566 86.9702 70.3266 86.9402 70.4866 86.8802C70.6566 86.8202 70.7966 86.7402 70.9066 86.6402C71.0266 86.5402 71.1466 86.3702 71.2866 86.1502L71.3066 86.1402ZM71.3066 85.2102C71.2466 84.9702 71.1566 84.7802 71.0466 84.6402C70.9366 84.5002 70.7866 84.3802 70.5966 84.3002C70.4066 84.2202 70.2166 84.1702 70.0066 84.1702C69.6666 84.1702 69.3766 84.2802 69.1266 84.5002C68.9466 84.6602 68.8166 84.9002 68.7266 85.2202H71.3066V85.2102Z" fill="black"></path>
  <path d="M72.4631 83.8205H72.9231V84.3305C73.0631 84.1305 73.2031 83.9805 73.3531 83.8805C73.5031 83.7805 73.6631 83.7305 73.8231 83.7305C73.9431 83.7305 74.0731 83.7705 74.2131 83.8505L73.9831 84.2305C73.8931 84.1905 73.8131 84.1705 73.7431 84.1705C73.5931 84.1705 73.4531 84.2305 73.3131 84.3505C73.1731 84.4705 73.0731 84.6605 72.9931 84.9205C72.9431 85.1205 72.9131 85.5205 72.9131 86.1205V87.2905H72.4531V83.8305L72.4631 83.8205Z" fill="black"></path>
  <path d="M77.5097 86.1402L77.8897 86.3402C77.7697 86.5802 77.6197 86.7802 77.4597 86.9202C77.2997 87.0602 77.1197 87.1802 76.9197 87.2602C76.7197 87.3402 76.4897 87.3802 76.2397 87.3802C75.6797 87.3802 75.2297 87.2002 74.9097 86.8302C74.5897 86.4602 74.4297 86.0402 74.4297 85.5702C74.4297 85.1302 74.5597 84.7402 74.8297 84.4002C75.1697 83.9602 75.6297 83.7402 76.1997 83.7402C76.7697 83.7402 77.2597 83.9602 77.6097 84.4102C77.8597 84.7302 77.9897 85.1202 77.9897 85.5902H74.8697C74.8697 85.9902 75.0097 86.3202 75.2597 86.5802C75.5097 86.8402 75.8197 86.9702 76.1797 86.9702C76.3597 86.9702 76.5297 86.9402 76.6897 86.8802C76.8597 86.8202 76.9997 86.7402 77.1097 86.6402C77.2297 86.5402 77.3497 86.3702 77.4897 86.1502L77.5097 86.1402ZM77.5097 85.2102C77.4497 84.9702 77.3597 84.7802 77.2497 84.6402C77.1397 84.5002 76.9897 84.3802 76.7997 84.3002C76.6097 84.2202 76.4197 84.1702 76.2097 84.1702C75.8697 84.1702 75.5797 84.2802 75.3297 84.5002C75.1497 84.6602 75.0197 84.9002 74.9297 85.2202H77.5097V85.2102Z" fill="black"></path>
  <path d="M78.8281 83.8205H79.2781V84.4405C79.4581 84.2005 79.6581 84.0205 79.8681 83.9105C80.0881 83.7905 80.3181 83.7305 80.5781 83.7305C80.8381 83.7305 81.0681 83.8005 81.2681 83.9305C81.4681 84.0605 81.6181 84.2405 81.7081 84.4605C81.7981 84.6805 81.8481 85.0305 81.8481 85.5005V87.2805H81.3981V85.6305C81.3981 85.2305 81.3781 84.9605 81.3481 84.8305C81.2981 84.6005 81.1981 84.4305 81.0481 84.3105C80.8981 84.1905 80.7081 84.1405 80.4781 84.1405C80.2081 84.1405 79.9681 84.2305 79.7581 84.4105C79.5481 84.5905 79.4081 84.8105 79.3381 85.0705C79.2981 85.2405 79.2781 85.5605 79.2781 86.0105V87.2805H78.8281V83.8205Z" fill="black"></path>
  <path d="M83.1881 82.541H83.6381V83.831H84.3481V84.211H83.6381V87.291H83.1881V84.211H82.5781V83.831H83.1881V82.541Z" fill="black"></path>
  <path d="M86.8516 87.2902V82.4902H87.3016V84.4202C87.4916 84.1902 87.7016 84.0202 87.9316 83.9102C88.1616 83.8002 88.4116 83.7402 88.6916 83.7402C89.1816 83.7402 89.6016 83.9202 89.9416 84.2702C90.2816 84.6202 90.4616 85.0602 90.4616 85.5602C90.4616 86.0602 90.2916 86.4902 89.9416 86.8402C89.5916 87.1902 89.1716 87.3702 88.6816 87.3702C88.4016 87.3702 88.1416 87.3102 87.9116 87.1902C87.6816 87.0702 87.4816 86.8902 87.3016 86.6502V87.2902H86.8516ZM88.6316 86.9502C88.8816 86.9502 89.1116 86.8902 89.3216 86.7702C89.5316 86.6502 89.7016 86.4802 89.8216 86.2602C89.9416 86.0402 90.0116 85.8102 90.0116 85.5602C90.0116 85.3102 89.9516 85.0802 89.8216 84.8602C89.6916 84.6402 89.5316 84.4602 89.3216 84.3402C89.1116 84.2202 88.8816 84.1502 88.6516 84.1502C88.4216 84.1502 88.1816 84.2102 87.9616 84.3402C87.7416 84.4602 87.5716 84.6302 87.4616 84.8402C87.3516 85.0502 87.2816 85.2902 87.2816 85.5502C87.2816 85.9502 87.4116 86.2902 87.6816 86.5602C87.9516 86.8302 88.2716 86.9602 88.6516 86.9602L88.6316 86.9502Z" fill="black"></path>
  <path d="M90.8906 83.8203H91.3606L92.5506 86.4903L93.7106 83.8203H94.1806L92.1106 88.5503H91.6406L92.3106 87.0203L90.8906 83.8203Z" fill="black"></path>
  <path d="M96.6406 87.2913V82.6113H97.6106C98.3106 82.6113 98.8206 82.6713 99.1406 82.7813C99.5906 82.9413 99.9506 83.2113 100.201 83.6113C100.451 84.0013 100.581 84.4713 100.581 85.0113C100.581 85.4813 100.481 85.8913 100.281 86.2513C100.081 86.6113 99.8106 86.8713 99.4906 87.0413C99.1706 87.2113 98.7106 87.2913 98.1306 87.2913H96.6406ZM97.0806 86.8513H97.6206C98.2706 86.8513 98.7206 86.8113 98.9706 86.7313C99.3206 86.6213 99.6006 86.4113 99.8006 86.1113C100.001 85.8113 100.101 85.4513 100.101 85.0213C100.101 84.5913 99.9906 84.1813 99.7706 83.8613C99.5506 83.5413 99.2506 83.3213 98.8606 83.2013C98.5706 83.1113 98.0806 83.0713 97.4106 83.0713H97.0806V86.8513Z" fill="black"></path>
  <path d="M104.33 86.1402L104.71 86.3402C104.59 86.5802 104.44 86.7802 104.28 86.9202C104.12 87.0602 103.94 87.1802 103.74 87.2602C103.54 87.3402 103.31 87.3802 103.06 87.3802C102.5 87.3802 102.05 87.2002 101.73 86.8302C101.41 86.4602 101.25 86.0402 101.25 85.5702C101.25 85.1302 101.38 84.7402 101.65 84.4002C101.99 83.9602 102.45 83.7402 103.02 83.7402C103.59 83.7402 104.08 83.9602 104.43 84.4102C104.68 84.7302 104.81 85.1202 104.81 85.5902H101.69C101.69 85.9902 101.83 86.3202 102.08 86.5802C102.33 86.8402 102.64 86.9702 103 86.9702C103.18 86.9702 103.35 86.9402 103.51 86.8802C103.68 86.8202 103.82 86.7402 103.93 86.6402C104.05 86.5402 104.17 86.3702 104.31 86.1502L104.33 86.1402ZM104.33 85.2102C104.27 84.9702 104.18 84.7802 104.07 84.6402C103.96 84.5002 103.81 84.3802 103.62 84.3002C103.43 84.2202 103.24 84.1702 103.03 84.1702C102.69 84.1702 102.4 84.2802 102.15 84.5002C101.97 84.6602 101.84 84.9002 101.75 85.2202H104.33V85.2102Z" fill="black"></path>
  <path d="M107.39 84.2005L107.1 84.5005C106.86 84.2705 106.63 84.1505 106.4 84.1505C106.26 84.1505 106.13 84.2005 106.03 84.2905C105.93 84.3905 105.87 84.5005 105.87 84.6205C105.87 84.7305 105.91 84.8405 106 84.9405C106.08 85.0405 106.26 85.1705 106.54 85.3105C106.87 85.4805 107.1 85.6505 107.22 85.8105C107.34 85.9705 107.39 86.1505 107.39 86.3505C107.39 86.6405 107.29 86.8805 107.09 87.0705C106.89 87.2705 106.64 87.3705 106.34 87.3705C106.14 87.3705 105.95 87.3305 105.77 87.2405C105.59 87.1505 105.44 87.0305 105.32 86.8805L105.6 86.5605C105.83 86.8205 106.07 86.9505 106.32 86.9505C106.5 86.9505 106.65 86.8905 106.78 86.7805C106.91 86.6605 106.97 86.5305 106.97 86.3805C106.97 86.2505 106.93 86.1405 106.85 86.0405C106.77 85.9405 106.58 85.8205 106.29 85.6705C105.98 85.5105 105.76 85.3505 105.65 85.1905C105.54 85.0305 105.48 84.8505 105.48 84.6505C105.48 84.3905 105.57 84.1705 105.75 83.9905C105.93 83.8105 106.16 83.7305 106.43 83.7305C106.75 83.7305 107.07 83.8905 107.39 84.2005Z" fill="black"></path>
  <path d="M108.331 82.4004C108.431 82.4004 108.521 82.4404 108.591 82.5104C108.661 82.5804 108.701 82.6704 108.701 82.7704C108.701 82.8704 108.661 82.9604 108.591 83.0304C108.521 83.1004 108.431 83.1404 108.331 83.1404C108.231 83.1404 108.151 83.1004 108.071 83.0304C108.001 82.9604 107.961 82.8704 107.961 82.7704C107.961 82.6704 108.001 82.5804 108.071 82.5104C108.141 82.4404 108.231 82.4004 108.331 82.4004ZM108.111 83.8204H108.561V87.2804H108.111V83.8204Z" fill="black"></path>
  <path d="M112.467 83.8207H112.917V86.5807C112.917 87.0707 112.877 87.4207 112.787 87.6507C112.667 87.9707 112.467 88.2107 112.177 88.3807C111.887 88.5507 111.537 88.6407 111.137 88.6407C110.837 88.6407 110.577 88.6007 110.337 88.5107C110.097 88.4307 109.907 88.3107 109.757 88.1707C109.607 88.0307 109.467 87.8207 109.347 87.5507H109.827C109.957 87.7807 110.127 87.9507 110.337 88.0607C110.547 88.1707 110.807 88.2307 111.107 88.2307C111.407 88.2307 111.667 88.1707 111.877 88.0607C112.087 87.9507 112.237 87.8107 112.327 87.6307C112.417 87.4607 112.457 87.1807 112.457 86.8007V86.6207C112.287 86.8307 112.087 87.0007 111.847 87.1107C111.607 87.2207 111.347 87.2807 111.077 87.2807C110.757 87.2807 110.457 87.2007 110.177 87.0407C109.897 86.8807 109.677 86.6707 109.527 86.4007C109.377 86.1307 109.297 85.8407 109.297 85.5207C109.297 85.2007 109.377 84.9007 109.537 84.6207C109.697 84.3407 109.917 84.1207 110.197 83.9607C110.477 83.8007 110.777 83.7207 111.087 83.7207C111.347 83.7207 111.587 83.7707 111.817 83.8807C112.037 83.9907 112.257 84.1607 112.467 84.4107V83.8107V83.8207ZM111.147 84.1707C110.897 84.1707 110.657 84.2307 110.447 84.3507C110.227 84.4707 110.057 84.6407 109.937 84.8607C109.817 85.0807 109.757 85.3107 109.757 85.5607C109.757 85.9407 109.887 86.2507 110.137 86.5007C110.387 86.7507 110.717 86.8707 111.127 86.8707C111.537 86.8707 111.867 86.7507 112.117 86.5007C112.367 86.2507 112.487 85.9307 112.487 85.5307C112.487 85.2707 112.427 85.0407 112.317 84.8307C112.207 84.6307 112.037 84.4607 111.827 84.3407C111.617 84.2207 111.387 84.1607 111.147 84.1607V84.1707Z" fill="black"></path>
  <path d="M113.867 83.8205H114.317V84.4405C114.497 84.2005 114.697 84.0205 114.907 83.9105C115.127 83.7905 115.357 83.7305 115.617 83.7305C115.877 83.7305 116.107 83.8005 116.307 83.9305C116.507 84.0605 116.657 84.2405 116.747 84.4605C116.837 84.6805 116.887 85.0305 116.887 85.5005V87.2805H116.437V85.6305C116.437 85.2305 116.417 84.9605 116.387 84.8305C116.337 84.6005 116.237 84.4305 116.087 84.3105C115.937 84.1905 115.747 84.1405 115.517 84.1405C115.247 84.1405 115.007 84.2305 114.797 84.4105C114.587 84.5905 114.447 84.8105 114.377 85.0705C114.337 85.2405 114.317 85.5605 114.317 86.0105V87.2805H113.867V83.8205Z" fill="black"></path>
  <path d="M43.8594 90.4299H44.3294V93.2599C44.3294 93.5899 44.3294 93.7999 44.3494 93.8899C44.3694 94.0699 44.4294 94.2299 44.5094 94.3499C44.5894 94.4699 44.7194 94.5799 44.8994 94.6599C45.0794 94.7399 45.2494 94.7799 45.4294 94.7799C45.5794 94.7799 45.7294 94.7499 45.8794 94.6799C46.0194 94.6099 46.1394 94.5199 46.2394 94.4099C46.3394 94.2899 46.4094 94.1499 46.4494 93.9899C46.4794 93.8699 46.4994 93.6299 46.4994 93.2599V90.4299H46.9694V93.2599C46.9694 93.6799 46.9294 94.0199 46.8494 94.2699C46.7694 94.5299 46.5994 94.7499 46.3594 94.9399C46.1094 95.1299 45.8194 95.2299 45.4694 95.2299C45.0894 95.2299 44.7694 95.1399 44.4994 94.9599C44.2294 94.7799 44.0494 94.5399 43.9594 94.2399C43.8994 94.0599 43.8694 93.7299 43.8694 93.2499V90.4199L43.8594 90.4299Z" fill="black"></path>
  <path d="M48.0391 91.6506H48.4891V92.2705C48.6691 92.0305 48.8691 91.8505 49.0791 91.7405C49.2991 91.6205 49.5291 91.5605 49.7891 91.5605C50.0491 91.5605 50.2791 91.6306 50.4791 91.7606C50.6791 91.8906 50.8291 92.0706 50.9191 92.2906C51.0091 92.5106 51.0591 92.8606 51.0591 93.3306V95.1105H50.6091V93.4605C50.6091 93.0605 50.5891 92.7906 50.5591 92.6606C50.5091 92.4306 50.4091 92.2605 50.2591 92.1405C50.1091 92.0205 49.9191 91.9706 49.6891 91.9706C49.4191 91.9706 49.1791 92.0605 48.9691 92.2405C48.7591 92.4205 48.6191 92.6406 48.5491 92.9006C48.5091 93.0706 48.4891 93.3905 48.4891 93.8405V95.1105H48.0391V91.6506Z" fill="black"></path>
  <path d="M52.1669 90.2207C52.2669 90.2207 52.3569 90.2607 52.4269 90.3307C52.4969 90.4007 52.5369 90.4907 52.5369 90.5907C52.5369 90.6907 52.4969 90.7807 52.4269 90.8507C52.3569 90.9207 52.2669 90.9607 52.1669 90.9607C52.0669 90.9607 51.9869 90.9207 51.9069 90.8507C51.8369 90.7807 51.7969 90.6907 51.7969 90.5907C51.7969 90.4907 51.8369 90.4007 51.9069 90.3307C51.9769 90.2607 52.0669 90.2207 52.1669 90.2207ZM51.9469 91.6507H52.3969V95.1107H51.9469V91.6507Z" fill="black"></path>
  <path d="M56.7584 91.6506V96.3805H56.3184V94.5205C56.1284 94.7505 55.9184 94.9205 55.6884 95.0305C55.4584 95.1505 55.1984 95.2005 54.9284 95.2005C54.4384 95.2005 54.0184 95.0205 53.6684 94.6705C53.3184 94.3105 53.1484 93.8806 53.1484 93.3706C53.1484 92.8606 53.3284 92.4505 53.6784 92.0905C54.0284 91.7405 54.4484 91.5605 54.9384 91.5605C55.2184 91.5605 55.4784 91.6205 55.7084 91.7405C55.9384 91.8605 56.1384 92.0405 56.3184 92.2805V91.6405H56.7584V91.6506ZM54.9784 91.9905C54.7284 91.9905 54.4984 92.0505 54.2884 92.1705C54.0784 92.2905 53.9084 92.4605 53.7884 92.6805C53.6684 92.9005 53.5984 93.1305 53.5984 93.3805C53.5984 93.6305 53.6584 93.8606 53.7884 94.0806C53.9184 94.3006 54.0784 94.4805 54.2884 94.6005C54.4984 94.7205 54.7284 94.7906 54.9684 94.7906C55.2084 94.7906 55.4384 94.7305 55.6584 94.6105C55.8784 94.4905 56.0484 94.3205 56.1584 94.1105C56.2784 93.9005 56.3384 93.6606 56.3384 93.4006C56.3384 93.0006 56.2084 92.6606 55.9384 92.4006C55.6784 92.1306 55.3484 92.0005 54.9684 92.0005L54.9784 91.9905Z" fill="black"></path>
  <path d="M57.7109 91.6506H58.1609V93.2706C58.1609 93.6606 58.1809 93.9406 58.2209 94.0806C58.2809 94.2906 58.4109 94.4606 58.5909 94.5806C58.7709 94.7006 58.9809 94.7606 59.2309 94.7606C59.4809 94.7606 59.6909 94.7006 59.8609 94.5806C60.0309 94.4606 60.1509 94.3006 60.2209 94.1106C60.2609 93.9806 60.2909 93.6906 60.2909 93.2606V91.6406H60.7509V93.3406C60.7509 93.8206 60.6909 94.1806 60.5809 94.4206C60.4709 94.6606 60.3009 94.8506 60.0809 94.9906C59.8609 95.1306 59.5809 95.2006 59.2409 95.2006C58.9009 95.2006 58.6209 95.1306 58.4009 94.9906C58.1809 94.8506 58.0109 94.6606 57.8909 94.4206C57.7709 94.1806 57.7209 93.8106 57.7209 93.3106V91.6406L57.7109 91.6506Z" fill="black"></path>
  <path d="M64.6425 93.9605L65.0225 94.1606C64.9025 94.4006 64.7525 94.6005 64.5925 94.7405C64.4325 94.8805 64.2525 95.0006 64.0525 95.0806C63.8525 95.1606 63.6225 95.2005 63.3725 95.2005C62.8125 95.2005 62.3625 95.0206 62.0425 94.6506C61.7225 94.2806 61.5625 93.8605 61.5625 93.3905C61.5625 92.9505 61.6925 92.5606 61.9625 92.2206C62.3025 91.7806 62.7625 91.5605 63.3325 91.5605C63.9025 91.5605 64.3925 91.7806 64.7425 92.2306C64.9925 92.5506 65.1225 92.9406 65.1225 93.4106H62.0025C62.0025 93.8106 62.1425 94.1406 62.3925 94.4006C62.6425 94.6606 62.9525 94.7906 63.3125 94.7906C63.4925 94.7906 63.6625 94.7605 63.8225 94.7005C63.9925 94.6405 64.1325 94.5605 64.2425 94.4605C64.3625 94.3605 64.4825 94.1906 64.6225 93.9706L64.6425 93.9605ZM64.6425 93.0305C64.5825 92.7905 64.4925 92.6005 64.3825 92.4605C64.2725 92.3205 64.1225 92.2006 63.9325 92.1206C63.7425 92.0406 63.5525 91.9905 63.3425 91.9905C63.0025 91.9905 62.7125 92.1005 62.4625 92.3205C62.2825 92.4805 62.1525 92.7206 62.0625 93.0406H64.6425V93.0305Z" fill="black"></path>
  <path d="M71.2194 90.3105V95.1105H70.7794V94.5205C70.5894 94.7505 70.3794 94.9205 70.1494 95.0305C69.9194 95.1505 69.6594 95.2005 69.3894 95.2005C68.8994 95.2005 68.4794 95.0205 68.1294 94.6705C67.7794 94.3205 67.6094 93.8806 67.6094 93.3706C67.6094 92.8606 67.7794 92.4505 68.1394 92.0905C68.4894 91.7405 68.9094 91.5605 69.3994 91.5605C69.6794 91.5605 69.9394 91.6205 70.1694 91.7405C70.3994 91.8605 70.5994 92.0405 70.7794 92.2805V90.3105H71.2194ZM69.4394 91.9905C69.1894 91.9905 68.9594 92.0505 68.7494 92.1705C68.5394 92.2905 68.3694 92.4605 68.2494 92.6805C68.1294 92.9005 68.0594 93.1305 68.0594 93.3805C68.0594 93.6305 68.1194 93.8606 68.2494 94.0806C68.3794 94.3006 68.5394 94.4805 68.7494 94.6005C68.9594 94.7205 69.1894 94.7906 69.4294 94.7906C69.6694 94.7906 69.8994 94.7305 70.1194 94.6105C70.3394 94.4905 70.5094 94.3205 70.6194 94.1105C70.7394 93.9005 70.7994 93.6606 70.7994 93.4006C70.7994 93.0006 70.6694 92.6606 70.3994 92.4006C70.1394 92.1306 69.8094 92.0005 69.4294 92.0005L69.4394 91.9905Z" fill="black"></path>
  <path d="M75.1503 93.9605L75.5303 94.1606C75.4103 94.4006 75.2603 94.6005 75.1003 94.7405C74.9403 94.8805 74.7603 95.0006 74.5603 95.0806C74.3603 95.1606 74.1303 95.2005 73.8803 95.2005C73.3203 95.2005 72.8703 95.0206 72.5503 94.6506C72.2303 94.2806 72.0703 93.8605 72.0703 93.3905C72.0703 92.9505 72.2003 92.5606 72.4703 92.2206C72.8103 91.7806 73.2703 91.5605 73.8403 91.5605C74.4103 91.5605 74.9003 91.7806 75.2503 92.2306C75.5003 92.5506 75.6303 92.9406 75.6303 93.4106H72.5103C72.5103 93.8106 72.6503 94.1406 72.9003 94.4006C73.1503 94.6606 73.4603 94.7906 73.8203 94.7906C74.0003 94.7906 74.1703 94.7605 74.3303 94.7005C74.5003 94.6405 74.6403 94.5605 74.7503 94.4605C74.8703 94.3605 74.9903 94.1906 75.1303 93.9706L75.1503 93.9605ZM75.1503 93.0305C75.0903 92.7905 75.0003 92.6005 74.8903 92.4605C74.7803 92.3205 74.6303 92.2006 74.4403 92.1206C74.2503 92.0406 74.0603 91.9905 73.8503 91.9905C73.5103 91.9905 73.2203 92.1005 72.9703 92.3205C72.7903 92.4805 72.6603 92.7206 72.5703 93.0406H75.1503V93.0305Z" fill="black"></path>
  <path d="M78.2106 92.0305L77.9206 92.3306C77.6806 92.1006 77.4506 91.9806 77.2206 91.9806C77.0806 91.9806 76.9506 92.0306 76.8506 92.1206C76.7506 92.2206 76.6906 92.3305 76.6906 92.4505C76.6906 92.5605 76.7306 92.6705 76.8206 92.7705C76.9006 92.8705 77.0806 93.0005 77.3606 93.1405C77.6906 93.3105 77.9206 93.4805 78.0406 93.6405C78.1606 93.8005 78.2106 93.9805 78.2106 94.1805C78.2106 94.4705 78.1106 94.7106 77.9106 94.9006C77.7106 95.1006 77.4606 95.2005 77.1606 95.2005C76.9606 95.2005 76.7706 95.1605 76.5906 95.0705C76.4106 94.9805 76.2606 94.8605 76.1406 94.7105L76.4206 94.3905C76.6506 94.6505 76.8906 94.7805 77.1406 94.7805C77.3206 94.7805 77.4706 94.7205 77.6006 94.6105C77.7306 94.4905 77.7906 94.3605 77.7906 94.2105C77.7906 94.0805 77.7506 93.9706 77.6706 93.8706C77.5906 93.7706 77.4006 93.6505 77.1106 93.5005C76.8006 93.3405 76.5806 93.1805 76.4706 93.0205C76.3606 92.8605 76.3006 92.6806 76.3006 92.4806C76.3006 92.2206 76.3906 92.0005 76.5706 91.8205C76.7506 91.6405 76.9806 91.5605 77.2506 91.5605C77.5706 91.5605 77.8906 91.7205 78.2106 92.0305Z" fill="black"></path>
  <path d="M79.1513 90.2207C79.2513 90.2207 79.3413 90.2607 79.4113 90.3307C79.4813 90.4007 79.5212 90.4907 79.5212 90.5907C79.5212 90.6907 79.4813 90.7807 79.4113 90.8507C79.3413 90.9207 79.2513 90.9607 79.1513 90.9607C79.0513 90.9607 78.9713 90.9207 78.8913 90.8507C78.8213 90.7807 78.7812 90.6907 78.7812 90.5907C78.7812 90.4907 78.8213 90.4007 78.8913 90.3307C78.9613 90.2607 79.0513 90.2207 79.1513 90.2207ZM78.9313 91.6507H79.3812V95.1107H78.9313V91.6507Z" fill="black"></path>
  <path d="M83.2872 91.6508H83.7372V94.4108C83.7372 94.9008 83.6972 95.2508 83.6072 95.4808C83.4872 95.8008 83.2872 96.0408 82.9972 96.2108C82.7072 96.3808 82.3572 96.4708 81.9572 96.4708C81.6572 96.4708 81.3972 96.4308 81.1572 96.3408C80.9172 96.2608 80.7272 96.1408 80.5772 96.0008C80.4272 95.8608 80.2872 95.6508 80.1672 95.3808H80.6472C80.7772 95.6108 80.9472 95.7808 81.1572 95.8908C81.3672 96.0008 81.6272 96.0608 81.9272 96.0608C82.2272 96.0608 82.4872 96.0008 82.6972 95.8908C82.9072 95.7808 83.0572 95.6408 83.1472 95.4608C83.2372 95.2908 83.2772 95.0108 83.2772 94.6308V94.4508C83.1072 94.6608 82.9072 94.8308 82.6672 94.9408C82.4272 95.0508 82.1672 95.1108 81.8972 95.1108C81.5772 95.1108 81.2772 95.0308 80.9972 94.8708C80.7172 94.7108 80.4972 94.5008 80.3472 94.2308C80.1972 93.9608 80.1172 93.6708 80.1172 93.3508C80.1172 93.0308 80.1972 92.7308 80.3572 92.4508C80.5172 92.1708 80.7372 91.9508 81.0172 91.7908C81.2972 91.6308 81.5972 91.5508 81.9072 91.5508C82.1672 91.5508 82.4072 91.6008 82.6372 91.7108C82.8572 91.8208 83.0772 91.9908 83.2872 92.2408V91.6408V91.6508ZM81.9672 91.9908C81.7172 91.9908 81.4772 92.0508 81.2672 92.1708C81.0472 92.2908 80.8772 92.4608 80.7572 92.6808C80.6372 92.9008 80.5772 93.1308 80.5772 93.3808C80.5772 93.7608 80.7072 94.0708 80.9572 94.3208C81.2072 94.5708 81.5372 94.6908 81.9472 94.6908C82.3572 94.6908 82.6872 94.5708 82.9372 94.3208C83.1872 94.0708 83.3072 93.7508 83.3072 93.3508C83.3072 93.0908 83.2472 92.8608 83.1372 92.6508C83.0272 92.4508 82.8572 92.2808 82.6472 92.1608C82.4372 92.0408 82.2072 91.9808 81.9672 91.9808V91.9908Z" fill="black"></path>
  <path d="M84.6875 91.6506H85.1375V92.2705C85.3175 92.0305 85.5175 91.8505 85.7275 91.7405C85.9475 91.6205 86.1775 91.5605 86.4375 91.5605C86.6975 91.5605 86.9275 91.6306 87.1275 91.7606C87.3275 91.8906 87.4775 92.0706 87.5675 92.2906C87.6575 92.5106 87.7075 92.8606 87.7075 93.3306V95.1105H87.2575V93.4605C87.2575 93.0605 87.2375 92.7906 87.2075 92.6606C87.1575 92.4306 87.0575 92.2605 86.9075 92.1405C86.7575 92.0205 86.5675 91.9706 86.3375 91.9706C86.0675 91.9706 85.8275 92.0605 85.6175 92.2405C85.4075 92.4205 85.2675 92.6406 85.1975 92.9006C85.1575 93.0706 85.1375 93.3905 85.1375 93.8405V95.1105H84.6875V91.6506Z" fill="black"></path>
  <path d="M90.4059 92.0305L90.1159 92.3306C89.8759 92.1006 89.6459 91.9806 89.4159 91.9806C89.2759 91.9806 89.1459 92.0306 89.0459 92.1206C88.9459 92.2206 88.8859 92.3305 88.8859 92.4505C88.8859 92.5605 88.9259 92.6705 89.0159 92.7705C89.0959 92.8705 89.2759 93.0005 89.5559 93.1405C89.8859 93.3105 90.1159 93.4805 90.2359 93.6405C90.3559 93.8005 90.4059 93.9805 90.4059 94.1805C90.4059 94.4705 90.3059 94.7106 90.1059 94.9006C89.9059 95.1006 89.6559 95.2005 89.3559 95.2005C89.1559 95.2005 88.9659 95.1605 88.7859 95.0705C88.6059 94.9805 88.4559 94.8605 88.3359 94.7105L88.6159 94.3905C88.8459 94.6505 89.0859 94.7805 89.3359 94.7805C89.5159 94.7805 89.6659 94.7205 89.7959 94.6105C89.9259 94.4905 89.9859 94.3605 89.9859 94.2105C89.9859 94.0805 89.9459 93.9706 89.8659 93.8706C89.7859 93.7706 89.5959 93.6505 89.3059 93.5005C88.9959 93.3405 88.7759 93.1805 88.6659 93.0205C88.5559 92.8605 88.4959 92.6806 88.4959 92.4806C88.4959 92.2206 88.5859 92.0005 88.7659 91.8205C88.9459 91.6405 89.1759 91.5605 89.4459 91.5605C89.7659 91.5605 90.0859 91.7205 90.4059 92.0305Z" fill="black"></path>
  <path d="M92.5256 91.6504H92.9856L94.0456 94.1604L95.1456 91.6504H95.2256L96.3356 94.1604L97.4156 91.6504H97.8756L96.3756 95.1104H96.2956L95.1856 92.6304L94.0756 95.1104H93.9956L92.5156 91.6504H92.5256Z" fill="black"></path>
  <path d="M98.5731 90.2207C98.6731 90.2207 98.7631 90.2607 98.8331 90.3307C98.9031 90.4007 98.9431 90.4907 98.9431 90.5907C98.9431 90.6907 98.9031 90.7807 98.8331 90.8507C98.7631 90.9207 98.6731 90.9607 98.5731 90.9607C98.4731 90.9607 98.3931 90.9207 98.3131 90.8507C98.2431 90.7807 98.2031 90.6907 98.2031 90.5907C98.2031 90.4907 98.2431 90.4007 98.3131 90.3307C98.3831 90.2607 98.4731 90.2207 98.5731 90.2207ZM98.3531 91.6507H98.8031V95.1107H98.3531V91.6507Z" fill="black"></path>
  <path d="M100.11 90.3613H100.56V91.6513H101.27V92.0313H100.56V95.1113H100.11V92.0313H99.5V91.6513H100.11V90.3613Z" fill="black"></path>
  <path d="M101.932 90.3105H102.382V92.2705C102.562 92.0305 102.762 91.8505 102.972 91.7405C103.192 91.6205 103.422 91.5605 103.672 91.5605C103.922 91.5605 104.162 91.6306 104.362 91.7606C104.562 91.8906 104.712 92.0706 104.802 92.2906C104.892 92.5106 104.942 92.8606 104.942 93.3306V95.1105H104.492V93.4605C104.492 93.0605 104.472 92.7906 104.442 92.6606C104.392 92.4306 104.282 92.2605 104.142 92.1405C103.992 92.0205 103.802 91.9706 103.572 91.9706C103.302 91.9706 103.062 92.0605 102.852 92.2405C102.642 92.4205 102.502 92.6406 102.432 92.9006C102.392 93.0706 102.372 93.3805 102.372 93.8405V95.1105H101.922V90.3105H101.932Z" fill="black"></path>
  <path d="M111.163 91.6506V95.1105H110.723V94.5205C110.533 94.7505 110.322 94.9205 110.092 95.0305C109.862 95.1505 109.603 95.2005 109.333 95.2005C108.843 95.2005 108.423 95.0205 108.083 94.6705C107.733 94.3105 107.562 93.8806 107.562 93.3706C107.562 92.8606 107.733 92.4505 108.083 92.0905C108.433 91.7405 108.852 91.5605 109.342 91.5605C109.622 91.5605 109.883 91.6205 110.113 91.7405C110.343 91.8605 110.543 92.0405 110.723 92.2805V91.6405H111.163V91.6506ZM109.382 91.9905C109.132 91.9905 108.903 92.0505 108.693 92.1705C108.483 92.2905 108.313 92.4605 108.193 92.6805C108.073 92.9005 108.003 93.1305 108.003 93.3805C108.003 93.6305 108.063 93.8606 108.193 94.0806C108.323 94.3006 108.483 94.4805 108.693 94.6005C108.903 94.7205 109.133 94.7906 109.373 94.7906C109.613 94.7906 109.843 94.7305 110.062 94.6105C110.282 94.4905 110.453 94.3205 110.562 94.1105C110.682 93.9005 110.743 93.6606 110.743 93.4006C110.743 93.0006 110.612 92.6606 110.342 92.4006C110.082 92.1306 109.753 92.0005 109.373 92.0005L109.382 91.9905Z" fill="black"></path>
  <path d="M113.781 90.4297H114.261L115.221 93.7997L116.561 90.4297H116.661L117.991 93.7997L118.961 90.4297H119.441L118.101 95.1097H118.011L116.621 91.5697L115.201 95.1097H115.111L113.781 90.4297Z" fill="black"></path>
  <path d="M121.863 91.5605C122.393 91.5605 122.843 91.7505 123.193 92.1405C123.513 92.4905 123.673 92.9105 123.673 93.3905C123.673 93.8705 123.503 94.3006 123.163 94.6606C122.823 95.0206 122.393 95.2005 121.863 95.2005C121.333 95.2005 120.893 95.0206 120.562 94.6606C120.222 94.3006 120.062 93.8705 120.062 93.3905C120.062 92.9105 120.223 92.4905 120.543 92.1405C120.893 91.7505 121.333 91.5605 121.873 91.5605H121.863ZM121.863 91.9905C121.493 91.9905 121.173 92.1306 120.903 92.4006C120.633 92.6706 120.503 93.0005 120.503 93.3905C120.503 93.6405 120.563 93.8705 120.683 94.0905C120.803 94.3105 120.973 94.4705 121.173 94.5905C121.383 94.7105 121.603 94.7705 121.853 94.7705C122.103 94.7705 122.323 94.7105 122.533 94.5905C122.743 94.4705 122.902 94.3005 123.022 94.0905C123.142 93.8705 123.202 93.6405 123.202 93.3905C123.202 93.0005 123.073 92.6706 122.803 92.4006C122.533 92.1306 122.223 91.9905 121.853 91.9905H121.863Z" fill="black"></path>
  <path d="M124.323 91.6506H124.783V92.1606C124.923 91.9606 125.063 91.8105 125.213 91.7105C125.363 91.6105 125.523 91.5605 125.683 91.5605C125.803 91.5605 125.933 91.6005 126.073 91.6805L125.842 92.0605C125.752 92.0205 125.673 92.0005 125.603 92.0005C125.453 92.0005 125.313 92.0605 125.173 92.1805C125.033 92.3005 124.933 92.4905 124.853 92.7505C124.803 92.9505 124.772 93.3505 124.772 93.9505V95.1206H124.312V91.6606L124.323 91.6506Z" fill="black"></path>
  <path d="M126.391 90.3105H126.841V95.1105H126.391V90.3105Z" fill="black"></path>
  <path d="M131.212 90.3105V95.1105H130.772V94.5205C130.582 94.7505 130.372 94.9205 130.142 95.0305C129.912 95.1505 129.652 95.2005 129.382 95.2005C128.892 95.2005 128.472 95.0205 128.122 94.6705C127.772 94.3205 127.602 93.8806 127.602 93.3706C127.602 92.8606 127.772 92.4505 128.132 92.0905C128.482 91.7405 128.902 91.5605 129.392 91.5605C129.672 91.5605 129.932 91.6205 130.162 91.7405C130.392 91.8605 130.592 92.0405 130.772 92.2805V90.3105H131.212ZM129.432 91.9905C129.182 91.9905 128.952 92.0505 128.742 92.1705C128.532 92.2905 128.362 92.4605 128.242 92.6805C128.122 92.9005 128.052 93.1305 128.052 93.3805C128.052 93.6305 128.112 93.8606 128.242 94.0806C128.372 94.3006 128.532 94.4805 128.742 94.6005C128.952 94.7205 129.182 94.7906 129.422 94.7906C129.662 94.7906 129.892 94.7305 130.112 94.6105C130.332 94.4905 130.502 94.3205 130.612 94.1105C130.732 93.9005 130.792 93.6606 130.792 93.4006C130.792 93.0006 130.662 92.6606 130.392 92.4006C130.132 92.1306 129.802 92.0005 129.422 92.0005L129.432 91.9905Z" fill="black"></path>
  <path d="M97.735 52.5507V52.5307C97.735 52.5307 97.735 52.5207 97.735 52.5107C97.735 52.5107 97.735 52.5007 97.735 52.4907C97.735 52.4907 97.735 52.4807 97.735 52.4707C97.735 52.4707 97.735 52.4607 97.735 52.4507C97.735 52.4507 97.735 52.4507 97.735 52.4407L94.655 48.2607C94.655 48.2607 94.645 48.2507 94.635 48.2407C94.635 48.2407 94.635 48.2407 94.625 48.2307C94.625 48.2307 94.615 48.2307 94.605 48.2307C94.605 48.2307 94.605 48.2307 94.595 48.2307C94.585 48.2307 94.575 48.2307 94.555 48.2207C94.545 48.2207 94.525 48.2207 94.515 48.2207H80.585C80.575 48.2207 80.555 48.2207 80.545 48.2207C80.535 48.2207 80.525 48.2207 80.515 48.2307C80.515 48.2307 80.515 48.2307 80.505 48.2307C80.505 48.2307 80.495 48.2307 80.485 48.2307C80.485 48.2307 80.485 48.2307 80.475 48.2407C80.475 48.2407 80.465 48.2507 80.455 48.2607L77.375 52.4407C77.375 52.4407 77.375 52.4407 77.375 52.4507C77.375 52.4507 77.375 52.4607 77.375 52.4707C77.375 52.4707 77.375 52.4707 77.375 52.4907C77.375 52.4907 77.375 52.5007 77.375 52.5107C77.375 52.5107 77.375 52.5207 77.375 52.5307V52.5507V52.5707C77.375 52.5707 77.375 52.5707 77.375 52.5807V52.6007C77.375 52.6007 77.375 52.6007 77.375 52.6107C77.375 52.6107 77.375 52.6307 77.385 52.6307C77.385 52.6307 77.395 52.6507 77.405 52.6507L87.445 62.6307C87.445 62.6307 87.465 62.6507 87.475 62.6507C87.475 62.6507 87.495 62.6507 87.505 62.6607H87.525C87.535 62.6607 87.545 62.6607 87.555 62.6607C87.565 62.6607 87.575 62.6607 87.585 62.6607H87.605C87.605 62.6607 87.625 62.6607 87.635 62.6507C87.635 62.6507 87.655 62.6407 87.665 62.6307L97.705 52.6507C97.705 52.6507 97.715 52.6307 97.725 52.6307C97.725 52.6307 97.725 52.6107 97.735 52.6107C97.735 52.6107 97.735 52.6107 97.735 52.6007C97.735 52.6007 97.735 52.5907 97.735 52.5807C97.735 52.5807 97.735 52.5807 97.735 52.5707V52.5507ZM94.065 48.5807L91.415 52.2407L87.955 48.5807H94.065ZM90.975 52.3607H84.025L87.505 48.6807L90.985 52.3607H90.975ZM87.025 48.5807L83.565 52.2407L80.915 48.5807H87.025ZM80.525 48.7207L83.155 52.3607H77.845L80.525 48.7207ZM77.945 52.7607H83.425L86.965 61.7207L77.945 52.7607ZM87.495 61.9907L83.845 52.7607H91.135L87.485 61.9907H87.495ZM88.035 61.7107L91.575 52.7507H97.055L88.035 61.7107ZM91.835 52.3607L94.465 48.7207L97.145 52.3607H91.835Z" fill="#B2872D"></path>
  <path d="M87.4656 44.1C87.5756 44.1 87.6656 44.01 87.6656 43.9V41.2C87.6656 41.09 87.5756 41 87.4656 41C87.3556 41 87.2656 41.09 87.2656 41.2V43.9C87.2656 44.01 87.3556 44.1 87.4656 44.1Z" fill="#B2872D"></path>
  <path d="M84.7148 44.4604C84.7448 44.5504 84.8248 44.6004 84.9048 44.6004C84.9248 44.6004 84.9448 44.6004 84.9648 44.6004C85.0748 44.5704 85.1248 44.4504 85.0948 44.3504L84.2948 41.8105C84.2648 41.7005 84.1448 41.6504 84.0448 41.6804C83.9348 41.7104 83.8848 41.8304 83.9148 41.9304L84.7148 44.4704V44.4604Z" fill="#B2872D"></path>
  <path d="M82.4874 45.9995C82.5274 46.0495 82.5874 46.0795 82.6474 46.0795C82.6874 46.0795 82.7274 46.0695 82.7674 46.0395C82.8574 45.9695 82.8774 45.8495 82.8074 45.7595L81.3074 43.6895C81.2374 43.5995 81.1174 43.5795 81.0274 43.6495C80.9374 43.7195 80.9174 43.8395 80.9874 43.9295L82.4874 45.9995Z" fill="#B2872D"></path>
  <path d="M89.9034 44.5901C89.9034 44.5901 89.9434 44.5901 89.9634 44.5901C90.0534 44.5901 90.1234 44.5401 90.1534 44.4501L90.9534 41.9101C90.9834 41.8001 90.9234 41.6901 90.8234 41.6601C90.7134 41.6301 90.6034 41.6901 90.5734 41.7901L89.7734 44.3301C89.7434 44.4401 89.8034 44.5501 89.9034 44.5801V44.5901Z" fill="#B2872D"></path>
  <path d="M92.1013 46.0391C92.1013 46.0391 92.1813 46.0791 92.2213 46.0791C92.2813 46.0791 92.3413 46.0491 92.3813 45.9991L93.8813 43.9291C93.9513 43.8391 93.9313 43.7091 93.8413 43.6491C93.7513 43.5891 93.6213 43.5991 93.5613 43.6891L92.0613 45.7591C92.0013 45.8491 92.0113 45.9791 92.1013 46.0391Z" fill="#B2872D"></path>
  <path d="M102.309 52.5307C102.309 58.9507 97.7788 63.2107 97.3088 63.6307C93.2588 67.2207 88.5888 67.3407 87.4988 67.3407C86.1688 67.3407 82.8088 67.1607 79.4688 64.9807C75.3888 62.3107 72.6188 57.5407 72.6888 52.5307C72.7888 45.2707 78.8588 37.7207 87.4988 37.7207C95.6788 37.7207 102.309 44.3507 102.309 52.5307Z" stroke="#B2872D" stroke-miterlimit="10"></path>
  <path d="M78.25 63.9999C80.39 63.3499 83.48 62.6699 87.23 62.6699C91.25 62.6699 94.53 63.4699 96.73 64.1899" stroke="#B2872D" stroke-width="0.75" stroke-miterlimit="10"></path>
</svg>
