<?xml version="1.0" encoding="UTF-8"?>
<svg xmlns="http://www.w3.org/2000/svg" width="176" height="126" viewBox="0 0 176 126" fill="none">
  <path d="M58.6016 84.5H59.0716V88.73H60.8716V89.18H58.6016V84.5Z" fill="black"></path>
  <path d="M61.6903 84.2891C61.7903 84.2891 61.8803 84.3291 61.9503 84.3991C62.0203 84.4691 62.0603 84.5591 62.0603 84.6591C62.0603 84.7591 62.0203 84.8491 61.9503 84.9191C61.8803 84.9891 61.7903 85.0291 61.6903 85.0291C61.5903 85.0291 61.5003 84.9891 61.4303 84.9191C61.3603 84.8491 61.3203 84.7591 61.3203 84.6591C61.3203 84.5591 61.3603 84.4691 61.4303 84.3991C61.5003 84.3291 61.5903 84.2891 61.6903 84.2891ZM61.4703 85.7191H61.9203V89.1791H61.4703V85.7191Z" fill="black"></path>
  <path d="M64.2738 84.3793V84.8193C64.1138 84.7493 63.9737 84.7093 63.8537 84.7093C63.7637 84.7093 63.6938 84.7293 63.6338 84.7593C63.5738 84.7993 63.5438 84.8393 63.5238 84.8793C63.5038 84.9293 63.5037 85.0493 63.5037 85.2393V85.7093H64.2238V86.0893H63.5037V89.1693H63.0537V86.0893H62.5938V85.7093H63.0537V85.1693C63.0537 84.9193 63.0737 84.7393 63.1237 84.6393C63.1737 84.5293 63.2437 84.4493 63.3537 84.3793C63.4637 84.3193 63.5937 84.2793 63.7537 84.2793C63.8937 84.2793 64.0738 84.3093 64.2738 84.3693V84.3793Z" fill="black"></path>
  <path d="M67.8087 88.0289L68.1888 88.2289C68.0688 88.4689 67.9188 88.6689 67.7588 88.8089C67.5988 88.9589 67.4188 89.0689 67.2188 89.1489C67.0187 89.2289 66.7887 89.2689 66.5287 89.2689C65.9687 89.2689 65.5187 89.0889 65.1987 88.7189C64.8787 88.3489 64.7188 87.9289 64.7188 87.4589C64.7188 87.0189 64.8488 86.6289 65.1188 86.2889C65.4588 85.8489 65.9187 85.6289 66.4887 85.6289C67.0587 85.6289 67.5488 85.8489 67.8988 86.2989C68.1488 86.6189 68.2787 87.0089 68.2787 87.4789H65.1588C65.1588 87.8789 65.2988 88.2089 65.5488 88.4689C65.7988 88.7289 66.1087 88.8589 66.4688 88.8589C66.6488 88.8589 66.8188 88.8289 66.9788 88.7689C67.1488 88.7089 67.2888 88.6289 67.4088 88.5289C67.5288 88.4289 67.6487 88.2589 67.7887 88.0389L67.8087 88.0289ZM67.8087 87.0989C67.7487 86.8589 67.6588 86.6689 67.5488 86.5289C67.4388 86.3889 67.2887 86.2689 67.0987 86.1889C66.9087 86.0989 66.7188 86.0589 66.5088 86.0589C66.1688 86.0589 65.8787 86.1689 65.6287 86.3889C65.4487 86.5489 65.3188 86.7889 65.2288 87.1089H67.8087V87.0989Z" fill="black"></path>
  <path d="M71.3209 84.4297H71.7709V85.7197H72.4809V86.0997H71.7709V89.1797H71.3209V86.0997H70.7109V85.7197H71.3209V84.4297Z" fill="black"></path>
  <path d="M73.2919 84.2891C73.3919 84.2891 73.4819 84.3291 73.5519 84.3991C73.6219 84.4691 73.6619 84.5591 73.6619 84.6591C73.6619 84.7591 73.6219 84.8491 73.5519 84.9191C73.4819 84.9891 73.3919 85.0291 73.2919 85.0291C73.1919 85.0291 73.1119 84.9891 73.0319 84.9191C72.9619 84.8491 72.9219 84.7591 72.9219 84.6591C72.9219 84.5591 72.9619 84.4691 73.0319 84.3991C73.1019 84.3291 73.1919 84.2891 73.2919 84.2891ZM73.0719 85.7191H73.5219V89.1791H73.0719V85.7191Z" fill="black"></path>
  <path d="M74.4453 85.7187H74.8953V86.3187C75.0553 86.0987 75.2053 85.9387 75.3753 85.8387C75.5953 85.6987 75.8353 85.6387 76.0853 85.6387C76.2553 85.6387 76.4153 85.6687 76.5653 85.7387C76.7153 85.8087 76.8353 85.8887 76.9353 85.9987C77.0353 86.1087 77.1153 86.2687 77.1853 86.4687C77.3353 86.1987 77.5153 85.9887 77.7453 85.8487C77.9653 85.7087 78.2053 85.6387 78.4653 85.6387C78.7053 85.6387 78.9153 85.6987 79.0953 85.8187C79.2753 85.9387 79.4153 86.1087 79.5053 86.3287C79.5953 86.5487 79.6353 86.8687 79.6353 87.2987V89.1887H79.1753V87.2987C79.1753 86.9287 79.1453 86.6687 79.0953 86.5287C79.0453 86.3887 78.9553 86.2787 78.8253 86.1887C78.6953 86.1087 78.5453 86.0587 78.3653 86.0587C78.1453 86.0587 77.9553 86.1187 77.7753 86.2487C77.5953 86.3787 77.4653 86.5487 77.3853 86.7587C77.3053 86.9687 77.2653 87.3287 77.2653 87.8187V89.1787H76.8153V87.4087C76.8153 86.9887 76.7853 86.7087 76.7353 86.5587C76.6853 86.4087 76.5953 86.2887 76.4653 86.1987C76.3353 86.1087 76.1853 86.0587 76.0053 86.0587C75.7953 86.0587 75.6053 86.1187 75.4253 86.2487C75.2453 86.3687 75.1153 86.5387 75.0253 86.7487C74.9353 86.9587 74.8953 87.2787 74.8953 87.7087V89.1787H74.4453V85.7187Z" fill="black"></path>
  <path d="M83.4706 88.0289L83.8506 88.2289C83.7306 88.4689 83.5806 88.6689 83.4206 88.8089C83.2606 88.9489 83.0806 89.0689 82.8806 89.1489C82.6806 89.2289 82.4506 89.2689 82.2006 89.2689C81.6306 89.2689 81.1906 89.0889 80.8706 88.7189C80.5506 88.3489 80.3906 87.9289 80.3906 87.4589C80.3906 87.0189 80.5206 86.6289 80.8006 86.2889C81.1406 85.8489 81.6006 85.6289 82.1706 85.6289C82.7406 85.6289 83.2306 85.8489 83.5806 86.2989C83.8306 86.6189 83.9606 87.0089 83.9606 87.4789H80.8406C80.8406 87.8789 80.9806 88.2089 81.2306 88.4689C81.4806 88.7289 81.7806 88.8589 82.1506 88.8589C82.3306 88.8589 82.5006 88.8289 82.6606 88.7689C82.8306 88.7089 82.9706 88.6289 83.0806 88.5289C83.1906 88.4289 83.3206 88.2589 83.4606 88.0389L83.4706 88.0289ZM83.4706 87.0989C83.4106 86.8589 83.3206 86.6689 83.2106 86.5289C83.1006 86.3889 82.9506 86.2689 82.7606 86.1889C82.5706 86.0989 82.3806 86.0589 82.1706 86.0589C81.8306 86.0589 81.5406 86.1689 81.2906 86.3889C81.1106 86.5489 80.9806 86.7889 80.8806 87.1089H83.4606L83.4706 87.0989Z" fill="black"></path>
  <path d="M86.6797 84.5H89.3597V84.96H87.1397V86.43H89.3397V86.89H87.1397V88.73H89.3397V89.19H86.6797V84.51V84.5Z" fill="black"></path>
  <path d="M89.7038 85.7188H90.2438L91.1638 86.9887L92.0738 85.7188H92.6138L91.4338 87.3587L92.7638 89.1888H92.2238L91.1738 87.7387L90.1238 89.1888H89.5938L90.9038 87.3688L89.7138 85.7288L89.7038 85.7188Z" fill="black"></path>
  <path d="M96.5825 86.4387L96.2325 86.6587C95.9325 86.2487 95.5125 86.0487 94.9825 86.0487C94.5625 86.0487 94.2125 86.1887 93.9325 86.4587C93.6525 86.7287 93.5125 87.0587 93.5125 87.4487C93.5125 87.6987 93.5725 87.9387 93.7025 88.1587C93.8325 88.3787 94.0025 88.5587 94.2325 88.6787C94.4625 88.7987 94.7025 88.8587 94.9825 88.8587C95.4925 88.8587 95.9025 88.6587 96.2325 88.2487L96.5825 88.4787C96.4125 88.7287 96.1925 88.9187 95.9125 89.0587C95.6325 89.1987 95.3125 89.2687 94.9625 89.2687C94.4125 89.2687 93.9625 89.0987 93.6025 88.7487C93.2425 88.3987 93.0625 87.9787 93.0625 87.4787C93.0625 87.1487 93.1425 86.8287 93.3125 86.5487C93.4825 86.2587 93.7125 86.0387 94.0125 85.8787C94.3025 85.7187 94.6325 85.6387 95.0025 85.6387C95.2325 85.6387 95.4525 85.6787 95.6625 85.7387C95.8725 85.8087 96.0525 85.8987 96.2025 86.0087C96.3525 86.1187 96.4825 86.2687 96.5825 86.4387Z" fill="black"></path>
  <path d="M97.4397 84.3789H97.8897V86.3389C98.0697 86.0989 98.2697 85.9189 98.4797 85.8089C98.6997 85.6889 98.9297 85.6289 99.1797 85.6289C99.4297 85.6289 99.6697 85.6989 99.8697 85.8289C100.07 85.9589 100.22 86.1389 100.31 86.3589C100.4 86.5789 100.45 86.9289 100.45 87.3989V89.1789H99.9997V87.5289C99.9997 87.1289 99.9797 86.8589 99.9497 86.7289C99.8997 86.4989 99.7897 86.3289 99.6497 86.2089C99.4997 86.0889 99.3097 86.0389 99.0797 86.0389C98.8097 86.0389 98.5697 86.1289 98.3597 86.3089C98.1497 86.4889 98.0097 86.7089 97.9397 86.9689C97.8997 87.1389 97.8797 87.4489 97.8797 87.9089V89.1789H97.4297V84.3789H97.4397Z" fill="black"></path>
  <path d="M104.873 85.7189V89.1789H104.433V88.5889C104.243 88.8189 104.033 88.9889 103.803 89.0989C103.573 89.2189 103.313 89.2689 103.043 89.2689C102.553 89.2689 102.133 89.0889 101.793 88.7389C101.443 88.3789 101.273 87.9489 101.273 87.4389C101.273 86.9289 101.443 86.5189 101.793 86.1589C102.143 85.8089 102.563 85.6289 103.053 85.6289C103.333 85.6289 103.593 85.6889 103.823 85.8089C104.053 85.9289 104.253 86.1089 104.433 86.3489V85.7089H104.873V85.7189ZM103.083 86.0589C102.833 86.0589 102.603 86.1189 102.393 86.2389C102.183 86.3589 102.013 86.5289 101.893 86.7489C101.773 86.9689 101.703 87.1989 101.703 87.4489C101.703 87.6989 101.763 87.9289 101.893 88.1489C102.023 88.3689 102.183 88.5489 102.393 88.6689C102.603 88.7889 102.833 88.8589 103.073 88.8589C103.313 88.8589 103.543 88.7989 103.763 88.6789C103.983 88.5589 104.153 88.3889 104.263 88.1789C104.383 87.9689 104.443 87.7289 104.443 87.4689C104.443 87.0689 104.313 86.7289 104.043 86.4689C103.783 86.1989 103.453 86.0689 103.073 86.0689L103.083 86.0589Z" fill="black"></path>
  <path d="M105.875 85.7189H106.325V86.3389C106.505 86.0989 106.705 85.9189 106.915 85.8089C107.135 85.6889 107.365 85.6289 107.625 85.6289C107.885 85.6289 108.115 85.6989 108.315 85.8289C108.515 85.9589 108.665 86.1389 108.755 86.3589C108.845 86.5789 108.895 86.9289 108.895 87.3989V89.1789H108.445V87.5289C108.445 87.1289 108.425 86.8589 108.395 86.7289C108.345 86.4989 108.245 86.3289 108.095 86.2089C107.945 86.0889 107.755 86.0389 107.525 86.0389C107.255 86.0389 107.015 86.1289 106.805 86.3089C106.595 86.4889 106.455 86.7089 106.385 86.9689C106.345 87.1389 106.325 87.4589 106.325 87.9089V89.1789H105.875V85.7189Z" fill="black"></path>
  <path d="M112.834 85.7191H113.284V88.4791C113.284 88.9691 113.244 89.3191 113.154 89.5491C113.034 89.8691 112.834 90.1091 112.544 90.2791C112.254 90.4491 111.904 90.5391 111.504 90.5391C111.204 90.5391 110.944 90.4991 110.704 90.4091C110.464 90.3291 110.274 90.2091 110.124 90.0691C109.974 89.9291 109.834 89.7191 109.714 89.4491H110.194C110.324 89.6791 110.494 89.8491 110.704 89.9591C110.914 90.0691 111.174 90.1291 111.474 90.1291C111.774 90.1291 112.034 90.0691 112.244 89.9591C112.454 89.8491 112.604 89.7091 112.694 89.5291C112.784 89.3591 112.824 89.0791 112.824 88.6991V88.5191C112.654 88.7291 112.454 88.8991 112.214 89.0091C111.974 89.1191 111.714 89.1791 111.444 89.1791C111.124 89.1791 110.824 89.0991 110.544 88.9391C110.264 88.7791 110.044 88.5691 109.894 88.2991C109.744 88.0291 109.664 87.7391 109.664 87.4191C109.664 87.0991 109.744 86.7991 109.904 86.5191C110.064 86.2391 110.284 86.0191 110.564 85.8591C110.844 85.6991 111.144 85.6191 111.454 85.6191C111.714 85.6191 111.954 85.6691 112.184 85.7791C112.404 85.8891 112.624 86.0591 112.834 86.3091V85.7091V85.7191ZM111.514 86.0591C111.264 86.0591 111.024 86.1191 110.814 86.2391C110.594 86.3591 110.424 86.5291 110.304 86.7491C110.184 86.9691 110.124 87.1991 110.124 87.4491C110.124 87.8291 110.254 88.1391 110.504 88.3891C110.754 88.6391 111.084 88.7591 111.494 88.7591C111.904 88.7591 112.234 88.6391 112.484 88.3891C112.734 88.1391 112.854 87.8191 112.854 87.4191C112.854 87.1591 112.794 86.9291 112.684 86.7191C112.574 86.5191 112.404 86.3491 112.194 86.2291C111.984 86.1091 111.754 86.0491 111.514 86.0491V86.0591Z" fill="black"></path>
  <path d="M117.143 88.0289L117.522 88.2289C117.402 88.4689 117.252 88.6689 117.092 88.8089C116.932 88.9489 116.753 89.0689 116.553 89.1489C116.353 89.2289 116.123 89.2689 115.873 89.2689C115.313 89.2689 114.863 89.0889 114.543 88.7189C114.223 88.3489 114.062 87.9289 114.062 87.4589C114.062 87.0189 114.193 86.6289 114.463 86.2889C114.803 85.8489 115.263 85.6289 115.833 85.6289C116.403 85.6289 116.893 85.8489 117.243 86.2989C117.493 86.6189 117.623 87.0089 117.623 87.4789H114.503C114.503 87.8789 114.643 88.2089 114.893 88.4689C115.143 88.7289 115.452 88.8589 115.812 88.8589C115.993 88.8589 116.163 88.8289 116.323 88.7689C116.493 88.7089 116.633 88.6289 116.743 88.5289C116.863 88.4289 116.983 88.2589 117.123 88.0389L117.143 88.0289ZM117.143 87.0989C117.083 86.8589 116.992 86.6689 116.882 86.5289C116.772 86.3889 116.623 86.2689 116.433 86.1889C116.243 86.1089 116.052 86.0589 115.842 86.0589C115.502 86.0589 115.213 86.1689 114.963 86.3889C114.783 86.5489 114.653 86.7889 114.562 87.1089H117.143V87.0989Z" fill="black"></path>
  <path d="M96.2891 51.7598C91.7391 51.7598 88.0391 55.4598 88.0391 60.0098C88.0391 64.5598 91.7391 68.2598 96.2891 68.2598C100.839 68.2598 104.539 64.5598 104.539 60.0098C104.539 55.4598 100.839 51.7598 96.2891 51.7598Z" stroke="#B2872D" stroke-miterlimit="10"></path>
  <path d="M83.3594 55.3398C87.9094 55.3398 91.6094 51.6398 91.6094 47.0898C91.6094 42.5398 87.9094 38.8398 83.3594 38.8398C78.8094 38.8398 75.1094 42.5398 75.1094 47.0898C75.1094 51.6398 78.8094 55.3398 83.3594 55.3398Z" stroke="#B2872D" stroke-miterlimit="10"></path>
  <path d="M84.9891 66.4695C80.8791 66.4695 77.5391 63.1295 77.5391 59.0195" stroke="#B2872D" stroke-miterlimit="10"></path>
  <path d="M83.2266 67.5103L84.9866 66.4703L83.4966 65.0703" stroke="#B2872D" stroke-miterlimit="10"></path>
  <path d="M97.0469 40.5293C101.157 40.5293 104.497 43.8693 104.497 47.9793" stroke="#B2872D" stroke-miterlimit="10"></path>
  <path d="M98.7669 39.5L97.0469 40.54L98.4969 41.94" stroke="#B2872D" stroke-miterlimit="10"></path>
  <path d="M83.3601 52.48C83.3101 52.48 83.2601 52.46 83.2201 52.42L77.8801 46.75C77.8201 46.68 77.8101 46.59 77.8601 46.51L79.9001 43.58C79.9001 43.58 79.9901 43.5 80.0501 43.5H86.6501C86.7101 43.5 86.7701 43.53 86.8001 43.58L88.8401 46.51C88.8901 46.58 88.8801 46.68 88.8201 46.75L83.4801 52.42C83.4801 52.42 83.4001 52.48 83.3401 52.48H83.3601ZM78.2601 46.6L83.3601 52.02L88.4601 46.6L86.5701 43.88H80.1701L78.2801 46.6H78.2601Z" fill="#B2872D"></path>
  <path d="M83.3622 52.4795C83.3622 52.4795 83.2622 52.4595 83.2222 52.4195L77.8822 46.7495C77.8322 46.6995 77.8122 46.6195 77.8422 46.5495C77.8722 46.4795 77.9422 46.4395 78.0122 46.4395H81.1722C81.2522 46.4395 81.3222 46.4895 81.3522 46.5595L83.5322 52.2295C83.5622 52.3095 83.5322 52.4095 83.4522 52.4595C83.4222 52.4795 83.3822 52.4895 83.3522 52.4895L83.3622 52.4795ZM78.4522 46.7995L82.8422 51.4595L81.0522 46.7995H78.4522Z" fill="#B2872D"></path>
  <path d="M88.7036 46.8H78.0236C77.9536 46.8 77.8936 46.76 77.8536 46.7C77.8136 46.64 77.8236 46.56 77.8636 46.51L79.9036 43.58C79.9036 43.58 79.9936 43.5 80.0536 43.5H86.6536C86.7136 43.5 86.7736 43.53 86.8036 43.58L88.8436 46.51C88.8836 46.57 88.8836 46.64 88.8536 46.7C88.8136 46.76 88.7536 46.8 88.6836 46.8H88.7036ZM78.3836 46.43H88.3436L86.5636 43.88H80.1636L78.3836 46.43Z" fill="#B2872D"></path>
  <path opacity="0.5" d="M81.1836 46.7999H78.0236C77.9536 46.7999 77.8936 46.7599 77.8536 46.6999C77.8136 46.6399 77.8236 46.5599 77.8636 46.5099L79.9036 43.5799C79.9436 43.5199 80.0136 43.4899 80.0836 43.4999C80.1536 43.4999 80.2136 43.5499 80.2336 43.6199L81.3536 46.5499C81.3736 46.6099 81.3636 46.6699 81.3336 46.7199C81.3036 46.7699 81.2436 46.7999 81.1836 46.7999ZM78.3836 46.4299H80.9136L80.0136 44.0899L78.3836 46.4299Z" fill="#B2872D"></path>
  <path d="M83.3576 52.4798C83.2776 52.4798 83.2076 52.4298 83.1776 52.3598L79.8776 43.7598C79.8576 43.6998 79.8676 43.6398 79.8976 43.5898C79.9276 43.5398 79.9876 43.5098 80.0476 43.5098H86.6476C86.7076 43.5098 86.7676 43.5398 86.7976 43.5898C86.8376 43.6398 86.8376 43.7098 86.8176 43.7598L83.5176 52.3598C83.4876 52.4298 83.4176 52.4798 83.3376 52.4798H83.3576ZM80.3276 43.8798L83.3576 51.7698L86.3876 43.8798H80.3376H80.3276Z" fill="#B2872D"></path>
  <path d="M85.5327 46.8002H81.1827C81.1127 46.8002 81.0427 46.7602 81.0127 46.7002C80.9827 46.6402 80.9827 46.5602 81.0327 46.5002L83.2127 43.5702C83.2127 43.5702 83.3027 43.4902 83.3627 43.4902C83.4227 43.4902 83.4827 43.5202 83.5127 43.5702L85.6927 46.5002C85.7327 46.5602 85.7427 46.6302 85.7127 46.7002C85.6827 46.7702 85.6127 46.8002 85.5427 46.8002H85.5327ZM81.5627 46.4302H85.1727L83.3727 44.0102L81.5727 46.4302H81.5627Z" fill="#B2872D"></path>
  <path d="M81.1776 46.7998C81.1776 46.7998 81.1576 46.7998 81.1476 46.7998C81.0776 46.7998 81.0276 46.7498 80.9976 46.6798L79.8776 43.7598C79.8576 43.6998 79.8676 43.6398 79.8976 43.5898C79.9276 43.5398 79.9876 43.5098 80.0476 43.5098H83.3476C83.4176 43.5098 83.4876 43.5498 83.5176 43.6098C83.5476 43.6698 83.5476 43.7498 83.4976 43.8098L81.3176 46.7398C81.3176 46.7398 81.2276 46.8198 81.1676 46.8198L81.1776 46.7998ZM80.3276 43.8798L81.2276 46.2298L82.9776 43.8798H80.3276Z" fill="#B2872D"></path>
  <path opacity="0.5" d="M83.3626 52.4795C83.2826 52.4795 83.2126 52.4295 83.1826 52.3595L81.0026 46.6895C80.9826 46.6295 80.9926 46.5695 81.0226 46.5195C81.0526 46.4695 81.1126 46.4395 81.1726 46.4395H85.5226C85.5826 46.4395 85.6426 46.4695 85.6726 46.5195C85.7026 46.5695 85.7126 46.6395 85.6926 46.6895L83.5126 52.3595C83.4826 52.4295 83.4126 52.4795 83.3326 52.4795H83.3626ZM81.4526 46.7995L83.3526 51.7595L85.2526 46.7995H81.4426H81.4526Z" fill="#B2872D"></path>
  <path d="M94.9165 58.8309C95.1765 58.5709 95.1765 58.1609 94.9165 57.9009C94.8265 57.8109 94.7165 57.7509 94.5865 57.7209V57.4309C94.5865 57.3809 94.6165 57.3309 94.6565 57.3109C94.9065 57.2109 95.0465 56.9509 94.9965 56.6909C94.9365 56.3909 94.6465 56.1909 94.3365 56.2509C94.2465 56.2709 94.1565 56.3109 94.0865 56.3709C93.9465 56.4709 93.7465 56.9009 94.0265 56.9309C94.0965 56.9309 94.1665 56.8709 94.1665 56.7909C94.1665 56.6309 94.2965 56.5009 94.4565 56.5009C94.6165 56.5009 94.7465 56.6309 94.7465 56.7909C94.7465 56.9109 94.6765 57.0109 94.5665 57.0609C94.4165 57.1209 94.3265 57.2709 94.3265 57.4309V57.7209C93.9765 57.7909 93.7465 58.1409 93.8165 58.4909C93.8465 58.6209 93.9065 58.7409 94.0065 58.8309C93.3665 59.5609 92.9665 60.4709 92.8365 61.4309C92.7365 62.1609 93.1065 62.8809 93.7465 63.2309C93.9765 63.3709 94.2165 63.5109 94.3365 63.7309C94.3765 63.8009 94.4565 63.8209 94.5265 63.7809C94.5465 63.7709 94.5665 63.7509 94.5765 63.7309C94.7065 63.5409 94.8865 63.3809 95.0965 63.2809C96.9965 62.2709 95.7165 59.7209 94.9165 58.8309ZM94.4565 57.9809C94.6665 57.9809 94.8365 58.1609 94.8365 58.3709C94.8365 58.5809 94.6665 58.7509 94.4565 58.7509C94.2465 58.7509 94.0765 58.5709 94.0765 58.3609C94.0765 58.1509 94.2465 57.9809 94.4565 57.9809ZM95.6165 62.4409C95.4665 62.6809 95.2665 62.8709 95.0265 63.0109C94.8165 63.1209 94.6265 63.2709 94.4565 63.4409C94.2865 63.2709 94.0965 63.1309 93.8865 63.0109C93.3265 62.7109 93.0165 62.1009 93.0965 61.4709C93.2165 60.5509 93.6165 59.6809 94.2265 58.9809C94.3665 59.0309 94.5265 59.0309 94.6765 58.9809C95.1465 59.4809 96.2665 61.3309 95.6165 62.4409Z" fill="#B2872D"></path>
  <path d="M94.57 59.2104C94.52 59.1504 94.43 59.1504 94.38 59.2004C94.38 59.2004 94.38 59.2004 94.37 59.2104C93.82 59.8604 93.47 60.6504 93.36 61.5004C93.3 62.0904 93.56 62.5604 94.11 62.8604C94.23 62.9104 94.34 63.0504 94.48 63.0804C94.62 63.0504 94.73 62.9204 94.85 62.8604L94.92 62.8104C96.35 62.0504 95.16 59.8604 94.59 59.2104H94.57ZM95.18 62.1904C95.05 62.3704 94.88 62.5204 94.69 62.6304C94.62 62.6704 94.55 62.7204 94.47 62.7704C94.37 62.7004 94.27 62.6404 94.17 62.5804C93.74 62.3204 93.58 61.9904 93.62 61.5304C93.71 60.8704 93.95 60.2404 94.33 59.7004V60.3004C94.33 60.3704 94.39 60.4304 94.47 60.4304C94.54 60.4304 94.6 60.3704 94.6 60.3004V59.7004C94.94 60.2004 95.6 61.4304 95.18 62.1904Z" fill="#B2872D"></path>
  <path d="M99.7427 61.4291C99.6127 60.4691 99.2127 59.5591 98.5727 58.8291C98.8327 58.5691 98.8327 58.1591 98.5727 57.8991C98.4827 57.8091 98.3727 57.7491 98.2427 57.7191V57.4291C98.2427 57.3791 98.2727 57.3291 98.3127 57.3091C98.6027 57.1991 98.7327 56.8691 98.6227 56.5891C98.5127 56.2991 98.1827 56.1691 97.9027 56.2791C97.6927 56.3591 97.5527 56.5691 97.5527 56.7991C97.5527 56.8691 97.6127 56.9391 97.6927 56.9291C97.7627 56.9291 97.8227 56.8691 97.8227 56.7991C97.8227 56.6391 97.9527 56.5091 98.1127 56.5091C98.2727 56.5091 98.4027 56.6391 98.4027 56.7991C98.4027 56.9191 98.3327 57.0191 98.2227 57.0691C98.0727 57.1291 97.9827 57.2791 97.9827 57.4391V57.7291C97.6227 57.8091 97.4027 58.1591 97.4827 58.5191C97.5127 58.6391 97.5727 58.7591 97.6627 58.8491C97.1227 59.4091 95.9927 61.4091 96.7227 62.5891C96.8927 62.8691 97.1227 63.0891 97.4027 63.2491C97.6327 63.3891 97.8727 63.5291 97.9927 63.7491C98.0327 63.8191 98.1127 63.8391 98.1727 63.7991C98.1927 63.7891 98.2127 63.7691 98.2227 63.7491C98.3527 63.5591 98.5327 63.3991 98.7427 63.2991C99.4627 62.8991 99.8127 62.2291 99.7327 61.4491L99.7427 61.4291ZM98.1227 57.9791C98.3327 57.9791 98.5027 58.1591 98.5027 58.3691C98.5027 58.5791 98.3327 58.7491 98.1227 58.7491C97.9127 58.7491 97.7427 58.5691 97.7427 58.3591C97.7427 58.1491 97.9127 57.9791 98.1227 57.9791ZM99.2827 62.4391C99.1327 62.6791 98.9327 62.8691 98.6927 63.0091C98.4827 63.1191 98.2927 63.2691 98.1227 63.4391C97.9527 63.2691 97.7627 63.1291 97.5527 63.0091C96.9927 62.7091 96.6827 62.0991 96.7627 61.4691C96.8827 60.5491 97.2827 59.6791 97.8927 58.9791C98.0327 59.0391 98.1927 59.0391 98.3427 58.9791C98.9527 59.6791 99.3527 60.5491 99.4727 61.4691C99.5127 61.8091 99.4427 62.1491 99.2727 62.4391H99.2827Z" fill="#B2872D"></path>
  <path d="M98.2222 59.2104C98.1722 59.1504 98.0822 59.1504 98.0322 59.2004C98.0322 59.2004 98.0322 59.2004 98.0222 59.2104C97.4422 59.8604 96.2522 62.0504 97.6922 62.8104C98.2422 63.1504 98.0122 63.1504 98.5722 62.8104C100.002 62.0504 98.8122 59.8604 98.2422 59.2104H98.2222ZM98.8422 62.1904C98.7122 62.3704 98.5422 62.5204 98.3522 62.6304C98.2822 62.6704 98.2022 62.7204 98.1322 62.7704C98.0322 62.7004 97.9322 62.6404 97.8322 62.5804C97.4022 62.3204 97.2422 61.9904 97.2822 61.5304C97.3722 60.8704 97.6122 60.2404 97.9922 59.7004V60.3004C97.9922 60.3704 98.0522 60.4304 98.1322 60.4304C98.2022 60.4304 98.2622 60.3704 98.2622 60.3004V59.7004C98.6022 60.2004 99.2622 61.4404 98.8422 62.1904Z" fill="#B2872D"></path>
  <path d="M78.9219 54.1902C79.3819 53.7702 80.9319 52.4902 83.2319 52.4502C85.4819 52.4102 87.0419 53.6002 87.5319 54.0002" stroke="#B2872D" stroke-width="0.75" stroke-miterlimit="10"></path>
</svg>
