<?xml version="1.0" encoding="UTF-8"?>
<svg xmlns="http://www.w3.org/2000/svg" width="176" height="126" viewBox="0 0 176 126" fill="none">
  <path d="M52.9609 84.5996H53.8909C54.4309 84.5996 54.7909 84.6196 54.9709 84.6696C55.2409 84.7396 55.4609 84.8696 55.6309 85.0796C55.8009 85.2896 55.8809 85.5396 55.8809 85.8496C55.8809 86.1596 55.8009 86.4196 55.6309 86.6196C55.4609 86.8196 55.2409 86.9596 54.9509 87.0296C54.7409 87.0796 54.3409 87.1096 53.7609 87.1096H53.4309V89.2896H52.9609V84.6096V84.5996ZM53.4309 85.0596V86.6496H54.2209C54.5409 86.6496 54.7709 86.6296 54.9209 86.5696C55.0709 86.5096 55.1909 86.4196 55.2709 86.2896C55.3509 86.1596 55.4009 86.0096 55.4009 85.8496C55.4009 85.6896 55.3609 85.5496 55.2709 85.4196C55.1909 85.2896 55.0709 85.1996 54.9409 85.1396C54.8009 85.0796 54.5709 85.0596 54.2609 85.0596H53.4309Z" fill="black"></path>
  <path d="M59.6581 88.1305L60.0381 88.3305C59.9181 88.5705 59.7681 88.7705 59.6081 88.9105C59.4481 89.0505 59.2681 89.1705 59.0681 89.2505C58.8681 89.3305 58.6381 89.3705 58.3881 89.3705C57.8281 89.3705 57.3781 89.1905 57.0581 88.8205C56.7381 88.4505 56.5781 88.0305 56.5781 87.5605C56.5781 87.1205 56.7081 86.7305 56.9781 86.3905C57.3181 85.9505 57.7781 85.7305 58.3481 85.7305C58.9181 85.7305 59.4081 85.9505 59.7581 86.4005C60.0081 86.7205 60.1381 87.1105 60.1381 87.5805H57.0181C57.0181 87.9805 57.1581 88.3105 57.4081 88.5705C57.6581 88.8305 57.9681 88.9605 58.3281 88.9605C58.5081 88.9605 58.6781 88.9305 58.8381 88.8705C59.0081 88.8105 59.1481 88.7305 59.2581 88.6305C59.3781 88.5305 59.4981 88.3605 59.6381 88.1405L59.6581 88.1305ZM59.6581 87.2005C59.5981 86.9605 59.5081 86.7705 59.3981 86.6305C59.2881 86.4905 59.1381 86.3705 58.9481 86.2905C58.7581 86.2105 58.5681 86.1605 58.3581 86.1605C58.0181 86.1605 57.7281 86.2705 57.4781 86.4905C57.2981 86.6505 57.1681 86.8905 57.0781 87.2105H59.6581V87.2005Z" fill="black"></path>
  <path d="M60.8225 85.8205H61.2825V86.3305C61.4225 86.1305 61.5625 85.9805 61.7125 85.8805C61.8625 85.7805 62.0225 85.7305 62.1825 85.7305C62.3025 85.7305 62.4325 85.7705 62.5725 85.8505L62.3425 86.2305C62.2525 86.1905 62.1725 86.1705 62.1025 86.1705C61.9525 86.1705 61.8125 86.2305 61.6725 86.3505C61.5325 86.4705 61.4325 86.6605 61.3525 86.9205C61.3025 87.1205 61.2725 87.5205 61.2725 88.1205V89.2905H60.8125V85.8305L60.8225 85.8205Z" fill="black"></path>
  <path d="M64.6794 86.2005L64.3894 86.5005C64.1494 86.2705 63.9194 86.1505 63.6894 86.1505C63.5494 86.1505 63.4194 86.2005 63.3194 86.2905C63.2194 86.3905 63.1594 86.5005 63.1594 86.6205C63.1594 86.7305 63.1994 86.8405 63.2894 86.9405C63.3694 87.0405 63.5494 87.1705 63.8294 87.3105C64.1594 87.4805 64.3894 87.6505 64.5094 87.8105C64.6294 87.9705 64.6794 88.1505 64.6794 88.3505C64.6794 88.6405 64.5794 88.8805 64.3794 89.0705C64.1794 89.2705 63.9294 89.3705 63.6294 89.3705C63.4294 89.3705 63.2394 89.3305 63.0594 89.2405C62.8794 89.1505 62.7294 89.0305 62.6094 88.8805L62.8894 88.5605C63.1194 88.8205 63.3594 88.9505 63.6094 88.9505C63.7894 88.9505 63.9394 88.8905 64.0694 88.7805C64.1994 88.6605 64.2594 88.5305 64.2594 88.3805C64.2594 88.2505 64.2194 88.1405 64.1394 88.0405C64.0594 87.9405 63.8694 87.8205 63.5794 87.6705C63.2694 87.5105 63.0494 87.3505 62.9394 87.1905C62.8294 87.0305 62.7694 86.8505 62.7694 86.6505C62.7694 86.3905 62.8594 86.1705 63.0394 85.9905C63.2194 85.8105 63.4494 85.7305 63.7194 85.7305C64.0394 85.7305 64.3594 85.8905 64.6794 86.2005Z" fill="black"></path>
  <path d="M67.1125 85.7305C67.6425 85.7305 68.0925 85.9205 68.4425 86.3105C68.7625 86.6605 68.9225 87.0805 68.9225 87.5605C68.9225 88.0405 68.7525 88.4705 68.4125 88.8305C68.0725 89.1905 67.6425 89.3705 67.1125 89.3705C66.5825 89.3705 66.1425 89.1905 65.8125 88.8305C65.4725 88.4705 65.3125 88.0405 65.3125 87.5605C65.3125 87.0805 65.4725 86.6605 65.7925 86.3105C66.1425 85.9205 66.5825 85.7305 67.1225 85.7305H67.1125ZM67.1125 86.1705C66.7425 86.1705 66.4225 86.3105 66.1525 86.5805C65.8825 86.8505 65.7525 87.1805 65.7525 87.5705C65.7525 87.8205 65.8125 88.0505 65.9325 88.2705C66.0525 88.4905 66.2225 88.6505 66.4225 88.7705C66.6325 88.8905 66.8525 88.9505 67.1025 88.9505C67.3525 88.9505 67.5725 88.8905 67.7825 88.7705C67.9925 88.6505 68.1525 88.4805 68.2725 88.2705C68.3925 88.0505 68.4525 87.8205 68.4525 87.5705C68.4525 87.1805 68.3225 86.8505 68.0525 86.5805C67.7825 86.3105 67.4725 86.1705 67.1025 86.1705H67.1125Z" fill="black"></path>
  <path d="M69.7422 85.8205H70.1922V86.4405C70.3722 86.2005 70.5722 86.0205 70.7822 85.9105C71.0022 85.7905 71.2322 85.7305 71.4922 85.7305C71.7522 85.7305 71.9822 85.8005 72.1822 85.9305C72.3822 86.0605 72.5322 86.2405 72.6222 86.4605C72.7122 86.6805 72.7622 87.0305 72.7622 87.5005V89.2805H72.3122V87.6305C72.3122 87.2305 72.2922 86.9605 72.2622 86.8305C72.2122 86.6005 72.1122 86.4305 71.9622 86.3105C71.8122 86.1905 71.6222 86.1405 71.3922 86.1405C71.1222 86.1405 70.8822 86.2305 70.6722 86.4105C70.4622 86.5905 70.3222 86.8105 70.2522 87.0705C70.2122 87.2405 70.1922 87.5605 70.1922 88.0105V89.2805H69.7422V85.8205Z" fill="black"></path>
  <path d="M77.1703 85.8205V89.2805H76.7303V88.6905C76.5403 88.9205 76.3303 89.0905 76.1003 89.2005C75.8703 89.3205 75.6103 89.3705 75.3403 89.3705C74.8503 89.3705 74.4303 89.1905 74.0903 88.8405C73.7403 88.4805 73.5703 88.0505 73.5703 87.5405C73.5703 87.0305 73.7403 86.6205 74.0903 86.2605C74.4403 85.9105 74.8603 85.7305 75.3503 85.7305C75.6303 85.7305 75.8903 85.7905 76.1203 85.9105C76.3503 86.0305 76.5503 86.2105 76.7303 86.4505V85.8105H77.1703V85.8205ZM75.3903 86.1605C75.1403 86.1605 74.9103 86.2205 74.7003 86.3405C74.4903 86.4605 74.3203 86.6305 74.2003 86.8505C74.0803 87.0705 74.0103 87.3005 74.0103 87.5505C74.0103 87.8005 74.0703 88.0305 74.2003 88.2505C74.3303 88.4705 74.4903 88.6505 74.7003 88.7705C74.9103 88.8905 75.1403 88.9605 75.3803 88.9605C75.6203 88.9605 75.8503 88.9005 76.0703 88.7805C76.2903 88.6605 76.4603 88.4905 76.5703 88.2805C76.6903 88.0705 76.7503 87.8305 76.7503 87.5705C76.7503 87.1705 76.6203 86.8305 76.3503 86.5705C76.0903 86.3005 75.7603 86.1705 75.3803 86.1705L75.3903 86.1605Z" fill="black"></path>
  <path d="M78.1016 84.4805H78.5516V89.2805H78.1016V84.4805Z" fill="black"></path>
  <path d="M79.6278 84.4004C79.7278 84.4004 79.8178 84.4404 79.8878 84.5104C79.9578 84.5804 79.9978 84.6704 79.9978 84.7704C79.9978 84.8704 79.9578 84.9604 79.8878 85.0304C79.8178 85.1004 79.7278 85.1404 79.6278 85.1404C79.5278 85.1404 79.4478 85.1004 79.3678 85.0304C79.2978 84.9604 79.2578 84.8704 79.2578 84.7704C79.2578 84.6704 79.2978 84.5804 79.3678 84.5104C79.4378 84.4404 79.5278 84.4004 79.6278 84.4004ZM79.4078 85.8204H79.8578V89.2804H79.4078V85.8204Z" fill="black"></path>
  <path d="M80.5003 85.8203H83.0403L81.0803 88.8903H82.9803V89.2803H80.3203L82.2803 86.2103H80.5103V85.8203H80.5003Z" fill="black"></path>
  <path d="M86.4628 88.1305L86.8428 88.3305C86.7228 88.5705 86.5728 88.7705 86.4128 88.9105C86.2528 89.0505 86.0728 89.1705 85.8728 89.2505C85.6728 89.3305 85.4428 89.3705 85.1928 89.3705C84.6328 89.3705 84.1828 89.1905 83.8628 88.8205C83.5428 88.4505 83.3828 88.0305 83.3828 87.5605C83.3828 87.1205 83.5128 86.7305 83.7828 86.3905C84.1228 85.9505 84.5828 85.7305 85.1528 85.7305C85.7228 85.7305 86.2128 85.9505 86.5628 86.4005C86.8128 86.7205 86.9428 87.1105 86.9428 87.5805H83.8228C83.8228 87.9805 83.9628 88.3105 84.2128 88.5705C84.4628 88.8305 84.7728 88.9605 85.1328 88.9605C85.3128 88.9605 85.4828 88.9305 85.6428 88.8705C85.8128 88.8105 85.9528 88.7305 86.0628 88.6305C86.1828 88.5305 86.3028 88.3605 86.4428 88.1405L86.4628 88.1305ZM86.4628 87.2005C86.4028 86.9605 86.3128 86.7705 86.2028 86.6305C86.0928 86.4905 85.9428 86.3705 85.7528 86.2905C85.5628 86.2105 85.3728 86.1605 85.1628 86.1605C84.8228 86.1605 84.5328 86.2705 84.2828 86.4905C84.1028 86.6505 83.9728 86.8905 83.8828 87.2105H86.4628V87.2005Z" fill="black"></path>
  <path d="M91.2428 84.4805V89.2805H90.8028V88.6905C90.6128 88.9205 90.4028 89.0905 90.1728 89.2005C89.9428 89.3205 89.6828 89.3705 89.4128 89.3705C88.9228 89.3705 88.5028 89.1905 88.1528 88.8405C87.8028 88.4905 87.6328 88.0505 87.6328 87.5405C87.6328 87.0305 87.8028 86.6205 88.1628 86.2605C88.5128 85.9105 88.9328 85.7305 89.4228 85.7305C89.7028 85.7305 89.9628 85.7905 90.1928 85.9105C90.4228 86.0305 90.6228 86.2105 90.8028 86.4505V84.4805H91.2428ZM89.4628 86.1605C89.2128 86.1605 88.9828 86.2205 88.7728 86.3405C88.5628 86.4605 88.3928 86.6305 88.2728 86.8505C88.1528 87.0705 88.0828 87.3005 88.0828 87.5505C88.0828 87.8005 88.1428 88.0305 88.2728 88.2505C88.4028 88.4705 88.5628 88.6505 88.7728 88.7705C88.9828 88.8905 89.2128 88.9605 89.4528 88.9605C89.6928 88.9605 89.9228 88.9005 90.1428 88.7805C90.3628 88.6605 90.5328 88.4905 90.6428 88.2805C90.7628 88.0705 90.8228 87.8305 90.8228 87.5705C90.8228 87.1705 90.6928 86.8305 90.4228 86.5705C90.1628 86.3005 89.8328 86.1705 89.4528 86.1705L89.4628 86.1605Z" fill="black"></path>
  <path d="M93.6406 88.4107L94.0406 88.1707C94.3206 88.6907 94.6406 88.9407 95.0106 88.9407C95.1706 88.9407 95.3106 88.9007 95.4506 88.8307C95.5906 88.7607 95.6906 88.6607 95.7706 88.5407C95.8506 88.4207 95.8806 88.2907 95.8806 88.1507C95.8806 87.9907 95.8306 87.8407 95.7206 87.6907C95.5706 87.4807 95.3106 87.2307 94.9206 86.9407C94.5306 86.6507 94.2906 86.4307 94.1906 86.3007C94.0206 86.0807 93.9406 85.8407 93.9406 85.5807C93.9406 85.3807 93.9906 85.1907 94.0906 85.0207C94.1906 84.8507 94.3306 84.7207 94.5006 84.6207C94.6806 84.5207 94.8706 84.4707 95.0806 84.4707C95.3006 84.4707 95.5106 84.5207 95.7006 84.6307C95.8906 84.7407 96.1006 84.9407 96.3106 85.2307L95.9306 85.5207C95.7506 85.2907 95.6006 85.1307 95.4806 85.0607C95.3606 84.9907 95.2206 84.9507 95.0706 84.9507C94.8806 84.9507 94.7306 85.0107 94.6106 85.1207C94.4906 85.2307 94.4306 85.3807 94.4306 85.5407C94.4306 85.6407 94.4506 85.7407 94.4906 85.8407C94.5306 85.9407 94.6106 86.0407 94.7206 86.1507C94.7806 86.2107 94.9806 86.3607 95.3206 86.6207C95.7306 86.9207 96.0006 87.1907 96.1506 87.4207C96.3006 87.6507 96.3806 87.8907 96.3806 88.1207C96.3806 88.4607 96.2506 88.7507 95.9906 89.0007C95.7306 89.2507 95.4206 89.3807 95.0506 89.3807C94.7706 89.3807 94.5106 89.3007 94.2806 89.1507C94.0506 89.0007 93.8406 88.7407 93.6406 88.3907V88.4107Z" fill="black"></path>
  <path d="M97.2991 84.4805H97.7491V86.4405C97.9291 86.2005 98.1291 86.0205 98.3391 85.9105C98.5591 85.7905 98.7891 85.7305 99.0391 85.7305C99.2891 85.7305 99.5291 85.8005 99.7291 85.9305C99.9291 86.0605 100.079 86.2405 100.169 86.4605C100.259 86.6805 100.309 87.0305 100.309 87.5005V89.2805H99.8591V87.6305C99.8591 87.2305 99.8391 86.9605 99.8091 86.8305C99.7591 86.6005 99.6491 86.4305 99.5091 86.3105C99.3591 86.1905 99.1691 86.1405 98.9391 86.1405C98.6691 86.1405 98.4291 86.2305 98.2191 86.4105C98.0091 86.5905 97.8691 86.8105 97.7991 87.0705C97.7591 87.2405 97.7391 87.5505 97.7391 88.0105V89.2805H97.2891V84.4805H97.2991Z" fill="black"></path>
  <path d="M102.917 85.7305C103.447 85.7305 103.897 85.9205 104.247 86.3105C104.567 86.6605 104.727 87.0805 104.727 87.5605C104.727 88.0405 104.557 88.4705 104.217 88.8305C103.877 89.1905 103.447 89.3705 102.917 89.3705C102.387 89.3705 101.947 89.1905 101.617 88.8305C101.277 88.4705 101.117 88.0405 101.117 87.5605C101.117 87.0805 101.277 86.6605 101.597 86.3105C101.947 85.9205 102.387 85.7305 102.927 85.7305H102.917ZM102.907 86.1705C102.537 86.1705 102.217 86.3105 101.947 86.5805C101.677 86.8505 101.547 87.1805 101.547 87.5705C101.547 87.8205 101.607 88.0505 101.727 88.2705C101.847 88.4905 102.017 88.6505 102.217 88.7705C102.427 88.8905 102.647 88.9505 102.897 88.9505C103.147 88.9505 103.367 88.8905 103.577 88.7705C103.787 88.6505 103.947 88.4805 104.067 88.2705C104.187 88.0505 104.247 87.8205 104.247 87.5705C104.247 87.1805 104.117 86.8505 103.847 86.5805C103.577 86.3105 103.267 86.1705 102.897 86.1705H102.907Z" fill="black"></path>
  <path d="M105.555 85.8202H106.005V86.4602C106.185 86.2202 106.385 86.0402 106.615 85.9202C106.845 85.8002 107.095 85.7402 107.385 85.7402C107.875 85.7402 108.295 85.9202 108.645 86.2702C108.995 86.6202 109.165 87.0502 109.165 87.5502C109.165 88.0502 108.995 88.4902 108.645 88.8502C108.295 89.2102 107.885 89.3802 107.395 89.3802C107.115 89.3802 106.865 89.3202 106.635 89.2102C106.405 89.1002 106.195 88.9202 106.005 88.7002V90.5602H105.555V85.8302V85.8202ZM107.335 86.1602C106.945 86.1602 106.625 86.2902 106.365 86.5602C106.105 86.8302 105.975 87.1602 105.975 87.5602C105.975 87.8202 106.035 88.0602 106.155 88.2702C106.275 88.4802 106.445 88.6502 106.655 88.7702C106.865 88.8902 107.105 88.9502 107.345 88.9502C107.585 88.9502 107.805 88.8902 108.015 88.7602C108.225 88.6402 108.395 88.4602 108.515 88.2402C108.635 88.0202 108.705 87.7802 108.705 87.5402C108.705 87.3002 108.645 87.0602 108.515 86.8402C108.395 86.6202 108.225 86.4502 108.015 86.3302C107.805 86.2102 107.575 86.1502 107.325 86.1502L107.335 86.1602Z" fill="black"></path>
  <path d="M110 85.8202H110.45V86.4602C110.63 86.2202 110.83 86.0402 111.06 85.9202C111.29 85.8002 111.54 85.7402 111.83 85.7402C112.32 85.7402 112.74 85.9202 113.09 86.2702C113.44 86.6202 113.61 87.0502 113.61 87.5502C113.61 88.0502 113.44 88.4902 113.09 88.8502C112.74 89.2102 112.33 89.3802 111.84 89.3802C111.56 89.3802 111.31 89.3202 111.08 89.2102C110.85 89.1002 110.64 88.9202 110.45 88.7002V90.5602H110V85.8302V85.8202ZM111.78 86.1602C111.39 86.1602 111.07 86.2902 110.81 86.5602C110.55 86.8302 110.42 87.1602 110.42 87.5602C110.42 87.8202 110.48 88.0602 110.6 88.2702C110.72 88.4802 110.89 88.6502 111.1 88.7702C111.31 88.8902 111.55 88.9502 111.79 88.9502C112.03 88.9502 112.25 88.8902 112.46 88.7602C112.67 88.6402 112.84 88.4602 112.96 88.2402C113.08 88.0202 113.15 87.7802 113.15 87.5402C113.15 87.3002 113.09 87.0602 112.96 86.8402C112.84 86.6202 112.67 86.4502 112.46 86.3302C112.25 86.2102 112.02 86.1502 111.77 86.1502L111.78 86.1602Z" fill="black"></path>
  <path d="M114.589 84.4004C114.689 84.4004 114.779 84.4404 114.849 84.5104C114.919 84.5804 114.959 84.6704 114.959 84.7704C114.959 84.8704 114.919 84.9604 114.849 85.0304C114.779 85.1004 114.689 85.1404 114.589 85.1404C114.489 85.1404 114.409 85.1004 114.329 85.0304C114.259 84.9604 114.219 84.8704 114.219 84.7704C114.219 84.6704 114.259 84.5804 114.329 84.5104C114.399 84.4404 114.489 84.4004 114.589 84.4004ZM114.369 85.8204H114.819V89.2804H114.369V85.8204Z" fill="black"></path>
  <path d="M115.742 85.8205H116.192V86.4405C116.372 86.2005 116.572 86.0205 116.782 85.9105C117.002 85.7905 117.232 85.7305 117.492 85.7305C117.752 85.7305 117.982 85.8005 118.182 85.9305C118.382 86.0605 118.532 86.2405 118.622 86.4605C118.712 86.6805 118.762 87.0305 118.762 87.5005V89.2805H118.312V87.6305C118.312 87.2305 118.292 86.9605 118.262 86.8305C118.212 86.6005 118.112 86.4305 117.962 86.3105C117.812 86.1905 117.622 86.1405 117.392 86.1405C117.122 86.1405 116.882 86.2305 116.672 86.4105C116.462 86.5905 116.322 86.8105 116.252 87.0705C116.212 87.2405 116.192 87.5605 116.192 88.0105V89.2805H115.742V85.8205Z" fill="black"></path>
  <path d="M122.701 85.8207H123.151V88.5807C123.151 89.0707 123.111 89.4207 123.021 89.6507C122.901 89.9707 122.701 90.2107 122.411 90.3807C122.121 90.5507 121.771 90.6407 121.371 90.6407C121.071 90.6407 120.811 90.6007 120.571 90.5107C120.331 90.4307 120.141 90.3107 119.991 90.1707C119.841 90.0307 119.701 89.8207 119.581 89.5507H120.061C120.191 89.7807 120.361 89.9507 120.571 90.0607C120.781 90.1707 121.041 90.2307 121.341 90.2307C121.641 90.2307 121.901 90.1707 122.111 90.0607C122.321 89.9507 122.471 89.8107 122.561 89.6307C122.651 89.4607 122.691 89.1807 122.691 88.8007V88.6207C122.521 88.8307 122.321 89.0007 122.081 89.1107C121.841 89.2207 121.581 89.2807 121.311 89.2807C120.991 89.2807 120.691 89.2007 120.411 89.0407C120.131 88.8807 119.911 88.6707 119.761 88.4007C119.611 88.1307 119.531 87.8407 119.531 87.5207C119.531 87.2007 119.611 86.9007 119.771 86.6207C119.931 86.3407 120.151 86.1207 120.431 85.9607C120.711 85.8007 121.011 85.7207 121.321 85.7207C121.581 85.7207 121.821 85.7707 122.051 85.8807C122.271 85.9907 122.491 86.1607 122.701 86.4107V85.8107V85.8207ZM121.391 86.1607C121.141 86.1607 120.901 86.2207 120.691 86.3407C120.471 86.4607 120.301 86.6307 120.181 86.8507C120.061 87.0707 120.001 87.3007 120.001 87.5507C120.001 87.9307 120.131 88.2407 120.381 88.4907C120.631 88.7407 120.961 88.8607 121.371 88.8607C121.781 88.8607 122.111 88.7407 122.361 88.4907C122.611 88.2407 122.731 87.9207 122.731 87.5207C122.731 87.2607 122.671 87.0307 122.561 86.8207C122.451 86.6207 122.281 86.4507 122.071 86.3307C121.861 86.2107 121.631 86.1507 121.391 86.1507V86.1607Z" fill="black"></path>
  <path d="M70.9609 92.4199H73.6409V92.8799H71.4309V94.3499H73.6309V94.8099H71.4309V96.6499H73.6309V97.1099H70.9709V92.4299L70.9609 92.4199Z" fill="black"></path>
  <path d="M73.9772 93.6406H74.5172L75.4372 94.9106L76.3472 93.6406H76.8872L75.7072 95.2806L77.0372 97.1106H76.4972L75.4472 95.6606L74.3972 97.1106H73.8672L75.1772 95.2906L73.9872 93.6506L73.9772 93.6406Z" fill="black"></path>
  <path d="M77.5078 93.6405H77.9578V94.2805C78.1378 94.0405 78.3378 93.8605 78.5678 93.7405C78.7978 93.6205 79.0478 93.5605 79.3378 93.5605C79.8278 93.5605 80.2478 93.7405 80.5978 94.0905C80.9478 94.4405 81.1178 94.8706 81.1178 95.3706C81.1178 95.8706 80.9478 96.3105 80.5978 96.6705C80.2478 97.0305 79.8378 97.2005 79.3478 97.2005C79.0678 97.2005 78.8178 97.1405 78.5878 97.0305C78.3578 96.9205 78.1478 96.7405 77.9578 96.5205V98.3805H77.5078V93.6506V93.6405ZM79.2878 93.9806C78.8978 93.9806 78.5778 94.1105 78.3178 94.3805C78.0578 94.6505 77.9278 94.9805 77.9278 95.3805C77.9278 95.6405 77.9878 95.8805 78.1078 96.0905C78.2278 96.3005 78.3978 96.4705 78.6078 96.5905C78.8178 96.7105 79.0578 96.7705 79.2978 96.7705C79.5378 96.7705 79.7578 96.7106 79.9678 96.5806C80.1778 96.4606 80.3478 96.2805 80.4678 96.0605C80.5878 95.8405 80.6578 95.6005 80.6578 95.3605C80.6578 95.1205 80.5978 94.8806 80.4678 94.6606C80.3478 94.4406 80.1778 94.2706 79.9678 94.1506C79.7578 94.0306 79.5278 93.9706 79.2778 93.9706L79.2878 93.9806Z" fill="black"></path>
  <path d="M84.8613 95.9605L85.2412 96.1606C85.1212 96.4006 84.9712 96.6005 84.8112 96.7405C84.6512 96.8805 84.4712 97.0006 84.2712 97.0806C84.0712 97.1606 83.8412 97.2005 83.5912 97.2005C83.0312 97.2005 82.5813 97.0206 82.2613 96.6506C81.9413 96.2806 81.7812 95.8605 81.7812 95.3905C81.7812 94.9505 81.9113 94.5606 82.1813 94.2206C82.5213 93.7806 82.9813 93.5605 83.5513 93.5605C84.1213 93.5605 84.6113 93.7806 84.9613 94.2306C85.2113 94.5506 85.3412 94.9406 85.3412 95.4106H82.2213C82.2213 95.8106 82.3613 96.1406 82.6113 96.4006C82.8613 96.6606 83.1712 96.7906 83.5312 96.7906C83.7113 96.7906 83.8813 96.7605 84.0413 96.7005C84.2113 96.6405 84.3513 96.5605 84.4613 96.4605C84.5813 96.3605 84.7012 96.1906 84.8412 95.9706L84.8613 95.9605ZM84.8613 95.0305C84.8013 94.7905 84.7112 94.6005 84.6012 94.4605C84.4912 94.3205 84.3413 94.2006 84.1513 94.1206C83.9613 94.0406 83.7712 93.9905 83.5612 93.9905C83.2212 93.9905 82.9313 94.1005 82.6813 94.3205C82.5013 94.4805 82.3713 94.7206 82.2812 95.0406H84.8613V95.0305Z" fill="black"></path>
  <path d="M86.0178 93.6408H86.4778V94.1508C86.6178 93.9508 86.7578 93.8008 86.9078 93.7008C87.0578 93.6008 87.2178 93.5508 87.3778 93.5508C87.4978 93.5508 87.6278 93.5908 87.7678 93.6708L87.5378 94.0508C87.4478 94.0108 87.3678 93.9908 87.2978 93.9908C87.1478 93.9908 87.0078 94.0508 86.8678 94.1708C86.7278 94.2908 86.6278 94.4808 86.5478 94.7408C86.4978 94.9408 86.4678 95.3408 86.4678 95.9408V97.1108H86.0078V93.6508L86.0178 93.6408Z" fill="black"></path>
  <path d="M88.2997 92.2207C88.3997 92.2207 88.4897 92.2607 88.5597 92.3307C88.6297 92.4007 88.6697 92.4907 88.6697 92.5907C88.6697 92.6907 88.6297 92.7807 88.5597 92.8507C88.4897 92.9207 88.3997 92.9607 88.2997 92.9607C88.1997 92.9607 88.1197 92.9207 88.0397 92.8507C87.9697 92.7807 87.9297 92.6907 87.9297 92.5907C87.9297 92.4907 87.9697 92.4007 88.0397 92.3307C88.1097 92.2607 88.1997 92.2207 88.2997 92.2207ZM88.0797 93.6407H88.5297V97.1007H88.0797V93.6407Z" fill="black"></path>
  <path d="M92.3691 95.9605L92.7491 96.1606C92.6291 96.4006 92.4791 96.6005 92.3191 96.7405C92.1591 96.8805 91.9791 97.0006 91.7791 97.0806C91.5791 97.1606 91.3491 97.2005 91.0991 97.2005C90.5391 97.2005 90.0891 97.0206 89.7691 96.6506C89.4491 96.2806 89.2891 95.8605 89.2891 95.3905C89.2891 94.9505 89.4191 94.5606 89.6891 94.2206C90.0291 93.7806 90.4891 93.5605 91.0591 93.5605C91.6291 93.5605 92.1191 93.7806 92.4691 94.2306C92.7191 94.5506 92.8491 94.9406 92.8491 95.4106H89.7291C89.7291 95.8106 89.8691 96.1406 90.1191 96.4006C90.3691 96.6606 90.6791 96.7906 91.0391 96.7906C91.2191 96.7906 91.3891 96.7605 91.5491 96.7005C91.7191 96.6405 91.8591 96.5605 91.9691 96.4605C92.0891 96.3605 92.2091 96.1906 92.3491 95.9706L92.3691 95.9605ZM92.3691 95.0305C92.3091 94.7905 92.2191 94.6005 92.1091 94.4605C91.9991 94.3205 91.8491 94.2006 91.6591 94.1206C91.4691 94.0406 91.2791 93.9905 91.0691 93.9905C90.7291 93.9905 90.4391 94.1005 90.1891 94.3205C90.0091 94.4805 89.8791 94.7206 89.7891 95.0406H92.3691V95.0305Z" fill="black"></path>
  <path d="M93.6875 93.6408H94.1375V94.2608C94.3175 94.0208 94.5175 93.8408 94.7275 93.7308C94.9475 93.6108 95.1775 93.5508 95.4375 93.5508C95.6975 93.5508 95.9275 93.6208 96.1275 93.7508C96.3275 93.8808 96.4775 94.0608 96.5675 94.2808C96.6575 94.5008 96.7075 94.8508 96.7075 95.3208V97.1008H96.2575V95.4508C96.2575 95.0508 96.2375 94.7808 96.2075 94.6508C96.1575 94.4208 96.0575 94.2508 95.9075 94.1308C95.7575 94.0108 95.5675 93.9608 95.3375 93.9608C95.0675 93.9608 94.8275 94.0508 94.6175 94.2308C94.4075 94.4108 94.2675 94.6308 94.1975 94.8908C94.1575 95.0608 94.1375 95.3808 94.1375 95.8308V97.1008H93.6875V93.6408Z" fill="black"></path>
  <path d="M101.02 94.3605L100.67 94.5806C100.37 94.1706 99.95 93.9706 99.42 93.9706C99 93.9706 98.65 94.1105 98.37 94.3805C98.09 94.6505 97.95 94.9806 97.95 95.3706C97.95 95.6206 98.01 95.8606 98.14 96.0806C98.27 96.3006 98.44 96.4805 98.67 96.6005C98.9 96.7205 99.14 96.7805 99.42 96.7805C99.93 96.7805 100.34 96.5805 100.67 96.1705L101.02 96.4006C100.85 96.6506 100.63 96.8406 100.35 96.9806C100.07 97.1206 99.75 97.1906 99.4 97.1906C98.85 97.1906 98.4 97.0205 98.04 96.6705C97.68 96.3205 97.5 95.9006 97.5 95.4006C97.5 95.0706 97.58 94.7506 97.75 94.4706C97.92 94.1806 98.15 93.9606 98.45 93.8006C98.74 93.6406 99.07 93.5605 99.44 93.5605C99.67 93.5605 99.89 93.6006 100.1 93.6606C100.31 93.7306 100.49 93.8205 100.64 93.9305C100.79 94.0405 100.92 94.1905 101.02 94.3605Z" fill="black"></path>
  <path d="M104.791 95.9605L105.171 96.1606C105.051 96.4006 104.901 96.6005 104.741 96.7405C104.581 96.8805 104.401 97.0006 104.201 97.0806C104.001 97.1606 103.771 97.2005 103.521 97.2005C102.961 97.2005 102.511 97.0206 102.191 96.6506C101.871 96.2806 101.711 95.8605 101.711 95.3905C101.711 94.9505 101.841 94.5606 102.111 94.2206C102.451 93.7806 102.911 93.5605 103.481 93.5605C104.051 93.5605 104.541 93.7806 104.891 94.2306C105.141 94.5506 105.271 94.9406 105.271 95.4106H102.151C102.151 95.8106 102.291 96.1406 102.541 96.4006C102.791 96.6606 103.101 96.7906 103.461 96.7906C103.641 96.7906 103.811 96.7605 103.971 96.7005C104.141 96.6405 104.281 96.5605 104.391 96.4605C104.511 96.3605 104.631 96.1906 104.771 95.9706L104.791 95.9605ZM104.791 95.0305C104.731 94.7905 104.641 94.6005 104.531 94.4605C104.421 94.3205 104.271 94.2006 104.081 94.1206C103.891 94.0406 103.701 93.9905 103.491 93.9905C103.151 93.9905 102.861 94.1005 102.611 94.3205C102.431 94.4805 102.301 94.7206 102.211 95.0406H104.791V95.0305Z" fill="black"></path>
  <path d="M98.5732 51.3907L100.693 48.4807C102.443 46.7207 103.063 44.4707 102.443 42.1607C102.083 40.8207 101.333 39.5407 100.273 38.4807C99.2132 37.4207 97.9432 36.6707 96.5932 36.3107C94.2832 35.6907 92.0532 36.3107 90.2932 38.0407C89.2332 38.5207 88.2632 39.1607 87.4032 39.9407C87.0632 39.5907 86.6932 39.2107 86.6832 39.2007L85.4232 38.1907C84.0132 36.7307 82.2632 36.0507 80.3832 36.2007C78.7232 36.3407 77.0732 37.1207 75.7332 38.4107C74.4032 39.7007 73.5632 41.3207 73.3632 42.9807C73.1432 44.8607 73.7732 46.6207 75.1832 48.0807C75.1832 48.0807 75.1832 48.0907 75.1932 48.0907L75.2132 48.1107C75.3832 48.2807 76.0432 48.9407 76.7832 49.7007L75.2432 51.2407C74.4332 52.0507 74.4332 53.3607 75.2432 54.1707C75.6332 54.5607 76.1532 54.7807 76.7032 54.7807C76.8732 54.7807 77.0432 54.7607 77.2132 54.7207C76.9332 55.8307 77.6032 56.9507 78.7132 57.2407C79.0432 57.3307 79.4032 57.3207 79.7332 57.2407C79.4532 58.3507 80.1232 59.4807 81.2332 59.7607C81.5632 59.8407 81.9132 59.8507 82.2532 59.7607C81.9732 60.8707 82.6432 61.9907 83.7532 62.2807C84.4632 62.4607 85.2132 62.2507 85.7232 61.7407L86.6232 60.8407C87.7132 61.9507 88.4932 62.7107 88.5032 62.7207C89.3032 63.5207 90.6032 63.5207 91.4032 62.7207C91.8032 62.3207 92.0232 61.7707 92.0032 61.2107C92.8432 61.8307 94.0132 61.7507 94.7532 61.0107C95.2132 60.5507 95.3932 59.8907 95.2932 59.2307C96.3132 59.8007 97.6032 59.4407 98.1732 58.4207C98.4932 57.8607 98.5332 57.1807 98.2832 56.5807C98.8732 56.7107 99.5632 56.6507 100.133 56.0807C100.953 55.2607 100.953 53.9207 100.133 53.1007L98.5632 51.4107L98.5732 51.3907ZM90.5732 38.5507C90.5732 38.5507 90.6432 38.5107 90.6632 38.4907C92.2732 36.8807 94.3232 36.3007 96.4432 36.8707C98.9732 37.5507 101.203 39.7807 101.883 42.3107C102.453 44.4307 101.883 46.4807 100.263 48.0907C100.253 48.1007 100.243 48.1107 100.233 48.1207L98.1632 50.9607L91.5332 44.0307C91.4632 43.9507 91.3532 43.9207 91.2532 43.9507C90.9632 44.0207 88.3732 44.7107 88.1432 46.1907C88.0632 46.7107 87.2632 47.4807 85.9432 48.3007C85.7132 48.4407 85.4132 48.3707 85.2732 48.1507C85.2232 48.0607 85.1932 47.9607 85.2032 47.8607C85.3232 45.9507 85.9032 43.1107 86.1132 42.6307C87.2932 39.9507 90.5432 38.5707 90.5732 38.5607V38.5507ZM76.7232 54.2007C76.3232 54.2007 75.9532 54.0407 75.6732 53.7607C75.0932 53.1807 75.0932 52.2407 75.6732 51.6507L79.1732 48.1507C79.7532 47.5707 80.6932 47.5607 81.2832 48.1507C81.8632 48.7307 81.8732 49.6707 81.2832 50.2607L77.7832 53.7607C77.5032 54.0407 77.1232 54.2007 76.7332 54.2007H76.7232ZM78.1832 56.2907C77.6032 55.7107 77.6032 54.7707 78.1832 54.1807L81.3232 51.0407C81.9032 50.4607 82.8432 50.4607 83.4332 51.0407C84.0132 51.6207 84.0132 52.5607 83.4332 53.1507L80.2932 56.2907C79.7132 56.8707 78.7732 56.8707 78.1832 56.2907ZM81.7532 59.2407C80.9332 59.2407 80.2632 58.5707 80.2632 57.7507C80.2632 57.3607 80.4232 56.9807 80.7032 56.7007L83.5432 53.8607C84.1232 53.2807 85.0632 53.2807 85.6532 53.8607C86.2332 54.4407 86.2332 55.3807 85.6532 55.9707L82.8132 58.8107C82.5332 59.0907 82.1532 59.2507 81.7632 59.2507L81.7532 59.2407ZM85.3232 61.3207C84.7432 61.9007 83.8032 61.9107 83.2132 61.3207C82.6232 60.7307 82.6232 59.8007 83.2132 59.2107L85.7932 56.6307C86.3732 56.0407 87.3132 56.0407 87.9032 56.6107C88.4932 57.1907 88.4932 58.1307 87.9232 58.7207C87.9232 58.7207 87.9132 58.7307 87.9032 58.7407L85.3232 61.3207ZM99.7332 55.6607C98.8832 56.5107 97.7232 55.7307 97.5832 55.6207L94.6732 52.7107C94.5632 52.6007 94.3732 52.6007 94.2632 52.7107C94.1532 52.8207 94.1532 53.0007 94.2632 53.1207L97.4232 56.2807C98.0232 56.8807 98.0232 57.8507 97.4232 58.4507C96.8232 59.0507 95.8532 59.0507 95.2532 58.4507L92.1932 55.3807C92.0832 55.2707 91.8932 55.2607 91.7832 55.3807C91.6732 55.4907 91.6632 55.6807 91.7832 55.7907L94.1332 58.1407C94.8532 58.8907 94.9532 59.9707 94.3532 60.5807C93.7532 61.1807 92.7832 61.1807 92.1832 60.5807L89.7332 58.1207C89.6232 58.0107 89.4332 58.0007 89.3232 58.1207C89.2132 58.2307 89.2032 58.4207 89.3232 58.5307L91.0032 60.2107C91.5732 60.7807 91.5832 61.7107 91.0032 62.2907C90.4332 62.8607 89.5032 62.8707 88.9232 62.2907C88.9232 62.2907 88.1432 61.5307 87.0432 60.4207L88.3132 59.1507C89.1232 58.3407 89.1232 57.0307 88.3132 56.2207C87.9232 55.8307 87.4032 55.6107 86.8532 55.6107C86.7432 55.6107 86.6432 55.6107 86.5332 55.6307C86.9332 54.5607 86.3932 53.3607 85.3232 52.9607C85.0932 52.8707 84.8432 52.8307 84.5932 52.8307C84.4932 52.8307 84.3932 52.8307 84.3032 52.8507C84.7232 51.7907 84.2132 50.5807 83.1532 50.1607C82.9132 50.0607 82.6532 50.0107 82.3832 50.0107C82.2932 50.0107 82.2132 50.0107 82.1232 50.0307C82.5832 48.9807 82.0932 47.7607 81.0532 47.3107C80.2732 46.9707 79.3632 47.1407 78.7632 47.7507L77.2132 49.3107C76.7832 48.8707 76.4032 48.4807 76.1532 48.2207C75.9832 48.0507 75.8432 47.9107 75.7532 47.8107C75.7032 47.7607 75.6632 47.7207 75.6332 47.6907C72.7632 44.7207 73.8932 41.0107 76.1532 38.8307C77.3932 37.6307 78.9132 36.9107 80.4432 36.7807C82.1532 36.6407 83.7432 37.2707 85.0332 38.6107C85.0332 38.6107 85.0532 38.6307 85.0632 38.6307L86.3232 39.6407C86.4432 39.7607 86.6732 40.0007 87.0032 40.3407C86.4132 40.9407 85.9432 41.6307 85.5932 42.3907C85.3332 42.9907 84.7532 45.9007 84.6332 47.8207C84.5932 48.4107 85.0432 48.9207 85.6332 48.9507C85.8532 48.9607 86.0832 48.9107 86.2732 48.7907C87.8032 47.8307 88.6332 46.9807 88.7432 46.2707C88.8832 45.4007 90.4832 44.7807 91.2632 44.5507L98.0132 51.6107L99.7432 53.4807C100.343 54.0807 100.343 55.0507 99.7432 55.6507L99.7332 55.6607Z" fill="#B2872D"></path>
</svg>
