<?xml version="1.0" encoding="UTF-8"?>
<svg xmlns="http://www.w3.org/2000/svg" width="175" height="125" viewBox="0 0 175 125" fill="none">
  <path d="M33.8381 85.2999C33.8381 84.6799 33.9081 84.1999 34.0381 83.8699C34.1681 83.5299 34.3581 83.2798 34.5981 83.0998C34.8381 82.9298 35.1081 82.8398 35.4081 82.8398C35.7081 82.8398 35.9881 82.9298 36.2281 83.0998C36.4681 83.2698 36.6681 83.5398 36.8081 83.8898C36.9481 84.2398 37.0181 84.7099 37.0181 85.2999C37.0181 85.8899 36.9481 86.3598 36.8081 86.6998C36.6681 87.0498 36.4681 87.3098 36.2281 87.4898C35.9781 87.6698 35.7081 87.7598 35.3981 87.7598C35.0881 87.7598 34.8281 87.6698 34.5881 87.4998C34.3481 87.3298 34.1581 87.0699 34.0281 86.7299C33.8981 86.3899 33.8281 85.9099 33.8281 85.2999H33.8381ZM34.2781 85.3098C34.2781 85.8398 34.3281 86.2398 34.4181 86.5098C34.5081 86.7798 34.6481 86.9898 34.8381 87.1298C35.0181 87.2698 35.2181 87.3398 35.4281 87.3398C35.6381 87.3398 35.8281 87.2698 36.0081 87.1298C36.1881 86.9898 36.3281 86.7898 36.4181 86.5098C36.5381 86.1798 36.5881 85.7698 36.5881 85.3098C36.5881 84.8498 36.5381 84.4498 36.4281 84.1498C36.3281 83.8498 36.1781 83.6298 35.9981 83.4898C35.8181 83.3498 35.6181 83.2798 35.4181 83.2798C35.2181 83.2798 35.0181 83.3498 34.8281 83.4898C34.6481 83.6298 34.5081 83.8298 34.4081 84.0998C34.3081 84.3698 34.2681 84.7699 34.2681 85.2999L34.2781 85.3098Z" fill="black"></path>
  <path d="M41.6406 82.7502L38.2206 87.9602H37.8006L40.9106 83.2102C40.5406 83.3002 40.0906 83.3402 39.5606 83.3402H39.3906C39.5206 83.5202 39.5906 83.7102 39.5906 83.9202C39.5906 84.2102 39.4906 84.4702 39.2906 84.7002C39.0906 84.9302 38.8206 85.0402 38.4806 85.0402C38.1706 85.0402 37.9106 84.9302 37.7006 84.7202C37.4906 84.5102 37.3906 84.2502 37.3906 83.9402C37.3906 83.7402 37.4406 83.5502 37.5306 83.3802C37.6206 83.2102 37.7606 83.0802 37.9406 82.9802C38.1206 82.8802 38.3006 82.8302 38.4806 82.8302C38.5606 82.8302 38.6906 82.8502 38.8706 82.8902C39.1506 82.9502 39.4506 82.9802 39.7706 82.9802C40.0106 82.9802 40.2306 82.9602 40.4406 82.9302C40.6506 82.9002 40.9306 82.8402 41.2606 82.7402H41.6406V82.7502ZM38.4906 83.2402C38.3006 83.2402 38.1306 83.3102 38.0006 83.4502C37.8606 83.5902 37.8006 83.7502 37.8006 83.9502C37.8006 84.1502 37.8706 84.3102 38.0006 84.4402C38.1306 84.5702 38.3006 84.6402 38.4906 84.6402C38.6806 84.6402 38.8506 84.5702 38.9906 84.4402C39.1306 84.3102 39.2006 84.1402 39.2006 83.9502C39.2006 83.7602 39.1306 83.5902 38.9906 83.4502C38.8506 83.3102 38.6906 83.2402 38.4906 83.2402ZM41.0506 85.5702C41.3506 85.5702 41.6106 85.6802 41.8306 85.8902C42.0506 86.1002 42.1506 86.3702 42.1506 86.6702C42.1506 86.9702 42.0406 87.2302 41.8306 87.4502C41.6206 87.6702 41.3606 87.7702 41.0506 87.7702C40.7406 87.7702 40.4906 87.6602 40.2706 87.4502C40.0506 87.2402 39.9506 86.9702 39.9506 86.6702C39.9506 86.3702 40.0606 86.1102 40.2706 85.8902C40.4806 85.6702 40.7406 85.5702 41.0506 85.5702ZM41.0506 85.9702C40.8606 85.9702 40.6906 86.0402 40.5606 86.1802C40.4206 86.3202 40.3606 86.4802 40.3606 86.6702C40.3606 86.8602 40.4306 87.0302 40.5606 87.1602C40.7006 87.3002 40.8606 87.3602 41.0506 87.3602C41.2406 87.3602 41.4106 87.2902 41.5506 87.1602C41.6906 87.0202 41.7606 86.8602 41.7606 86.6702C41.7606 86.4802 41.6906 86.3102 41.5506 86.1802C41.4106 86.0402 41.2506 85.9702 41.0506 85.9702Z" fill="black"></path>
  <path d="M44.6719 87.6409V82.9609H45.6419C46.3419 82.9609 46.8519 83.0209 47.1719 83.1309C47.6219 83.2909 47.9819 83.5609 48.2319 83.9609C48.4819 84.3509 48.6119 84.8209 48.6119 85.3609C48.6119 85.8309 48.5119 86.2409 48.3119 86.6009C48.1119 86.9609 47.8419 87.2209 47.5219 87.3909C47.2019 87.5609 46.7419 87.6409 46.1619 87.6409H44.6719ZM45.1219 87.2009H45.6619C46.3119 87.2009 46.7619 87.1609 47.0119 87.0809C47.3619 86.9709 47.6419 86.7609 47.8419 86.4609C48.0419 86.1609 48.1419 85.8009 48.1419 85.3709C48.1419 84.9409 48.0319 84.5309 47.8119 84.2109C47.5919 83.8909 47.2919 83.6709 46.9019 83.5509C46.6119 83.4609 46.1219 83.4209 45.4519 83.4209H45.1219V87.2009Z" fill="black"></path>
  <path d="M52.3613 86.4898L52.7413 86.6898C52.6213 86.9298 52.4713 87.1298 52.3113 87.2698C52.1513 87.4098 51.9713 87.5298 51.7713 87.6098C51.5713 87.6898 51.3413 87.7299 51.0913 87.7299C50.5313 87.7299 50.0812 87.5498 49.7612 87.1798C49.4412 86.8098 49.2812 86.3898 49.2812 85.9198C49.2812 85.4798 49.4113 85.0898 49.6813 84.7498C50.0213 84.3098 50.4813 84.0898 51.0513 84.0898C51.6213 84.0898 52.1113 84.3098 52.4613 84.7598C52.7113 85.0798 52.8413 85.4698 52.8413 85.9398H49.7213C49.7213 86.3398 49.8613 86.6698 50.1113 86.9298C50.3613 87.1898 50.6712 87.3198 51.0312 87.3198C51.2113 87.3198 51.3813 87.2899 51.5413 87.2299C51.7113 87.1699 51.8513 87.0898 51.9613 86.9898C52.0813 86.8898 52.2013 86.7198 52.3413 86.4998L52.3613 86.4898ZM52.3613 85.5598C52.3013 85.3198 52.2112 85.1298 52.1012 84.9898C51.9912 84.8498 51.8413 84.7298 51.6513 84.6498C51.4613 84.5698 51.2713 84.5198 51.0613 84.5198C50.7213 84.5198 50.4313 84.6298 50.1813 84.8498C50.0013 85.0098 49.8713 85.2498 49.7812 85.5698H52.3613V85.5598Z" fill="black"></path>
  <path d="M57.1413 82.8398V87.6398H56.7013V87.0499C56.5113 87.2799 56.3013 87.4498 56.0713 87.5598C55.8413 87.6798 55.5813 87.7299 55.3113 87.7299C54.8213 87.7299 54.4013 87.5498 54.0513 87.1998C53.7013 86.8498 53.5312 86.4098 53.5312 85.8998C53.5312 85.3898 53.7013 84.9799 54.0613 84.6199C54.4113 84.2699 54.8313 84.0898 55.3213 84.0898C55.6013 84.0898 55.8613 84.1498 56.0913 84.2698C56.3213 84.3898 56.5213 84.5698 56.7013 84.8098V82.8398H57.1413ZM55.3613 84.5198C55.1113 84.5198 54.8812 84.5798 54.6712 84.6998C54.4612 84.8198 54.2912 84.9898 54.1712 85.2098C54.0512 85.4298 53.9813 85.6599 53.9813 85.9099C53.9813 86.1599 54.0412 86.3898 54.1712 86.6098C54.3012 86.8298 54.4612 87.0098 54.6712 87.1298C54.8812 87.2498 55.1112 87.3198 55.3512 87.3198C55.5912 87.3198 55.8213 87.2598 56.0413 87.1398C56.2613 87.0198 56.4313 86.8498 56.5413 86.6398C56.6613 86.4298 56.7213 86.1898 56.7213 85.9298C56.7213 85.5298 56.5913 85.1898 56.3213 84.9298C56.0613 84.6598 55.7312 84.5298 55.3512 84.5298L55.3613 84.5198Z" fill="black"></path>
  <path d="M58.0859 84.1702H58.5359V85.7902C58.5359 86.1802 58.5559 86.4602 58.5959 86.6002C58.6559 86.8102 58.7859 86.9802 58.9659 87.1002C59.1459 87.2202 59.3559 87.2802 59.6059 87.2802C59.8559 87.2802 60.0659 87.2202 60.2359 87.1002C60.4059 86.9802 60.5259 86.8201 60.5959 86.6301C60.6359 86.5001 60.6659 86.2102 60.6659 85.7802V84.1602H61.1259V85.8602C61.1259 86.3402 61.0659 86.7002 60.9559 86.9402C60.8459 87.1802 60.6759 87.3702 60.4559 87.5102C60.2359 87.6502 59.9559 87.7202 59.6159 87.7202C59.2759 87.7202 58.9959 87.6502 58.7759 87.5102C58.5559 87.3702 58.3859 87.1802 58.2659 86.9402C58.1459 86.7002 58.0959 86.3302 58.0959 85.8302V84.1602L58.0859 84.1702Z" fill="black"></path>
  <path d="M65.4653 84.8898L65.1153 85.1098C64.8153 84.6998 64.3953 84.4998 63.8653 84.4998C63.4453 84.4998 63.0953 84.6399 62.8153 84.9099C62.5353 85.1799 62.3953 85.5098 62.3953 85.8998C62.3953 86.1498 62.4553 86.3898 62.5853 86.6098C62.7153 86.8298 62.8853 87.0098 63.1153 87.1298C63.3453 87.2498 63.5853 87.3098 63.8653 87.3098C64.3753 87.3098 64.7853 87.1098 65.1153 86.6998L65.4653 86.9298C65.2953 87.1798 65.0753 87.3698 64.7953 87.5098C64.5153 87.6498 64.1953 87.7198 63.8453 87.7198C63.2953 87.7198 62.8453 87.5498 62.4853 87.1998C62.1253 86.8498 61.9453 86.4298 61.9453 85.9298C61.9453 85.5998 62.0253 85.2798 62.1953 84.9998C62.3653 84.7098 62.5953 84.4898 62.8953 84.3298C63.1853 84.1698 63.5153 84.0898 63.8853 84.0898C64.1153 84.0898 64.3353 84.1298 64.5453 84.1898C64.7553 84.2598 64.9353 84.3498 65.0853 84.4598C65.2353 84.5698 65.3653 84.7198 65.4653 84.8898Z" fill="black"></path>
  <path d="M66.7116 82.8906H67.1616V84.1806H67.8716V84.5606H67.1616V87.6406H66.7116V84.5606H66.1016V84.1806H66.7116V82.8906Z" fill="black"></path>
  <path d="M68.6903 82.75C68.7903 82.75 68.8803 82.79 68.9503 82.86C69.0203 82.93 69.0603 83.02 69.0603 83.12C69.0603 83.22 69.0203 83.31 68.9503 83.38C68.8803 83.45 68.7903 83.49 68.6903 83.49C68.5903 83.49 68.5103 83.45 68.4303 83.38C68.3603 83.31 68.3203 83.22 68.3203 83.12C68.3203 83.02 68.3603 82.93 68.4303 82.86C68.5003 82.79 68.5903 82.75 68.6903 82.75ZM68.4703 84.17H68.9203V87.63H68.4703V84.17Z" fill="black"></path>
  <path d="M71.4797 84.0898C72.0097 84.0898 72.4597 84.2798 72.8097 84.6698C73.1297 85.0198 73.2897 85.4398 73.2897 85.9198C73.2897 86.3998 73.1197 86.8298 72.7797 87.1898C72.4397 87.5498 72.0097 87.7299 71.4797 87.7299C70.9497 87.7299 70.5097 87.5498 70.1797 87.1898C69.8397 86.8298 69.6797 86.3998 69.6797 85.9198C69.6797 85.4398 69.8397 85.0198 70.1597 84.6698C70.5097 84.2798 70.9497 84.0898 71.4897 84.0898H71.4797ZM71.4797 84.5198C71.1097 84.5198 70.7897 84.6598 70.5197 84.9298C70.2497 85.1998 70.1197 85.5298 70.1197 85.9198C70.1197 86.1698 70.1797 86.3999 70.2997 86.6199C70.4197 86.8399 70.5897 86.9999 70.7897 87.1199C70.9997 87.2399 71.2197 87.2999 71.4697 87.2999C71.7197 87.2999 71.9397 87.2399 72.1497 87.1199C72.3597 86.9999 72.5197 86.8299 72.6397 86.6199C72.7597 86.3999 72.8197 86.1698 72.8197 85.9198C72.8197 85.5298 72.6897 85.1998 72.4197 84.9298C72.1497 84.6598 71.8397 84.5198 71.4697 84.5198H71.4797Z" fill="black"></path>
  <path d="M74.1094 84.1701H74.5594V84.7901C74.7394 84.5501 74.9394 84.3701 75.1494 84.2601C75.3694 84.1401 75.5994 84.0801 75.8594 84.0801C76.1194 84.0801 76.3494 84.1501 76.5494 84.2801C76.7494 84.4101 76.8994 84.5901 76.9894 84.8101C77.0794 85.0301 77.1294 85.3801 77.1294 85.8501V87.6301H76.6794V85.9801C76.6794 85.5801 76.6594 85.3101 76.6294 85.1801C76.5794 84.9501 76.4794 84.7801 76.3294 84.6601C76.1794 84.5401 75.9894 84.4901 75.7594 84.4901C75.4894 84.4901 75.2494 84.5801 75.0394 84.7601C74.8294 84.9401 74.6894 85.1601 74.6194 85.4201C74.5794 85.5901 74.5594 85.9101 74.5594 86.3601V87.6301H74.1094V84.1701Z" fill="black"></path>
  <path d="M81.5266 84.0898C82.0566 84.0898 82.5066 84.2798 82.8566 84.6698C83.1766 85.0198 83.3366 85.4398 83.3366 85.9198C83.3366 86.3998 83.1666 86.8298 82.8266 87.1898C82.4866 87.5498 82.0566 87.7299 81.5266 87.7299C80.9966 87.7299 80.5566 87.5498 80.2266 87.1898C79.8866 86.8298 79.7266 86.3998 79.7266 85.9198C79.7266 85.4398 79.8866 85.0198 80.2066 84.6698C80.5566 84.2798 80.9966 84.0898 81.5366 84.0898H81.5266ZM81.5166 84.5198C81.1466 84.5198 80.8266 84.6598 80.5566 84.9298C80.2866 85.1998 80.1566 85.5298 80.1566 85.9198C80.1566 86.1698 80.2166 86.3999 80.3366 86.6199C80.4566 86.8399 80.6266 86.9999 80.8266 87.1199C81.0366 87.2399 81.2566 87.2999 81.5066 87.2999C81.7566 87.2999 81.9766 87.2399 82.1866 87.1199C82.3966 86.9999 82.5566 86.8299 82.6766 86.6199C82.7966 86.3999 82.8566 86.1698 82.8566 85.9198C82.8566 85.5298 82.7266 85.1998 82.4566 84.9298C82.1866 84.6598 81.8766 84.5198 81.5066 84.5198H81.5166Z" fill="black"></path>
  <path d="M84.0859 82.8398H84.5359V87.6398H84.0859V82.8398Z" fill="black"></path>
  <path d="M88.9147 82.8398V87.6398H88.4747V87.0499C88.2847 87.2799 88.0747 87.4498 87.8447 87.5598C87.6147 87.6798 87.3547 87.7299 87.0847 87.7299C86.5947 87.7299 86.1747 87.5498 85.8247 87.1998C85.4747 86.8498 85.3047 86.4098 85.3047 85.8998C85.3047 85.3898 85.4747 84.9799 85.8347 84.6199C86.1847 84.2699 86.6047 84.0898 87.0947 84.0898C87.3747 84.0898 87.6347 84.1498 87.8647 84.2698C88.0947 84.3898 88.2947 84.5698 88.4747 84.8098V82.8398H88.9147ZM87.1347 84.5198C86.8847 84.5198 86.6547 84.5798 86.4447 84.6998C86.2347 84.8198 86.0647 84.9898 85.9447 85.2098C85.8247 85.4298 85.7547 85.6599 85.7547 85.9099C85.7547 86.1599 85.8147 86.3898 85.9447 86.6098C86.0747 86.8298 86.2347 87.0098 86.4447 87.1298C86.6547 87.2498 86.8847 87.3198 87.1247 87.3198C87.3647 87.3198 87.5947 87.2598 87.8147 87.1398C88.0347 87.0198 88.2047 86.8498 88.3147 86.6398C88.4347 86.4298 88.4947 86.1898 88.4947 85.9298C88.4947 85.5298 88.3647 85.1898 88.0947 84.9298C87.8347 84.6598 87.5047 84.5298 87.1247 84.5298L87.1347 84.5198Z" fill="black"></path>
  <path d="M96.3216 83.7403L95.9616 84.0803C95.7016 83.8203 95.4116 83.6303 95.1016 83.5003C94.7916 83.3703 94.4916 83.3003 94.1916 83.3003C93.8216 83.3003 93.4716 83.3903 93.1416 83.5703C92.8116 83.7503 92.5516 83.9903 92.3716 84.3003C92.1916 84.6103 92.1016 84.9403 92.1016 85.2803C92.1016 85.6203 92.1916 85.9703 92.3816 86.2803C92.5716 86.6003 92.8316 86.8503 93.1616 87.0303C93.4916 87.2103 93.8616 87.3003 94.2516 87.3003C94.7316 87.3003 95.1416 87.1603 95.4716 86.8903C95.8016 86.6203 96.0016 86.2703 96.0616 85.8303H94.5716V85.3803H96.5916C96.5916 86.1003 96.3716 86.6803 95.9516 87.1003C95.5316 87.5203 94.9516 87.7403 94.2416 87.7403C93.3716 87.7403 92.6916 87.4503 92.1816 86.8603C91.7916 86.4103 91.6016 85.8803 91.6016 85.2803C91.6016 84.8403 91.7116 84.4203 91.9316 84.0403C92.1516 83.6603 92.4616 83.3603 92.8516 83.1403C93.2416 82.9303 93.6816 82.8203 94.1716 82.8203C94.5716 82.8203 94.9416 82.8903 95.2916 83.0303C95.6416 83.1703 95.9816 83.4003 96.3116 83.7203L96.3216 83.7403Z" fill="black"></path>
  <path d="M99.05 84.0898C99.58 84.0898 100.03 84.2798 100.38 84.6698C100.7 85.0198 100.86 85.4398 100.86 85.9198C100.86 86.3998 100.69 86.8298 100.35 87.1898C100.01 87.5498 99.58 87.7299 99.05 87.7299C98.52 87.7299 98.08 87.5498 97.75 87.1898C97.41 86.8298 97.25 86.3998 97.25 85.9198C97.25 85.4398 97.41 85.0198 97.73 84.6698C98.08 84.2798 98.52 84.0898 99.06 84.0898H99.05ZM99.05 84.5198C98.68 84.5198 98.36 84.6598 98.09 84.9298C97.82 85.1998 97.69 85.5298 97.69 85.9198C97.69 86.1698 97.75 86.3999 97.87 86.6199C97.99 86.8399 98.16 86.9999 98.36 87.1199C98.57 87.2399 98.79 87.2999 99.04 87.2999C99.29 87.2999 99.51 87.2399 99.72 87.1199C99.93 86.9999 100.09 86.8299 100.21 86.6199C100.33 86.3999 100.39 86.1698 100.39 85.9198C100.39 85.5298 100.26 85.1998 99.99 84.9298C99.72 84.6598 99.41 84.5198 99.04 84.5198H99.05Z" fill="black"></path>
  <path d="M101.617 82.8398H102.067V87.6398H101.617V82.8398Z" fill="black"></path>
  <path d="M106.438 82.8398V87.6398H105.998V87.0499C105.808 87.2799 105.598 87.4498 105.368 87.5598C105.138 87.6798 104.878 87.7299 104.608 87.7299C104.118 87.7299 103.698 87.5498 103.348 87.1998C102.998 86.8498 102.828 86.4098 102.828 85.8998C102.828 85.3898 102.998 84.9799 103.358 84.6199C103.708 84.2699 104.128 84.0898 104.618 84.0898C104.898 84.0898 105.158 84.1498 105.388 84.2698C105.618 84.3898 105.818 84.5698 105.998 84.8098V82.8398H106.438ZM104.658 84.5198C104.408 84.5198 104.178 84.5798 103.968 84.6998C103.758 84.8198 103.588 84.9898 103.468 85.2098C103.348 85.4298 103.278 85.6599 103.278 85.9099C103.278 86.1599 103.338 86.3898 103.468 86.6098C103.598 86.8298 103.758 87.0098 103.968 87.1298C104.178 87.2498 104.408 87.3198 104.648 87.3198C104.888 87.3198 105.118 87.2598 105.338 87.1398C105.558 87.0198 105.728 86.8498 105.838 86.6398C105.958 86.4298 106.018 86.1898 106.018 85.9298C106.018 85.5298 105.888 85.1898 105.618 84.9298C105.358 84.6598 105.028 84.5298 104.648 84.5298L104.658 84.5198Z" fill="black"></path>
  <path d="M112.166 86.4898L112.546 86.6898C112.426 86.9298 112.276 87.1298 112.116 87.2698C111.956 87.4098 111.776 87.5298 111.576 87.6098C111.376 87.6898 111.146 87.7299 110.896 87.7299C110.336 87.7299 109.886 87.5498 109.566 87.1798C109.246 86.8098 109.086 86.3898 109.086 85.9198C109.086 85.4798 109.216 85.0898 109.486 84.7498C109.826 84.3098 110.286 84.0898 110.856 84.0898C111.426 84.0898 111.916 84.3098 112.266 84.7598C112.516 85.0798 112.646 85.4698 112.646 85.9398H109.526C109.526 86.3398 109.666 86.6698 109.916 86.9298C110.166 87.1898 110.476 87.3198 110.836 87.3198C111.016 87.3198 111.186 87.2899 111.346 87.2299C111.516 87.1699 111.656 87.0898 111.766 86.9898C111.886 86.8898 112.006 86.7198 112.146 86.4998L112.166 86.4898ZM112.166 85.5598C112.106 85.3198 112.016 85.1298 111.906 84.9898C111.796 84.8498 111.646 84.7298 111.456 84.6498C111.266 84.5698 111.076 84.5198 110.866 84.5198C110.526 84.5198 110.236 84.6298 109.986 84.8498C109.806 85.0098 109.676 85.2498 109.586 85.5698H112.166V85.5598Z" fill="black"></path>
  <path d="M113.094 84.1699H113.634L114.554 85.4399L115.464 84.1699H116.004L114.824 85.8099L116.154 87.6399H115.614L114.564 86.1899L113.514 87.6399H112.984L114.294 85.8199L113.104 84.1799L113.094 84.1699Z" fill="black"></path>
  <path d="M119.981 84.8898L119.631 85.1098C119.331 84.6998 118.911 84.4998 118.381 84.4998C117.961 84.4998 117.611 84.6399 117.331 84.9099C117.051 85.1799 116.911 85.5098 116.911 85.8998C116.911 86.1498 116.971 86.3898 117.101 86.6098C117.231 86.8298 117.401 87.0098 117.631 87.1298C117.861 87.2498 118.101 87.3098 118.381 87.3098C118.891 87.3098 119.301 87.1098 119.631 86.6998L119.981 86.9298C119.811 87.1798 119.591 87.3698 119.311 87.5098C119.031 87.6498 118.711 87.7198 118.361 87.7198C117.811 87.7198 117.361 87.5498 117.001 87.1998C116.641 86.8498 116.461 86.4298 116.461 85.9298C116.461 85.5998 116.541 85.2798 116.711 84.9998C116.881 84.7098 117.111 84.4898 117.411 84.3298C117.701 84.1698 118.031 84.0898 118.401 84.0898C118.631 84.0898 118.851 84.1298 119.061 84.1898C119.271 84.2598 119.451 84.3498 119.601 84.4598C119.751 84.5698 119.881 84.7198 119.981 84.8898Z" fill="black"></path>
  <path d="M120.838 82.8398H121.288V84.7999C121.468 84.5599 121.668 84.3798 121.878 84.2698C122.098 84.1498 122.328 84.0898 122.578 84.0898C122.828 84.0898 123.068 84.1598 123.268 84.2898C123.468 84.4198 123.618 84.5998 123.708 84.8198C123.798 85.0398 123.848 85.3898 123.848 85.8598V87.6398H123.398V85.9898C123.398 85.5898 123.378 85.3198 123.348 85.1898C123.298 84.9598 123.188 84.7898 123.048 84.6698C122.898 84.5498 122.708 84.4998 122.478 84.4998C122.208 84.4998 121.968 84.5898 121.758 84.7698C121.548 84.9498 121.408 85.1698 121.338 85.4298C121.298 85.5998 121.278 85.9099 121.278 86.3699V87.6398H120.828V82.8398H120.838Z" fill="black"></path>
  <path d="M128.256 84.1701V87.6301H127.816V87.0401C127.626 87.2701 127.416 87.4401 127.186 87.5501C126.956 87.6701 126.696 87.7201 126.426 87.7201C125.936 87.7201 125.516 87.5401 125.176 87.1901C124.826 86.8301 124.656 86.4001 124.656 85.8901C124.656 85.3801 124.826 84.9701 125.176 84.6101C125.526 84.2601 125.946 84.0801 126.436 84.0801C126.716 84.0801 126.976 84.1401 127.206 84.2601C127.436 84.3801 127.636 84.5601 127.816 84.8001V84.1601H128.256V84.1701ZM126.476 84.5201C126.226 84.5201 125.996 84.5801 125.786 84.7001C125.576 84.8201 125.406 84.9901 125.286 85.2101C125.166 85.4301 125.096 85.6601 125.096 85.9101C125.096 86.1601 125.156 86.3901 125.286 86.6101C125.416 86.8301 125.576 87.0101 125.786 87.1301C125.996 87.2501 126.226 87.3201 126.466 87.3201C126.706 87.3201 126.936 87.2601 127.156 87.1401C127.376 87.0201 127.546 86.8501 127.656 86.6401C127.776 86.4301 127.836 86.1901 127.836 85.9301C127.836 85.5301 127.706 85.1901 127.436 84.9301C127.176 84.6601 126.846 84.5301 126.466 84.5301L126.476 84.5201Z" fill="black"></path>
  <path d="M129.266 84.1701H129.716V84.7901C129.896 84.5501 130.096 84.3701 130.306 84.2601C130.526 84.1401 130.756 84.0801 131.016 84.0801C131.276 84.0801 131.506 84.1501 131.706 84.2801C131.906 84.4101 132.056 84.5901 132.146 84.8101C132.236 85.0301 132.286 85.3801 132.286 85.8501V87.6301H131.836V85.9801C131.836 85.5801 131.816 85.3101 131.786 85.1801C131.736 84.9501 131.636 84.7801 131.486 84.6601C131.336 84.5401 131.146 84.4901 130.916 84.4901C130.646 84.4901 130.406 84.5801 130.196 84.7601C129.986 84.9401 129.846 85.1601 129.776 85.4201C129.736 85.5901 129.716 85.9101 129.716 86.3601V87.6301H129.266V84.1701Z" fill="black"></path>
  <path d="M136.225 84.1703H136.675V86.9303C136.675 87.4203 136.635 87.7703 136.545 88.0003C136.425 88.3203 136.225 88.5603 135.935 88.7303C135.645 88.9003 135.295 88.9903 134.895 88.9903C134.595 88.9903 134.335 88.9503 134.095 88.8603C133.855 88.7803 133.665 88.6603 133.515 88.5203C133.365 88.3803 133.225 88.1703 133.105 87.9003H133.585C133.715 88.1303 133.885 88.3003 134.095 88.4103C134.305 88.5203 134.565 88.5803 134.865 88.5803C135.165 88.5803 135.425 88.5203 135.635 88.4103C135.845 88.3003 135.995 88.1603 136.085 87.9803C136.175 87.8103 136.215 87.5303 136.215 87.1503V86.9703C136.045 87.1803 135.845 87.3503 135.605 87.4603C135.365 87.5703 135.105 87.6303 134.835 87.6303C134.515 87.6303 134.215 87.5503 133.935 87.3903C133.655 87.2303 133.435 87.0203 133.285 86.7503C133.135 86.4803 133.055 86.1903 133.055 85.8703C133.055 85.5503 133.135 85.2503 133.295 84.9703C133.455 84.6903 133.675 84.4703 133.955 84.3103C134.235 84.1503 134.535 84.0703 134.845 84.0703C135.105 84.0703 135.345 84.1203 135.575 84.2303C135.795 84.3403 136.015 84.5103 136.225 84.7603V84.1603V84.1703ZM134.905 84.5203C134.655 84.5203 134.415 84.5803 134.205 84.7003C133.985 84.8203 133.815 84.9903 133.695 85.2103C133.575 85.4303 133.515 85.6603 133.515 85.9103C133.515 86.2903 133.645 86.6003 133.895 86.8503C134.145 87.1003 134.475 87.2203 134.885 87.2203C135.295 87.2203 135.625 87.1003 135.875 86.8503C136.125 86.6003 136.245 86.2803 136.245 85.8803C136.245 85.6203 136.185 85.3903 136.075 85.1803C135.965 84.9803 135.795 84.8103 135.585 84.6903C135.375 84.5703 135.145 84.5103 134.905 84.5103V84.5203Z" fill="black"></path>
  <path d="M140.541 86.4898L140.921 86.6898C140.801 86.9298 140.651 87.1298 140.491 87.2698C140.331 87.4098 140.151 87.5298 139.951 87.6098C139.751 87.6898 139.521 87.7299 139.271 87.7299C138.711 87.7299 138.261 87.5498 137.941 87.1798C137.621 86.8098 137.461 86.3898 137.461 85.9198C137.461 85.4798 137.591 85.0898 137.861 84.7498C138.201 84.3098 138.661 84.0898 139.231 84.0898C139.801 84.0898 140.291 84.3098 140.641 84.7598C140.891 85.0798 141.021 85.4698 141.021 85.9398H137.901C137.901 86.3398 138.041 86.6698 138.291 86.9298C138.541 87.1898 138.851 87.3198 139.211 87.3198C139.391 87.3198 139.561 87.2899 139.721 87.2299C139.891 87.1699 140.031 87.0898 140.141 86.9898C140.261 86.8898 140.381 86.7198 140.521 86.4998L140.541 86.4898ZM140.541 85.5598C140.481 85.3198 140.391 85.1298 140.281 84.9898C140.171 84.8498 140.021 84.7298 139.831 84.6498C139.641 84.5698 139.451 84.5198 139.241 84.5198C138.901 84.5198 138.611 84.6298 138.361 84.8498C138.181 85.0098 138.051 85.2498 137.961 85.5698H140.541V85.5598Z" fill="black"></path>
  <path d="M95.7619 54.0791C95.4619 53.7791 94.9719 53.7791 94.6719 54.0791C94.3719 54.3791 94.3719 54.8691 94.6719 55.1691L97.2119 57.7091H82.1119C79.1319 57.7091 76.7119 55.2891 76.7119 52.3091C76.7119 51.8891 76.3619 51.5391 75.9419 51.5391C75.5219 51.5391 75.1719 51.8891 75.1719 52.3091C75.1719 56.1291 78.2819 59.2491 82.1119 59.2491H97.2119L94.6719 61.7891C94.3719 62.0891 94.3719 62.5791 94.6719 62.8791C94.8219 63.0291 95.0119 63.1091 95.2119 63.1091C95.4119 63.1091 95.6019 63.0291 95.7619 62.8891L99.6119 59.0391C99.9119 58.7391 99.9119 58.2491 99.6119 57.9491L95.7619 54.0891V54.0791Z" fill="#B2872D"></path>
  <path d="M79.2447 46.2691C79.3947 46.4191 79.5947 46.4891 79.7947 46.4891C79.9947 46.4891 80.1847 46.4091 80.3447 46.2691C80.6447 45.9691 80.6447 45.4791 80.3447 45.1791L77.8047 42.6391H92.9047C95.8847 42.6391 98.3047 45.0591 98.3047 48.0391C98.3047 48.4591 98.6547 48.8091 99.0747 48.8091C99.4947 48.8091 99.8447 48.4591 99.8447 48.0391C99.8447 44.2191 96.7347 41.0991 92.9047 41.0991H77.8047L80.3447 38.5591C80.6447 38.2591 80.6447 37.7691 80.3447 37.4691C80.0447 37.1691 79.5547 37.1691 79.2547 37.4691L75.4047 41.3191C75.1047 41.6191 75.1047 42.1091 75.4047 42.4091L79.2547 46.2591L79.2447 46.2691Z" fill="#B2872D"></path>
</svg>
