<?xml version="1.0" encoding="UTF-8"?>
<svg xmlns="http://www.w3.org/2000/svg" id="Layer_1" data-name="Layer 1" viewBox="0 0 175 125">
  <defs>
    <style>
      .cls-1, .cls-2, .cls-3 {
        stroke-width: 0px;
      }

      .cls-1, .cls-4, .cls-5, .cls-6 {
        fill: #b2872d;
      }

      .cls-3 {
        fill: #fff;
      }

      .cls-4 {
        font-family: Urbanist-Medium, Urbanist;
        font-size: 2.42px;
        font-weight: 500;
      }

      .cls-7 {
        letter-spacing: -.01em;
      }

      .cls-8 {
        fill: none;
        stroke: #b2872d;
        stroke-miterlimit: 10;
        stroke-width: .75px;
      }

      .cls-5 {
        font-family: BebasNeueRegular, 'Bebas Neue';
        font-size: 11.61px;
      }

      .cls-6 {
        font-family: Urbanist-Black, Urbanist;
        font-size: 11.09px;
        font-weight: 800;
      }
    </style>
  </defs>
  <rect class="cls-3" x="-4.53" y="-3.2" width="182.21" height="132.04"></rect>
  <g>
    <path class="cls-2" d="M35.54,81.85l.25.14c-.08.16-.13.29-.16.38-.03.09-.05.21-.06.35h.28v.88h-.58v-.55c0-.27.02-.49.06-.64s.11-.34.21-.56ZM36.96,81.85l.25.14c-.08.16-.13.29-.16.38-.03.09-.05.21-.06.35h.28v.88h-.58v-.55c0-.27.02-.49.05-.64.04-.16.11-.34.22-.56Z"></path>
    <path class="cls-2" d="M38.47,86.65v-4.68h.1l3.12,3.59v-3.59h.46v4.68h-.1l-3.09-3.54v3.54h-.48Z"></path>
    <path class="cls-2" d="M46.66,83.19v3.46h-.44v-.59c-.19.23-.4.4-.63.51-.23.12-.49.17-.76.17-.49,0-.91-.18-1.25-.53-.35-.36-.52-.79-.52-1.3s.17-.92.52-1.28c.35-.35.77-.53,1.26-.53.28,0,.54.06.77.18.23.12.43.3.61.54v-.64h.44ZM44.88,83.53c-.25,0-.48.06-.69.18s-.38.29-.5.51c-.12.22-.19.45-.19.7s.06.48.19.7.29.4.5.52c.21.12.44.19.68.19s.47-.06.69-.18c.22-.12.39-.29.5-.5.12-.21.18-.45.18-.71,0-.4-.13-.74-.4-1-.26-.27-.59-.4-.97-.4Z"></path>
    <path class="cls-2" d="M48.05,81.9h.45v1.29h.71v.38h-.71v3.08h-.45v-3.08h-.61v-.38h.61v-1.29Z"></path>
    <path class="cls-2" d="M49.82,83.19h.45v1.62c0,.39.02.67.06.81.06.21.19.38.37.5s.39.18.64.18.46-.06.63-.18c.17-.12.29-.28.36-.47.04-.13.07-.42.07-.85v-1.62h.46v1.7c0,.48-.06.84-.17,1.08-.11.24-.28.43-.5.57-.22.14-.5.21-.84.21s-.62-.07-.84-.21-.39-.33-.51-.57-.17-.61-.17-1.11v-1.67Z"></path>
    <path class="cls-2" d="M53.67,83.19h.46v.51c.14-.2.28-.35.43-.45.15-.1.31-.15.47-.15.12,0,.25.04.39.12l-.23.38c-.09-.04-.17-.06-.24-.06-.15,0-.29.06-.43.18-.14.12-.24.31-.32.57-.05.2-.08.6-.08,1.2v1.17h-.46v-3.46Z"></path>
    <path class="cls-2" d="M59.25,83.19v3.46h-.44v-.59c-.19.23-.4.4-.63.51-.23.12-.49.17-.76.17-.49,0-.91-.18-1.25-.53-.35-.36-.52-.79-.52-1.3s.17-.92.52-1.28c.35-.35.77-.53,1.26-.53.28,0,.54.06.77.18.23.12.43.3.61.54v-.64h.44ZM57.47,83.53c-.25,0-.48.06-.69.18s-.38.29-.5.51c-.12.22-.19.45-.19.7s.06.48.19.7.29.4.5.52c.21.12.44.19.68.19s.47-.06.69-.18c.22-.12.39-.29.5-.5.12-.21.18-.45.18-.71,0-.4-.13-.74-.4-1-.26-.27-.59-.4-.97-.4Z"></path>
    <path class="cls-2" d="M60.18,81.85h.45v4.8h-.45v-4.8Z"></path>
    <path class="cls-2" d="M63.43,86.65v-4.68h.97c.7,0,1.21.06,1.53.17.45.16.81.43,1.06.83.25.39.38.86.38,1.4,0,.47-.1.88-.3,1.24-.2.36-.47.62-.79.79s-.78.25-1.36.25h-1.49ZM63.88,86.21h.54c.65,0,1.1-.04,1.35-.12.35-.11.63-.32.83-.62.2-.3.3-.66.3-1.09s-.11-.84-.33-1.16-.52-.54-.91-.66c-.29-.09-.78-.13-1.45-.13h-.33v3.78Z"></path>
    <path class="cls-2" d="M68.37,81.77c.1,0,.19.04.26.11.07.07.11.16.11.26s-.04.19-.11.26c-.07.07-.16.11-.26.11s-.18-.04-.26-.11c-.07-.07-.11-.16-.11-.26s.04-.19.11-.26c.07-.07.16-.11.26-.11ZM68.14,83.19h.45v3.46h-.45v-3.46Z"></path>
    <path class="cls-2" d="M72.97,83.19v3.46h-.44v-.59c-.19.23-.4.4-.63.51-.23.12-.49.17-.76.17-.49,0-.91-.18-1.25-.53-.35-.36-.52-.79-.52-1.3s.17-.92.52-1.28c.35-.35.77-.53,1.26-.53.28,0,.54.06.77.18.23.12.43.3.61.54v-.64h.44ZM71.19,83.53c-.25,0-.48.06-.69.18s-.38.29-.5.51c-.12.22-.19.45-.19.7s.06.48.19.7.29.4.5.52c.21.12.44.19.68.19s.47-.06.69-.18c.22-.12.39-.29.5-.5.12-.21.18-.45.18-.71,0-.4-.13-.74-.4-1-.26-.27-.59-.4-.97-.4Z"></path>
    <path class="cls-2" d="M73.96,83.19h.45v.6c.16-.22.31-.38.48-.48.22-.14.46-.2.71-.2.17,0,.33.03.48.1.15.07.27.15.37.26.1.11.18.27.25.47.15-.27.33-.48.56-.62.22-.14.46-.21.72-.21.24,0,.45.06.63.18.18.12.32.29.41.51.09.22.13.54.13.97v1.89h-.46v-1.89c0-.37-.03-.63-.08-.77-.05-.14-.14-.25-.27-.34-.13-.08-.28-.13-.46-.13-.22,0-.41.06-.59.19-.18.13-.31.3-.39.51-.08.21-.12.57-.12,1.06v1.36h-.45v-1.77c0-.42-.03-.7-.08-.85-.05-.15-.14-.27-.27-.36-.13-.09-.28-.14-.46-.14-.21,0-.4.06-.58.19-.18.12-.31.29-.4.5s-.13.53-.13.96v1.47h-.45v-3.46Z"></path>
    <path class="cls-2" d="M81.72,83.1c.53,0,.98.19,1.33.58.32.35.48.77.48,1.25s-.17.91-.51,1.27c-.34.36-.77.54-1.3.54s-.97-.18-1.3-.54c-.34-.36-.5-.79-.5-1.27s.16-.9.48-1.25c.35-.39.79-.58,1.33-.58ZM81.72,83.54c-.37,0-.69.14-.96.41-.27.27-.4.6-.4.99,0,.25.06.48.18.7.12.22.29.38.49.5.21.12.43.18.68.18s.47-.06.68-.18c.21-.12.37-.29.49-.5.12-.22.18-.45.18-.7,0-.39-.13-.72-.4-.99-.27-.27-.58-.41-.95-.41Z"></path>
    <path class="cls-2" d="M84.35,83.19h.45v.62c.18-.24.38-.42.59-.53.22-.12.45-.18.71-.18s.49.07.69.2.35.31.44.53c.09.22.14.57.14,1.04v1.78h-.45v-1.65c0-.4-.02-.67-.05-.8-.05-.23-.15-.4-.3-.52-.15-.12-.34-.17-.57-.17-.27,0-.51.09-.72.27-.21.18-.35.4-.42.66-.04.17-.06.49-.06.94v1.27h-.45v-3.46Z"></path>
    <path class="cls-2" d="M91.78,81.85v4.8h-.44v-.59c-.19.23-.4.4-.63.51-.23.12-.49.17-.76.17-.49,0-.91-.18-1.26-.53s-.52-.79-.52-1.3.17-.92.53-1.28c.35-.35.77-.53,1.26-.53.28,0,.54.06.77.18.23.12.43.3.61.54v-1.97h.44ZM90,83.53c-.25,0-.48.06-.69.18s-.38.29-.5.51c-.12.22-.19.45-.19.7s.06.48.19.7.29.4.5.52.44.19.68.19.47-.06.69-.18c.22-.12.39-.29.5-.5.12-.21.18-.45.18-.71,0-.4-.13-.74-.4-1-.26-.27-.59-.4-.97-.4Z"></path>
    <path class="cls-2" d="M94.53,83.57l-.29.3c-.24-.23-.47-.35-.7-.35-.14,0-.27.05-.37.14-.1.1-.16.21-.16.33,0,.11.04.22.13.32.08.1.26.23.54.37.33.17.56.34.68.5.12.16.17.34.17.54,0,.29-.1.53-.3.72-.2.2-.45.3-.75.3-.2,0-.39-.04-.57-.13s-.33-.21-.45-.36l.28-.32c.23.26.47.39.72.39.18,0,.33-.06.46-.17.13-.12.19-.25.19-.4,0-.13-.04-.24-.12-.34-.08-.1-.27-.22-.56-.37-.31-.16-.53-.32-.64-.48-.11-.16-.17-.34-.17-.54,0-.26.09-.48.27-.66s.41-.26.68-.26c.32,0,.64.16.96.47Z"></path>
    <path class="cls-2" d="M95.7,83.6l-.25-.14c.08-.16.13-.29.16-.38.03-.09.05-.21.06-.35h-.28v-.88h.58v.55c0,.27-.02.49-.06.64s-.11.34-.22.56ZM97.12,83.6l-.25-.14c.08-.16.13-.29.16-.38.03-.09.05-.21.06-.35h-.28v-.88h.58v.55c0,.27-.02.49-.06.64s-.11.34-.22.56Z"></path>
    <path class="cls-2" d="M104.71,82.84l-.37.28c-.2-.27-.45-.47-.73-.6s-.6-.21-.94-.21c-.37,0-.72.09-1.04.27-.32.18-.57.42-.74.72s-.26.64-.26,1.02c0,.57.2,1.05.59,1.43s.89.57,1.48.57c.66,0,1.2-.26,1.65-.77l.37.28c-.23.3-.52.53-.87.69-.35.16-.74.24-1.17.24-.82,0-1.46-.27-1.94-.82-.4-.46-.59-1.02-.59-1.67,0-.69.24-1.26.72-1.73s1.08-.7,1.81-.7c.44,0,.83.09,1.18.26s.64.42.87.73Z"></path>
    <path class="cls-2" d="M108.5,85.5l.38.2c-.12.24-.27.44-.43.58s-.34.26-.54.34c-.2.08-.43.12-.68.12-.56,0-1.01-.18-1.33-.55-.32-.37-.48-.79-.48-1.26,0-.44.13-.83.4-1.17.34-.44.8-.66,1.37-.66s1.06.22,1.41.67c.25.32.38.71.38,1.18h-3.12c0,.4.14.73.39.99.25.26.56.39.92.39.18,0,.35-.03.51-.09.17-.06.31-.14.42-.24.12-.1.24-.27.38-.49ZM108.5,84.57c-.06-.24-.15-.43-.26-.57-.11-.14-.26-.26-.45-.34s-.38-.13-.59-.13c-.34,0-.63.11-.88.33-.18.16-.31.4-.4.72h2.58Z"></path>
    <path class="cls-2" d="M109.65,83.19h.46v.51c.14-.2.28-.35.43-.45.15-.1.31-.15.47-.15.12,0,.25.04.39.12l-.23.38c-.09-.04-.17-.06-.24-.06-.15,0-.29.06-.43.18-.14.12-.24.31-.32.57-.05.2-.08.6-.08,1.2v1.17h-.46v-3.46Z"></path>
    <path class="cls-2" d="M112.16,81.9h.45v1.29h.71v.38h-.71v3.08h-.45v-3.08h-.61v-.38h.61v-1.29Z"></path>
    <path class="cls-2" d="M114.14,81.77c.1,0,.19.04.26.11.07.07.11.16.11.26s-.04.19-.11.26c-.07.07-.16.11-.26.11s-.18-.04-.26-.11c-.07-.07-.11-.16-.11-.26s.04-.19.11-.26c.07-.07.16-.11.26-.11ZM113.92,83.19h.45v3.46h-.45v-3.46Z"></path>
    <path class="cls-2" d="M116.71,81.85v.44c-.16-.07-.3-.11-.42-.11-.09,0-.16.02-.22.05-.06.04-.09.08-.11.12s-.02.17-.02.36v.47h.72v.38h-.72v3.08h-.45v-3.08h-.46v-.38h.46v-.54c0-.25.02-.43.07-.53.04-.11.12-.19.23-.26.11-.06.24-.1.4-.1.14,0,.32.03.52.09Z"></path>
    <path class="cls-2" d="M117.49,81.77c.1,0,.19.04.26.11.07.07.11.16.11.26s-.04.19-.11.26c-.07.07-.16.11-.26.11s-.18-.04-.26-.11c-.07-.07-.11-.16-.11-.26s.04-.19.11-.26c.07-.07.16-.11.26-.11ZM117.27,83.19h.45v3.46h-.45v-3.46Z"></path>
    <path class="cls-2" d="M122,83.91l-.35.22c-.3-.41-.72-.61-1.25-.61-.42,0-.77.14-1.05.41s-.42.6-.42.99c0,.25.06.49.19.71.13.22.3.4.53.52s.47.18.75.18c.51,0,.92-.2,1.25-.61l.35.23c-.17.25-.39.44-.67.58-.28.14-.6.21-.95.21-.55,0-1-.17-1.36-.52-.36-.35-.54-.77-.54-1.27,0-.33.08-.65.25-.93.17-.29.4-.51.7-.67.29-.16.62-.24.99-.24.23,0,.45.04.66.1.21.07.39.16.54.27s.28.26.38.43Z"></path>
    <path class="cls-2" d="M126.31,83.19v3.46h-.44v-.59c-.19.23-.4.4-.63.51-.23.12-.49.17-.76.17-.49,0-.91-.18-1.25-.53-.35-.36-.52-.79-.52-1.3s.17-.92.52-1.28c.35-.35.77-.53,1.26-.53.28,0,.54.06.77.18.23.12.43.3.61.54v-.64h.44ZM124.53,83.53c-.25,0-.48.06-.69.18s-.38.29-.5.51c-.12.22-.19.45-.19.7s.06.48.19.7.29.4.5.52c.21.12.44.19.68.19s.47-.06.69-.18c.22-.12.39-.29.5-.5.12-.21.18-.45.18-.71,0-.4-.13-.74-.4-1-.26-.27-.59-.4-.97-.4Z"></path>
    <path class="cls-2" d="M127.7,81.9h.45v1.29h.71v.38h-.71v3.08h-.45v-3.08h-.61v-.38h.61v-1.29Z"></path>
    <path class="cls-2" d="M129.67,81.77c.1,0,.19.04.26.11.07.07.11.16.11.26s-.04.19-.11.26c-.07.07-.16.11-.26.11s-.18-.04-.26-.11c-.07-.07-.11-.16-.11-.26s.04-.19.11-.26c.07-.07.16-.11.26-.11ZM129.45,83.19h.45v3.46h-.45v-3.46Z"></path>
    <path class="cls-2" d="M132.46,83.1c.53,0,.98.19,1.33.58.32.35.48.77.48,1.25s-.17.91-.51,1.27c-.34.36-.77.54-1.3.54s-.97-.18-1.3-.54c-.34-.36-.5-.79-.5-1.27s.16-.9.48-1.25c.35-.39.79-.58,1.33-.58ZM132.46,83.54c-.37,0-.69.14-.96.41-.27.27-.4.6-.4.99,0,.25.06.48.18.7.12.22.29.38.49.5.21.12.43.18.68.18s.47-.06.68-.18c.21-.12.37-.29.49-.5.12-.22.18-.45.18-.7,0-.39-.13-.72-.4-.99-.27-.27-.58-.41-.95-.41Z"></path>
    <path class="cls-2" d="M135.09,83.19h.45v.62c.18-.24.38-.42.59-.53.22-.12.45-.18.71-.18s.49.07.69.2.35.31.44.53c.09.22.14.57.14,1.04v1.78h-.45v-1.65c0-.4-.02-.67-.05-.8-.05-.23-.15-.4-.3-.52-.15-.12-.34-.17-.57-.17-.27,0-.51.09-.72.27-.21.18-.35.4-.42.66-.04.17-.06.49-.06.94v1.27h-.45v-3.46Z"></path>
    <path class="cls-2" d="M40.68,94.48v-4.8h.45v1.93c.19-.23.4-.4.63-.51.23-.11.48-.17.76-.17.49,0,.91.18,1.25.53s.52.79.52,1.29-.17.93-.52,1.28-.77.53-1.26.53c-.28,0-.54-.06-.77-.18-.23-.12-.43-.3-.61-.54v.64h-.45ZM42.46,94.14c.25,0,.48-.06.69-.18.21-.12.38-.29.5-.51s.19-.45.19-.7-.06-.48-.19-.7-.29-.4-.5-.52c-.21-.12-.44-.19-.67-.19s-.47.06-.69.19c-.22.12-.39.29-.5.5s-.18.45-.18.71c0,.4.13.74.4,1.01s.59.4.97.4Z"></path>
    <path class="cls-2" d="M44.72,91.01h.47l1.19,2.67,1.16-2.67h.47l-2.07,4.73h-.47l.67-1.53-1.42-3.2Z"></path>
    <path class="cls-2" d="M50.4,89.79h.47v4.68h-.47v-4.68Z"></path>
    <path class="cls-2" d="M51.87,91.01h.45v.62c.18-.24.38-.42.59-.53.22-.12.45-.18.71-.18s.49.07.69.2.35.31.44.53c.09.22.14.57.14,1.04v1.78h-.45v-1.65c0-.4-.02-.67-.05-.8-.05-.23-.15-.4-.3-.52-.15-.12-.34-.17-.57-.17-.27,0-.51.09-.72.27-.21.18-.35.4-.42.66-.04.17-.06.49-.06.94v1.27h-.45v-3.46Z"></path>
    <path class="cls-2" d="M56.23,89.73h.45v1.29h.71v.38h-.71v3.08h-.45v-3.08h-.61v-.38h.61v-1.29Z"></path>
    <path class="cls-2" d="M60.97,93.33l.38.2c-.12.24-.27.44-.43.58s-.34.26-.54.34c-.2.08-.43.12-.68.12-.56,0-1.01-.18-1.33-.55-.32-.37-.48-.79-.48-1.26,0-.44.13-.83.4-1.17.34-.44.8-.66,1.37-.66s1.06.22,1.41.67c.25.32.38.71.38,1.18h-3.12c0,.4.14.73.39.99.25.26.56.39.92.39.18,0,.35-.03.51-.09.17-.06.31-.14.42-.24.12-.1.24-.27.38-.49ZM60.97,92.4c-.06-.24-.15-.43-.26-.57-.11-.14-.26-.26-.45-.34s-.38-.13-.59-.13c-.34,0-.63.11-.88.33-.18.16-.31.4-.4.72h2.58Z"></path>
    <path class="cls-2" d="M62.12,91.01h.46v.51c.14-.2.28-.35.43-.45.15-.1.31-.15.47-.15.12,0,.25.04.39.12l-.23.38c-.09-.04-.17-.06-.24-.06-.15,0-.29.06-.43.18-.14.12-.24.31-.32.57-.05.2-.08.6-.08,1.2v1.17h-.46v-3.46Z"></path>
    <path class="cls-2" d="M64.25,91.01h.45v.62c.18-.24.38-.42.59-.53.22-.12.45-.18.71-.18s.49.07.69.2.35.31.44.53c.09.22.14.57.14,1.04v1.78h-.45v-1.65c0-.4-.02-.67-.05-.8-.05-.23-.15-.4-.3-.52-.15-.12-.34-.17-.57-.17-.27,0-.51.09-.72.27-.21.18-.35.4-.42.66-.04.17-.06.49-.06.94v1.27h-.45v-3.46Z"></path>
    <path class="cls-2" d="M71.68,91.01v3.46h-.44v-.59c-.19.23-.4.4-.63.51-.23.12-.49.17-.76.17-.49,0-.91-.18-1.25-.53-.35-.36-.52-.79-.52-1.3s.17-.92.52-1.28c.35-.35.77-.53,1.26-.53.28,0,.54.06.77.18.23.12.43.3.61.54v-.64h.44ZM69.9,91.35c-.25,0-.48.06-.69.18s-.38.29-.5.51c-.12.22-.19.45-.19.7s.06.48.19.7.29.4.5.52c.21.12.44.19.68.19s.47-.06.69-.18c.22-.12.39-.29.5-.5.12-.21.18-.45.18-.71,0-.4-.13-.74-.4-1-.26-.27-.59-.4-.97-.4Z"></path>
    <path class="cls-2" d="M73.07,89.73h.45v1.29h.71v.38h-.71v3.08h-.45v-3.08h-.61v-.38h.61v-1.29Z"></path>
    <path class="cls-2" d="M75.04,89.59c.1,0,.19.04.26.11.07.07.11.16.11.26s-.04.19-.11.26c-.07.07-.16.11-.26.11s-.18-.04-.26-.11c-.07-.07-.11-.16-.11-.26s.04-.19.11-.26c.07-.07.16-.11.26-.11ZM74.82,91.01h.45v3.46h-.45v-3.46Z"></path>
    <path class="cls-2" d="M77.83,90.92c.53,0,.98.19,1.33.58.32.35.48.77.48,1.25s-.17.91-.51,1.27c-.34.36-.77.54-1.3.54s-.97-.18-1.3-.54c-.34-.36-.5-.79-.5-1.27s.16-.9.48-1.25c.35-.39.79-.58,1.33-.58ZM77.83,91.36c-.37,0-.69.14-.96.41-.27.27-.4.6-.4.99,0,.25.06.48.18.7.12.22.29.38.49.5.21.12.43.18.68.18s.47-.06.68-.18c.21-.12.37-.29.49-.5.12-.22.18-.45.18-.7,0-.39-.13-.72-.4-.99-.27-.27-.58-.41-.95-.41Z"></path>
    <path class="cls-2" d="M80.46,91.01h.45v.62c.18-.24.38-.42.59-.53.22-.12.45-.18.71-.18s.49.07.69.2.35.31.44.53c.09.22.14.57.14,1.04v1.78h-.45v-1.65c0-.4-.02-.67-.05-.8-.05-.23-.15-.4-.3-.52-.15-.12-.34-.17-.57-.17-.27,0-.51.09-.72.27-.21.18-.35.4-.42.66-.04.17-.06.49-.06.94v1.27h-.45v-3.46Z"></path>
    <path class="cls-2" d="M87.88,91.01v3.46h-.44v-.59c-.19.23-.4.4-.63.51-.23.12-.49.17-.76.17-.49,0-.91-.18-1.25-.53-.35-.36-.52-.79-.52-1.3s.17-.92.52-1.28c.35-.35.77-.53,1.26-.53.28,0,.54.06.77.18.23.12.43.3.61.54v-.64h.44ZM86.1,91.35c-.25,0-.48.06-.69.18s-.38.29-.5.51c-.12.22-.19.45-.19.7s.06.48.19.7.29.4.5.52c.21.12.44.19.68.19s.47-.06.69-.18c.22-.12.39-.29.5-.5.12-.21.18-.45.18-.71,0-.4-.13-.74-.4-1-.26-.27-.59-.4-.97-.4Z"></path>
    <path class="cls-2" d="M88.82,89.68h.45v4.8h-.45v-4.8Z"></path>
    <path class="cls-2" d="M96.59,90.58l-.36.34c-.26-.26-.55-.45-.86-.58s-.61-.2-.91-.2c-.37,0-.72.09-1.05.27s-.59.42-.77.73c-.18.31-.27.64-.27.98s.09.69.28,1c.19.32.45.57.78.75.33.18.7.27,1.09.27.48,0,.89-.14,1.22-.41s.53-.62.59-1.06h-1.49v-.45h2.02c0,.72-.22,1.3-.64,1.72s-1,.64-1.71.64c-.87,0-1.55-.29-2.06-.88-.39-.45-.58-.98-.58-1.58,0-.44.11-.86.33-1.24.22-.38.53-.68.92-.9.39-.21.83-.32,1.32-.32.4,0,.77.07,1.12.21.35.14.69.37,1.02.69Z"></path>
    <path class="cls-2" d="M100.6,93.33l.38.2c-.12.24-.27.44-.43.58s-.34.26-.54.34c-.2.08-.43.12-.68.12-.56,0-1.01-.18-1.33-.55-.32-.37-.48-.79-.48-1.26,0-.44.13-.83.4-1.17.34-.44.8-.66,1.37-.66s1.06.22,1.41.67c.25.32.38.71.38,1.18h-3.12c0,.4.14.73.39.99.25.26.56.39.92.39.18,0,.35-.03.51-.09.17-.06.31-.14.42-.24.12-.1.24-.27.38-.49ZM100.6,92.4c-.06-.24-.15-.43-.26-.57-.11-.14-.26-.26-.45-.34s-.38-.13-.59-.13c-.34,0-.63.11-.88.33-.18.16-.31.4-.4.72h2.58Z"></path>
    <path class="cls-2" d="M101.92,91.01h.45v.6c.16-.22.31-.38.48-.48.22-.14.46-.2.71-.2.17,0,.33.03.48.1.15.07.27.15.37.26.1.11.18.27.25.47.15-.27.33-.48.56-.62.22-.14.46-.21.72-.21.24,0,.45.06.63.18.18.12.32.29.41.51.09.22.13.54.13.97v1.89h-.46v-1.89c0-.37-.03-.63-.08-.77-.05-.14-.14-.25-.27-.34-.13-.08-.28-.13-.46-.13-.22,0-.41.06-.59.19-.18.13-.31.3-.39.51-.08.21-.12.57-.12,1.06v1.36h-.45v-1.77c0-.42-.03-.7-.08-.85-.05-.15-.14-.27-.27-.36-.13-.09-.28-.14-.46-.14-.21,0-.4.06-.58.19-.18.12-.31.29-.4.5s-.13.53-.13.96v1.47h-.45v-3.46Z"></path>
    <path class="cls-2" d="M109.67,90.92c.53,0,.98.19,1.33.58.32.35.48.77.48,1.25s-.17.91-.51,1.27c-.34.36-.77.54-1.3.54s-.97-.18-1.3-.54c-.34-.36-.5-.79-.5-1.27s.16-.9.48-1.25c.35-.39.79-.58,1.33-.58ZM109.67,91.36c-.37,0-.69.14-.96.41-.27.27-.4.6-.4.99,0,.25.06.48.18.7.12.22.29.38.49.5.21.12.43.18.68.18s.47-.06.68-.18c.21-.12.37-.29.49-.5.12-.22.18-.45.18-.7,0-.39-.13-.72-.4-.99-.27-.27-.58-.41-.95-.41Z"></path>
    <path class="cls-2" d="M112.23,89.68h.45v4.8h-.45v-4.8Z"></path>
    <path class="cls-2" d="M115.24,90.92c.53,0,.98.19,1.33.58.32.35.48.77.48,1.25s-.17.91-.51,1.27c-.34.36-.77.54-1.3.54s-.97-.18-1.3-.54c-.34-.36-.5-.79-.5-1.27s.16-.9.48-1.25c.35-.39.79-.58,1.33-.58ZM115.24,91.36c-.37,0-.69.14-.96.41-.27.27-.4.6-.4.99,0,.25.06.48.18.7.12.22.29.38.49.5.21.12.43.18.68.18s.47-.06.68-.18c.21-.12.37-.29.49-.5.12-.22.18-.45.18-.7,0-.39-.13-.72-.4-.99-.27-.27-.58-.41-.95-.41Z"></path>
    <path class="cls-2" d="M120.86,91.01h.45v2.76c0,.49-.04.84-.13,1.07-.12.32-.32.56-.61.73-.29.17-.64.26-1.04.26-.3,0-.56-.04-.8-.13-.24-.08-.43-.2-.58-.34s-.29-.35-.41-.62h.48c.13.23.3.4.51.51s.47.17.77.17.56-.06.77-.17.36-.25.45-.43c.09-.17.13-.45.13-.83v-.18c-.17.21-.37.38-.61.49-.24.11-.5.17-.77.17-.32,0-.62-.08-.9-.24s-.5-.37-.65-.64c-.15-.27-.23-.56-.23-.88s.08-.62.24-.9c.16-.28.38-.5.66-.66.28-.16.58-.24.89-.24.26,0,.5.05.73.16.22.11.44.28.65.53v-.6ZM119.54,91.35c-.25,0-.49.06-.7.18-.22.12-.39.29-.51.51-.12.22-.18.45-.18.7,0,.38.13.69.38.94.25.25.58.37.99.37s.74-.12.99-.37c.25-.25.37-.57.37-.97,0-.26-.06-.49-.17-.7-.11-.2-.28-.37-.49-.49-.21-.12-.44-.18-.68-.18Z"></path>
    <path class="cls-2" d="M122.41,89.59c.1,0,.19.04.26.11.07.07.11.16.11.26s-.04.19-.11.26c-.07.07-.16.11-.26.11s-.18-.04-.26-.11c-.07-.07-.11-.16-.11-.26s.04-.19.11-.26c.07-.07.16-.11.26-.11ZM122.19,91.01h.45v3.46h-.45v-3.46Z"></path>
    <path class="cls-2" d="M126.92,91.73l-.35.22c-.3-.41-.72-.61-1.25-.61-.42,0-.77.14-1.05.41s-.42.6-.42.99c0,.25.06.49.19.71.13.22.3.4.53.52s.47.18.75.18c.51,0,.92-.2,1.25-.61l.35.23c-.17.25-.39.44-.67.58-.28.14-.6.21-.95.21-.55,0-1-.17-1.36-.52-.36-.35-.54-.77-.54-1.27,0-.33.08-.65.25-.93.17-.29.4-.51.7-.67.29-.16.62-.24.99-.24.23,0,.45.04.66.1.21.07.39.16.54.27s.28.26.38.43Z"></path>
    <path class="cls-2" d="M131.23,91.01v3.46h-.44v-.59c-.19.23-.4.4-.63.51-.23.12-.49.17-.76.17-.49,0-.91-.18-1.25-.53-.35-.36-.52-.79-.52-1.3s.17-.92.52-1.28c.35-.35.77-.53,1.26-.53.28,0,.54.06.77.18.23.12.43.3.61.54v-.64h.44ZM129.45,91.35c-.25,0-.48.06-.69.18s-.38.29-.5.51c-.12.22-.19.45-.19.7s.06.48.19.7.29.4.5.52c.21.12.44.19.68.19s.47-.06.69-.18c.22-.12.39-.29.5-.5.12-.21.18-.45.18-.71,0-.4-.13-.74-.4-1-.26-.27-.59-.4-.97-.4Z"></path>
    <path class="cls-2" d="M132.17,89.68h.45v4.8h-.45v-4.8Z"></path>
    <path class="cls-2" d="M68.52,97.62h.47v4.23h1.8v.45h-2.27v-4.68Z"></path>
    <path class="cls-2" d="M74.91,98.83v3.46h-.44v-.59c-.19.23-.4.4-.63.51-.23.12-.49.17-.76.17-.49,0-.91-.18-1.25-.53-.35-.36-.52-.79-.52-1.3s.17-.92.52-1.28c.35-.35.77-.53,1.26-.53.28,0,.54.06.77.18.23.12.43.3.61.54v-.64h.44ZM73.13,99.18c-.25,0-.48.06-.69.18s-.38.29-.5.51c-.12.22-.19.45-.19.7s.06.48.19.7.29.4.5.52c.21.12.44.19.68.19s.47-.06.69-.18c.22-.12.39-.29.5-.5.12-.21.18-.45.18-.71,0-.4-.13-.74-.4-1-.26-.27-.59-.4-.97-.4Z"></path>
    <path class="cls-2" d="M75.94,102.3v-4.8h.45v1.93c.19-.23.4-.4.63-.51.23-.11.48-.17.76-.17.49,0,.91.18,1.25.53s.52.79.52,1.29-.17.93-.52,1.28-.77.53-1.26.53c-.28,0-.54-.06-.77-.18-.23-.12-.43-.3-.61-.54v.64h-.45ZM77.72,101.96c.25,0,.48-.06.69-.18.21-.12.38-.29.5-.51s.19-.45.19-.7-.06-.48-.19-.7-.29-.4-.5-.52c-.21-.12-.44-.19-.67-.19s-.47.06-.69.19c-.22.12-.39.29-.5.5s-.18.45-.18.71c0,.4.13.74.4,1.01s.59.4.97.4Z"></path>
    <path class="cls-2" d="M82,98.75c.53,0,.98.19,1.33.58.32.35.48.77.48,1.25s-.17.91-.51,1.27c-.34.36-.77.54-1.3.54s-.97-.18-1.3-.54c-.34-.36-.5-.79-.5-1.27s.16-.9.48-1.25c.35-.39.79-.58,1.33-.58ZM81.99,99.18c-.37,0-.69.14-.96.41-.27.27-.4.6-.4.99,0,.25.06.48.18.7.12.22.29.38.49.5.21.12.43.18.68.18s.47-.06.68-.18c.21-.12.37-.29.49-.5.12-.22.18-.45.18-.7,0-.39-.13-.72-.4-.99-.27-.27-.58-.41-.95-.41Z"></path>
    <path class="cls-2" d="M84.46,98.83h.46v.51c.14-.2.28-.35.43-.45.15-.1.31-.15.47-.15.12,0,.25.04.39.12l-.23.38c-.09-.04-.17-.06-.24-.06-.15,0-.29.06-.43.18-.14.12-.24.31-.32.57-.05.2-.08.6-.08,1.2v1.17h-.46v-3.46Z"></path>
    <path class="cls-2" d="M90.04,98.83v3.46h-.44v-.59c-.19.23-.4.4-.63.51-.23.12-.49.17-.76.17-.49,0-.91-.18-1.25-.53-.35-.36-.52-.79-.52-1.3s.17-.92.52-1.28c.35-.35.77-.53,1.26-.53.28,0,.54.06.77.18.23.12.43.3.61.54v-.64h.44ZM88.25,99.18c-.25,0-.48.06-.69.18s-.38.29-.5.51c-.12.22-.19.45-.19.7s.06.48.19.7.29.4.5.52c.21.12.44.19.68.19s.47-.06.69-.18c.22-.12.39-.29.5-.5.12-.21.18-.45.18-.71,0-.4-.13-.74-.4-1-.26-.27-.59-.4-.97-.4Z"></path>
    <path class="cls-2" d="M91.43,97.55h.45v1.29h.71v.38h-.71v3.08h-.45v-3.08h-.61v-.38h.61v-1.29Z"></path>
    <path class="cls-2" d="M94.89,98.75c.53,0,.98.19,1.33.58.32.35.48.77.48,1.25s-.17.91-.51,1.27c-.34.36-.77.54-1.3.54s-.97-.18-1.3-.54c-.34-.36-.5-.79-.5-1.27s.16-.9.48-1.25c.35-.39.79-.58,1.33-.58ZM94.88,99.18c-.37,0-.69.14-.96.41-.27.27-.4.6-.4.99,0,.25.06.48.18.7.12.22.29.38.49.5.21.12.43.18.68.18s.47-.06.68-.18c.21-.12.37-.29.49-.5.12-.22.18-.45.18-.7,0-.39-.13-.72-.4-.99-.27-.27-.58-.41-.95-.41Z"></path>
    <path class="cls-2" d="M97.35,98.83h.46v.51c.14-.2.28-.35.43-.45.15-.1.31-.15.47-.15.12,0,.25.04.39.12l-.23.38c-.09-.04-.17-.06-.24-.06-.15,0-.29.06-.43.18-.14.12-.24.31-.32.57-.05.2-.08.6-.08,1.2v1.17h-.46v-3.46Z"></path>
    <path class="cls-2" d="M99.63,97.41c.1,0,.19.04.26.11.07.07.11.16.11.26s-.04.19-.11.26c-.07.07-.16.11-.26.11s-.18-.04-.26-.11c-.07-.07-.11-.16-.11-.26s.04-.19.11-.26c.07-.07.16-.11.26-.11ZM99.41,98.83h.45v3.46h-.45v-3.46Z"></path>
    <path class="cls-2" d="M103.7,101.15l.38.2c-.12.24-.27.44-.43.58s-.34.26-.54.34c-.2.08-.43.12-.68.12-.56,0-1.01-.18-1.33-.55-.32-.37-.48-.79-.48-1.26,0-.44.13-.83.4-1.17.34-.44.8-.66,1.37-.66s1.06.22,1.41.67c.25.32.38.71.38,1.18h-3.12c0,.4.14.73.39.99.25.26.56.39.92.39.18,0,.35-.03.51-.09.17-.06.31-.14.42-.24.12-.1.24-.27.38-.49ZM103.7,100.22c-.06-.24-.15-.43-.26-.57-.11-.14-.26-.26-.45-.34s-.38-.13-.59-.13c-.34,0-.63.11-.88.33-.18.16-.31.4-.4.72h2.58Z"></path>
    <path class="cls-2" d="M106.76,99.21l-.29.3c-.24-.23-.47-.35-.7-.35-.14,0-.27.05-.37.14-.1.1-.16.21-.16.33,0,.11.04.22.13.32.08.1.26.23.54.37.33.17.56.34.68.5.12.16.17.34.17.54,0,.29-.1.53-.3.72-.2.2-.45.3-.75.3-.2,0-.39-.04-.57-.13s-.33-.21-.45-.36l.28-.32c.23.26.47.39.72.39.18,0,.33-.06.46-.17.13-.12.19-.25.19-.4,0-.13-.04-.24-.12-.34-.08-.1-.27-.22-.56-.37-.31-.16-.53-.32-.64-.48-.11-.16-.17-.34-.17-.54,0-.26.09-.48.27-.66s.41-.26.68-.26c.32,0,.64.16.96.47Z"></path>
  </g>
  <text class="cls-6" transform="translate(63.17 48.59) scale(.84)">
    <tspan x="0" y="0">E</tspan>
    <tspan class="cls-7" x="6.17" y="0">G</tspan>
    <tspan x="14.53" y="0">L</tspan>
  </text>
  <text class="cls-4" transform="translate(68.35 51.92) scale(.84)">
    <tspan x="0" y="0">INDIA</tspan>
  </text>
  <polygon class="cls-3" points="75.35 47.28 77.27 47.28 77.27 48.76 76.31 48.91 75.09 47.87 75.35 47.28"></polygon>
  <polygon class="cls-1" points="77.12 47.42 77.12 48.47 76.63 48.63 75.94 47.93 75.99 47.42 77.12 47.42"></polygon>
  <g>
    <polygon class="cls-8" points="98.49 48.31 104.76 42.4 101.92 40.21 94.65 40.21 91.95 42.38 98.49 48.31"></polygon>
    <polygon class="cls-8" points="98.45 46.8 102.85 42.61 100.86 41.06 95.76 41.06 93.86 42.59 98.45 46.8"></polygon>
    <polygon class="cls-8" points="98.24 45.4 100.87 42.89 99.68 41.96 96.62 41.96 95.49 42.88 98.24 45.4"></polygon>
  </g>
  <polygon class="cls-1" points="96.42 48.76 96.42 51.03 95.49 51.88 95.49 49.54 96.42 48.76"></polygon>
  <polygon class="cls-1" points="97.63 49.4 98.55 48.54 100.34 48.54 99.46 49.4 97.63 49.4"></polygon>
  <polygon class="cls-1" points="97.48 49.49 97.48 51.13 99.41 51.13 98.54 51.88 96.54 51.88 96.54 50.32 97.48 49.49"></polygon>
  <polygon class="cls-1" points="98.63 50.17 99.47 49.49 100.34 49.45 100.34 50.32 99.55 51.05 99.55 50.32 98.63 50.17"></polygon>
  <polygon class="cls-1" points="100.65 49.46 100.65 52.09 101.66 51.08 101.66 48.55 100.65 49.46"></polygon>
  <g>
    <path class="cls-1" d="M93.73,59.32l.6-.51,2.92,1.46-.37,5.2c-.59.74-1.47,1.63-2.72,2.34-.34.19-.66.35-.97.48-1.1-.39-2.49-1.1-3.5-2.47-.1-.14-.2-.28-.29-.43l-.38-5.15,3.02-1.43.56.57-2.8,1.22.14,4.14c.24.45.67,1.14,1.42,1.77.67.57,1.32.88,1.77,1.05,1.36-.58,2.82-1.54,3.2-3.02.01-.05.02-.09.03-.14l.14-3.74-2.79-1.34Z"></path>
    <polygon class="cls-1" points="91.23 62.52 91.77 61.92 94.54 61.92 95.14 62.6 95.54 62.26 94.82 61.4 91.44 61.4 90.76 62.17 91.25 62.6 91.23 62.52"></polygon>
    <polygon class="cls-1" points="91.2 63.13 93.14 64.95 95.08 63.13 95.48 63.5 93.15 65.72 90.76 63.46 91.2 63.13"></polygon>
  </g>
  <text class="cls-5" transform="translate(98.24 66.94) scale(.88 .85)">
    <tspan x="0" y="0">SGL</tspan>
  </text>
</svg>
