<?xml version="1.0" encoding="UTF-8"?>
<svg xmlns="http://www.w3.org/2000/svg" width="175" height="125" viewBox="0 0 175 125" fill="none">
  <path d="M46.8203 83.291H49.1703V83.751H47.2903V85.221H49.1703V85.681H47.2903V87.981H46.8203V83.301V83.291Z" fill="black"></path>
  <path d="M49.7287 84.5099H50.1887V85.0199C50.3287 84.8199 50.4687 84.6699 50.6187 84.5699C50.7687 84.4699 50.9287 84.4199 51.0887 84.4199C51.2087 84.4199 51.3387 84.4599 51.4787 84.5399L51.2487 84.9199C51.1587 84.8799 51.0787 84.8599 51.0087 84.8599C50.8587 84.8599 50.7188 84.9199 50.5788 85.0399C50.4388 85.1599 50.3387 85.3499 50.2587 85.6099C50.2087 85.8099 50.1787 86.2099 50.1787 86.8099V87.9799H49.7188V84.5199L49.7287 84.5099Z" fill="black"></path>
  <path d="M54.7831 86.8199L55.1631 87.0199C55.0431 87.2599 54.8931 87.4599 54.7331 87.5999C54.5731 87.7399 54.3931 87.8599 54.1931 87.9399C53.9931 88.0199 53.7631 88.0599 53.5131 88.0599C52.9531 88.0599 52.5031 87.8799 52.1831 87.5099C51.8631 87.1399 51.7031 86.7199 51.7031 86.2499C51.7031 85.8099 51.8331 85.4199 52.1031 85.0799C52.4431 84.6399 52.9031 84.4199 53.4731 84.4199C54.0431 84.4199 54.5331 84.6399 54.8831 85.0899C55.1331 85.4099 55.2631 85.7999 55.2631 86.2699H52.1431C52.1431 86.6699 52.2831 86.9999 52.5331 87.2599C52.7831 87.5199 53.0931 87.6499 53.4531 87.6499C53.6331 87.6499 53.8031 87.6199 53.9631 87.5599C54.1331 87.4999 54.2731 87.4199 54.3831 87.3199C54.5031 87.2199 54.6231 87.0499 54.7631 86.8299L54.7831 86.8199ZM54.7831 85.8899C54.7231 85.6499 54.6331 85.4599 54.5231 85.3199C54.4131 85.1799 54.2631 85.0599 54.0731 84.9799C53.8831 84.8999 53.6931 84.8499 53.4831 84.8499C53.1431 84.8499 52.8531 84.9599 52.6031 85.1799C52.4231 85.3399 52.2931 85.5799 52.2031 85.8999H54.7831V85.8899Z" fill="black"></path>
  <path d="M59.0175 86.8199L59.3975 87.0199C59.2775 87.2599 59.1275 87.4599 58.9675 87.5999C58.8075 87.7399 58.6275 87.8599 58.4275 87.9399C58.2275 88.0199 57.9975 88.0599 57.7475 88.0599C57.1875 88.0599 56.7375 87.8799 56.4175 87.5099C56.0975 87.1399 55.9375 86.7199 55.9375 86.2499C55.9375 85.8099 56.0675 85.4199 56.3375 85.0799C56.6775 84.6399 57.1375 84.4199 57.7075 84.4199C58.2775 84.4199 58.7675 84.6399 59.1175 85.0899C59.3675 85.4099 59.4975 85.7999 59.4975 86.2699H56.3775C56.3775 86.6699 56.5175 86.9999 56.7675 87.2599C57.0175 87.5199 57.3275 87.6499 57.6875 87.6499C57.8675 87.6499 58.0375 87.6199 58.1975 87.5599C58.3675 87.4999 58.5075 87.4199 58.6175 87.3199C58.7375 87.2199 58.8575 87.0499 58.9975 86.8299L59.0175 86.8199ZM59.0175 85.8899C58.9575 85.6499 58.8675 85.4599 58.7575 85.3199C58.6475 85.1799 58.4975 85.0599 58.3075 84.9799C58.1175 84.8999 57.9275 84.8499 57.7175 84.8499C57.3775 84.8499 57.0875 84.9599 56.8375 85.1799C56.6575 85.3399 56.5275 85.5799 56.4375 85.8999H59.0175V85.8899Z" fill="black"></path>
  <path d="M65.5922 84.5099V87.9699H65.1522V87.3799C64.9622 87.6099 64.7522 87.7799 64.5222 87.8899C64.2922 88.0099 64.0322 88.0599 63.7622 88.0599C63.2722 88.0599 62.8522 87.8799 62.5122 87.5299C62.1622 87.1699 61.9922 86.7399 61.9922 86.2299C61.9922 85.7199 62.1622 85.3099 62.5122 84.9499C62.8622 84.5999 63.2822 84.4199 63.7722 84.4199C64.0522 84.4199 64.3122 84.4799 64.5422 84.5999C64.7722 84.7199 64.9722 84.8999 65.1522 85.1399V84.4999H65.5922V84.5099ZM63.8122 84.8499C63.5622 84.8499 63.3322 84.9099 63.1222 85.0299C62.9122 85.1499 62.7422 85.3199 62.6222 85.5399C62.5022 85.7599 62.4322 85.9899 62.4322 86.2399C62.4322 86.4899 62.4922 86.7199 62.6222 86.9399C62.7522 87.1599 62.9122 87.3399 63.1222 87.4599C63.3322 87.5799 63.5622 87.6499 63.8022 87.6499C64.0422 87.6499 64.2722 87.5899 64.4922 87.4699C64.7122 87.3499 64.8822 87.1799 64.9922 86.9699C65.1122 86.7599 65.1722 86.5199 65.1722 86.2599C65.1722 85.8599 65.0422 85.5199 64.7722 85.2599C64.5122 84.9899 64.1822 84.8599 63.8022 84.8599L63.8122 84.8499Z" fill="black"></path>
  <path d="M66.5938 84.5099H67.0438V85.1299C67.2238 84.8899 67.4238 84.7099 67.6338 84.5999C67.8538 84.4799 68.0838 84.4199 68.3438 84.4199C68.6037 84.4199 68.8338 84.4899 69.0338 84.6199C69.2338 84.7499 69.3838 84.9299 69.4738 85.1499C69.5638 85.3699 69.6138 85.7199 69.6138 86.1899V87.9699H69.1638V86.3199C69.1638 85.9199 69.1438 85.6499 69.1138 85.5199C69.0638 85.2899 68.9638 85.1199 68.8138 84.9999C68.6638 84.8799 68.4738 84.8299 68.2438 84.8299C67.9738 84.8299 67.7338 84.9199 67.5238 85.0999C67.3138 85.2799 67.1738 85.4999 67.1038 85.7599C67.0638 85.9299 67.0438 86.2499 67.0438 86.6999V87.9699H66.5938V84.5099Z" fill="black"></path>
  <path d="M74.0319 83.1699V87.9699H73.5919V87.3799C73.4019 87.6099 73.1919 87.7799 72.9619 87.8899C72.7319 88.0099 72.4719 88.0599 72.2019 88.0599C71.7119 88.0599 71.2919 87.8799 70.9419 87.5299C70.5919 87.1799 70.4219 86.7399 70.4219 86.2299C70.4219 85.7199 70.5919 85.3099 70.9519 84.9499C71.3019 84.5999 71.7219 84.4199 72.2119 84.4199C72.4919 84.4199 72.7519 84.4799 72.9819 84.5999C73.2119 84.7199 73.4119 84.8999 73.5919 85.1399V83.1699H74.0319ZM72.2419 84.8499C71.9919 84.8499 71.7619 84.9099 71.5519 85.0299C71.3419 85.1499 71.1719 85.3199 71.0519 85.5399C70.9319 85.7599 70.8619 85.9899 70.8619 86.2399C70.8619 86.4899 70.9219 86.7199 71.0519 86.9399C71.1819 87.1599 71.3419 87.3399 71.5519 87.4599C71.7619 87.5799 71.9919 87.6499 72.2319 87.6499C72.4719 87.6499 72.7019 87.5899 72.9219 87.4699C73.1419 87.3499 73.3119 87.1799 73.4219 86.9699C73.5419 86.7599 73.6019 86.5199 73.6019 86.2599C73.6019 85.8599 73.4719 85.5199 73.2019 85.2599C72.9419 84.9899 72.6119 84.8599 72.2319 84.8599L72.2419 84.8499Z" fill="black"></path>
  <path d="M76.9872 83.0801C77.0872 83.0801 77.1772 83.1201 77.2472 83.1901C77.3172 83.2601 77.3572 83.3501 77.3572 83.4501C77.3572 83.5501 77.3172 83.6401 77.2472 83.7101C77.1772 83.7801 77.0872 83.8201 76.9872 83.8201C76.8872 83.8201 76.8072 83.7801 76.7272 83.7101C76.6572 83.6401 76.6172 83.5501 76.6172 83.4501C76.6172 83.3501 76.6572 83.2601 76.7272 83.1901C76.7972 83.1201 76.8872 83.0801 76.9872 83.0801ZM76.7672 84.5101H77.2172V87.9701H76.7672V84.5101Z" fill="black"></path>
  <path d="M78.1406 84.5099H78.5906V85.1299C78.7706 84.8899 78.9706 84.7099 79.1806 84.5999C79.4006 84.4799 79.6306 84.4199 79.8906 84.4199C80.1506 84.4199 80.3806 84.4899 80.5806 84.6199C80.7806 84.7499 80.9306 84.9299 81.0206 85.1499C81.1106 85.3699 81.1606 85.7199 81.1606 86.1899V87.9699H80.7106V86.3199C80.7106 85.9199 80.6906 85.6499 80.6606 85.5199C80.6106 85.2899 80.5106 85.1199 80.3606 84.9999C80.2106 84.8799 80.0206 84.8299 79.7906 84.8299C79.5206 84.8299 79.2806 84.9199 79.0706 85.0999C78.8606 85.2799 78.7206 85.4999 78.6506 85.7599C78.6106 85.9299 78.5906 86.2499 78.5906 86.6999V87.9699H78.1406V84.5099Z" fill="black"></path>
  <path d="M83.8591 84.8899L83.5691 85.1899C83.3291 84.9599 83.0991 84.8399 82.8691 84.8399C82.7291 84.8399 82.5991 84.8899 82.4991 84.9799C82.3991 85.0799 82.3391 85.1899 82.3391 85.3099C82.3391 85.4199 82.3791 85.5299 82.4691 85.6299C82.5491 85.7299 82.7291 85.8599 83.0091 85.9999C83.3391 86.1699 83.5691 86.3399 83.6891 86.4999C83.8091 86.6599 83.8591 86.8399 83.8591 87.0399C83.8591 87.3299 83.7591 87.5699 83.5591 87.7599C83.3591 87.9599 83.1091 88.0599 82.8091 88.0599C82.6091 88.0599 82.4191 88.0199 82.2391 87.9299C82.0591 87.8399 81.9091 87.7199 81.7891 87.5699L82.0691 87.2499C82.2991 87.5099 82.5391 87.6399 82.7891 87.6399C82.9691 87.6399 83.1191 87.5799 83.2491 87.4699C83.3791 87.3499 83.4391 87.2199 83.4391 87.0699C83.4391 86.9399 83.3991 86.8299 83.3191 86.7299C83.2391 86.6299 83.0491 86.5099 82.7591 86.3599C82.4491 86.1999 82.2291 86.0399 82.1191 85.8799C82.0091 85.7199 81.9491 85.5399 81.9491 85.3399C81.9491 85.0799 82.0391 84.8599 82.2191 84.6799C82.3991 84.4999 82.6291 84.4199 82.8991 84.4199C83.2191 84.4199 83.5391 84.5799 83.8591 84.8899Z" fill="black"></path>
  <path d="M84.5938 84.51H85.0438V86.13C85.0438 86.52 85.0638 86.8 85.1038 86.94C85.1638 87.15 85.2938 87.32 85.4738 87.44C85.6538 87.56 85.8638 87.62 86.1138 87.62C86.3638 87.62 86.5738 87.56 86.7438 87.44C86.9138 87.32 87.0338 87.16 87.1038 86.97C87.1438 86.84 87.1738 86.55 87.1738 86.12V84.5H87.6338V86.2C87.6338 86.68 87.5738 87.04 87.4638 87.28C87.3538 87.52 87.1838 87.71 86.9638 87.85C86.7438 87.99 86.4638 88.06 86.1238 88.06C85.7838 88.06 85.5038 87.99 85.2838 87.85C85.0638 87.71 84.8938 87.52 84.7738 87.28C84.6538 87.04 84.6038 86.67 84.6038 86.17V84.5L84.5938 84.51Z" fill="black"></path>
  <path d="M88.4397 84.5099H88.8997V85.0199C89.0397 84.8199 89.1797 84.6699 89.3297 84.5699C89.4797 84.4699 89.6397 84.4199 89.7997 84.4199C89.9197 84.4199 90.0497 84.4599 90.1897 84.5399L89.9597 84.9199C89.8697 84.8799 89.7897 84.8599 89.7197 84.8599C89.5697 84.8599 89.4297 84.9199 89.2897 85.0399C89.1497 85.1599 89.0497 85.3499 88.9697 85.6099C88.9197 85.8099 88.8897 86.2099 88.8897 86.8099V87.9799H88.4297V84.5199L88.4397 84.5099Z" fill="black"></path>
  <path d="M93.4941 86.8199L93.8741 87.0199C93.7541 87.2599 93.6041 87.4599 93.4441 87.5999C93.2841 87.7399 93.1041 87.8599 92.9041 87.9399C92.7041 88.0199 92.4741 88.0599 92.2241 88.0599C91.6641 88.0599 91.2141 87.8799 90.8941 87.5099C90.5741 87.1399 90.4141 86.7199 90.4141 86.2499C90.4141 85.8099 90.5441 85.4199 90.8141 85.0799C91.1541 84.6399 91.6141 84.4199 92.1841 84.4199C92.7541 84.4199 93.2441 84.6399 93.5941 85.0899C93.8441 85.4099 93.9741 85.7999 93.9741 86.2699H90.8541C90.8541 86.6699 90.9941 86.9999 91.2441 87.2599C91.4941 87.5199 91.8041 87.6499 92.1641 87.6499C92.3441 87.6499 92.5141 87.6199 92.6741 87.5599C92.8441 87.4999 92.9841 87.4199 93.0941 87.3199C93.2141 87.2199 93.3341 87.0499 93.4741 86.8299L93.4941 86.8199ZM93.4941 85.8899C93.4341 85.6499 93.3441 85.4599 93.2341 85.3199C93.1241 85.1799 92.9741 85.0599 92.7841 84.9799C92.5941 84.8999 92.4041 84.8499 92.1941 84.8499C91.8541 84.8499 91.5641 84.9599 91.3141 85.1799C91.1341 85.3399 91.0041 85.5799 90.9141 85.8999H93.4941V85.8899Z" fill="black"></path>
  <path d="M98.2584 83.1699V87.9699H97.8184V87.3799C97.6284 87.6099 97.4184 87.7799 97.1884 87.8899C96.9584 88.0099 96.6984 88.0599 96.4284 88.0599C95.9384 88.0599 95.5184 87.8799 95.1684 87.5299C94.8184 87.1799 94.6484 86.7399 94.6484 86.2299C94.6484 85.7199 94.8184 85.3099 95.1784 84.9499C95.5284 84.5999 95.9484 84.4199 96.4384 84.4199C96.7184 84.4199 96.9784 84.4799 97.2084 84.5999C97.4384 84.7199 97.6384 84.8999 97.8184 85.1399V83.1699H98.2584ZM96.4784 84.8499C96.2284 84.8499 95.9984 84.9099 95.7884 85.0299C95.5784 85.1499 95.4084 85.3199 95.2884 85.5399C95.1684 85.7599 95.0984 85.9899 95.0984 86.2399C95.0984 86.4899 95.1584 86.7199 95.2884 86.9399C95.4184 87.1599 95.5784 87.3399 95.7884 87.4599C95.9984 87.5799 96.2284 87.6499 96.4684 87.6499C96.7084 87.6499 96.9384 87.5899 97.1584 87.4699C97.3784 87.3499 97.5484 87.1799 97.6584 86.9699C97.7784 86.7599 97.8384 86.5199 97.8384 86.2599C97.8384 85.8599 97.7084 85.5199 97.4384 85.2599C97.1784 84.9899 96.8484 84.8599 96.4684 84.8599L96.4784 84.8499Z" fill="black"></path>
  <path d="M102.82 84.8899L102.53 85.1899C102.29 84.9599 102.06 84.8399 101.83 84.8399C101.69 84.8399 101.56 84.8899 101.46 84.9799C101.36 85.0799 101.3 85.1899 101.3 85.3099C101.3 85.4199 101.34 85.5299 101.43 85.6299C101.51 85.7299 101.69 85.8599 101.97 85.9999C102.3 86.1699 102.53 86.3399 102.65 86.4999C102.77 86.6599 102.82 86.8399 102.82 87.0399C102.82 87.3299 102.72 87.5699 102.52 87.7599C102.32 87.9599 102.07 88.0599 101.77 88.0599C101.57 88.0599 101.38 88.0199 101.2 87.9299C101.02 87.8399 100.87 87.7199 100.75 87.5699L101.03 87.2499C101.26 87.5099 101.5 87.6399 101.75 87.6399C101.93 87.6399 102.08 87.5799 102.21 87.4699C102.34 87.3499 102.4 87.2199 102.4 87.0699C102.4 86.9399 102.36 86.8299 102.28 86.7299C102.2 86.6299 102.01 86.5099 101.72 86.3599C101.41 86.1999 101.19 86.0399 101.08 85.8799C100.97 85.7199 100.91 85.5399 100.91 85.3399C100.91 85.0799 101 84.8599 101.18 84.6799C101.36 84.4999 101.59 84.4199 101.86 84.4199C102.18 84.4199 102.5 84.5799 102.82 84.8899Z" fill="black"></path>
  <path d="M103.612 83.1699H104.062V85.1299C104.242 84.8899 104.442 84.7099 104.652 84.5999C104.872 84.4799 105.102 84.4199 105.352 84.4199C105.602 84.4199 105.842 84.4899 106.042 84.6199C106.242 84.7499 106.392 84.9299 106.482 85.1499C106.572 85.3699 106.622 85.7199 106.622 86.1899V87.9699H106.172V86.3199C106.172 85.9199 106.152 85.6499 106.122 85.5199C106.072 85.2899 105.962 85.1199 105.822 84.9999C105.672 84.8799 105.482 84.8299 105.252 84.8299C104.982 84.8299 104.742 84.9199 104.532 85.0999C104.322 85.2799 104.182 85.4999 104.112 85.7599C104.072 85.9299 104.052 86.2399 104.052 86.6999V87.9699H103.602V83.1699H103.612Z" fill="black"></path>
  <path d="M107.737 83.0801C107.837 83.0801 107.927 83.1201 107.997 83.1901C108.067 83.2601 108.107 83.3501 108.107 83.4501C108.107 83.5501 108.067 83.6401 107.997 83.7101C107.927 83.7801 107.837 83.8201 107.737 83.8201C107.637 83.8201 107.557 83.7801 107.477 83.7101C107.407 83.6401 107.367 83.5501 107.367 83.4501C107.367 83.3501 107.407 83.2601 107.477 83.1901C107.547 83.1201 107.637 83.0801 107.737 83.0801ZM107.517 84.5101H107.967V87.9701H107.517V84.5101Z" fill="black"></path>
  <path d="M108.891 84.5097H109.341V85.1497C109.521 84.9097 109.721 84.7297 109.951 84.6097C110.181 84.4897 110.431 84.4297 110.721 84.4297C111.211 84.4297 111.631 84.6097 111.981 84.9597C112.331 85.3097 112.501 85.7397 112.501 86.2397C112.501 86.7397 112.331 87.1797 111.981 87.5397C111.631 87.8997 111.221 88.0697 110.731 88.0697C110.451 88.0697 110.201 88.0097 109.971 87.8997C109.741 87.7897 109.531 87.6097 109.341 87.3897V89.2497H108.891V84.5197V84.5097ZM110.681 84.8497C110.291 84.8497 109.971 84.9797 109.711 85.2497C109.451 85.5197 109.321 85.8497 109.321 86.2497C109.321 86.5097 109.381 86.7497 109.501 86.9597C109.621 87.1697 109.791 87.3397 110.001 87.4597C110.211 87.5797 110.451 87.6397 110.691 87.6397C110.931 87.6397 111.151 87.5797 111.361 87.4497C111.571 87.3297 111.741 87.1497 111.861 86.9297C111.981 86.7097 112.051 86.4697 112.051 86.2297C112.051 85.9897 111.991 85.7497 111.861 85.5297C111.741 85.3097 111.571 85.1397 111.361 85.0197C111.151 84.8997 110.921 84.8397 110.671 84.8397L110.681 84.8497Z" fill="black"></path>
  <path d="M113.344 84.5097H113.794V85.1497C113.974 84.9097 114.174 84.7297 114.404 84.6097C114.634 84.4897 114.884 84.4297 115.174 84.4297C115.664 84.4297 116.084 84.6097 116.434 84.9597C116.784 85.3097 116.954 85.7397 116.954 86.2397C116.954 86.7397 116.784 87.1797 116.434 87.5397C116.084 87.8997 115.674 88.0697 115.184 88.0697C114.904 88.0697 114.654 88.0097 114.424 87.8997C114.194 87.7897 113.984 87.6097 113.794 87.3897V89.2497H113.344V84.5197V84.5097ZM115.124 84.8497C114.734 84.8497 114.414 84.9797 114.154 85.2497C113.894 85.5197 113.764 85.8497 113.764 86.2497C113.764 86.5097 113.824 86.7497 113.944 86.9597C114.064 87.1697 114.234 87.3397 114.444 87.4597C114.654 87.5797 114.894 87.6397 115.134 87.6397C115.374 87.6397 115.594 87.5797 115.804 87.4497C116.014 87.3297 116.184 87.1497 116.304 86.9297C116.424 86.7097 116.494 86.4697 116.494 86.2297C116.494 85.9897 116.434 85.7497 116.304 85.5297C116.184 85.3097 116.014 85.1397 115.804 85.0197C115.594 84.8997 115.364 84.8397 115.114 84.8397L115.124 84.8497Z" fill="black"></path>
  <path d="M117.933 83.0801C118.033 83.0801 118.123 83.1201 118.193 83.1901C118.263 83.2601 118.303 83.3501 118.303 83.4501C118.303 83.5501 118.263 83.6401 118.193 83.7101C118.123 83.7801 118.033 83.8201 117.933 83.8201C117.833 83.8201 117.753 83.7801 117.673 83.7101C117.603 83.6401 117.562 83.5501 117.562 83.4501C117.562 83.3501 117.603 83.2601 117.673 83.1901C117.743 83.1201 117.833 83.0801 117.933 83.0801ZM117.713 84.5101H118.163V87.9701H117.713V84.5101Z" fill="black"></path>
  <path d="M119.078 84.5099H119.528V85.1299C119.708 84.8899 119.908 84.7099 120.118 84.5999C120.338 84.4799 120.568 84.4199 120.828 84.4199C121.088 84.4199 121.318 84.4899 121.518 84.6199C121.718 84.7499 121.868 84.9299 121.958 85.1499C122.048 85.3699 122.098 85.7199 122.098 86.1899V87.9699H121.648V86.3199C121.648 85.9199 121.628 85.6499 121.598 85.5199C121.548 85.2899 121.448 85.1199 121.298 84.9999C121.148 84.8799 120.958 84.8299 120.728 84.8299C120.458 84.8299 120.218 84.9199 120.008 85.0999C119.798 85.2799 119.658 85.4999 119.588 85.7599C119.548 85.9299 119.528 86.2499 119.528 86.6999V87.9699H119.078V84.5099Z" fill="black"></path>
  <path d="M126.053 84.5102H126.503V87.2701C126.503 87.7601 126.463 88.1101 126.373 88.3401C126.253 88.6601 126.053 88.9002 125.763 89.0702C125.473 89.2402 125.123 89.3302 124.723 89.3302C124.423 89.3302 124.163 89.2901 123.923 89.2001C123.683 89.1201 123.493 89.0002 123.343 88.8602C123.193 88.7202 123.053 88.5102 122.933 88.2402H123.413C123.543 88.4702 123.713 88.6402 123.923 88.7502C124.133 88.8602 124.393 88.9202 124.693 88.9202C124.993 88.9202 125.253 88.8602 125.463 88.7502C125.673 88.6402 125.823 88.5002 125.913 88.3202C126.003 88.1502 126.043 87.8702 126.043 87.4902V87.3102C125.873 87.5202 125.673 87.6902 125.433 87.8002C125.193 87.9102 124.933 87.9702 124.663 87.9702C124.343 87.9702 124.043 87.8902 123.763 87.7302C123.483 87.5702 123.263 87.3601 123.113 87.0901C122.963 86.8201 122.883 86.5302 122.883 86.2102C122.883 85.8902 122.963 85.5902 123.123 85.3102C123.283 85.0302 123.503 84.8102 123.783 84.6502C124.063 84.4902 124.363 84.4102 124.673 84.4102C124.933 84.4102 125.173 84.4602 125.403 84.5702C125.623 84.6802 125.843 84.8502 126.053 85.1002V84.5002V84.5102ZM124.733 84.8502C124.483 84.8502 124.243 84.9102 124.033 85.0302C123.813 85.1502 123.643 85.3202 123.523 85.5402C123.403 85.7602 123.343 85.9902 123.343 86.2402C123.343 86.6202 123.473 86.9302 123.723 87.1802C123.973 87.4302 124.303 87.5502 124.713 87.5502C125.123 87.5502 125.453 87.4302 125.703 87.1802C125.953 86.9302 126.073 86.6102 126.073 86.2102C126.073 85.9502 126.013 85.7202 125.903 85.5102C125.793 85.3102 125.623 85.1401 125.413 85.0201C125.203 84.9001 124.973 84.8401 124.733 84.8401V84.8502Z" fill="black"></path>
  <path d="M72.7328 92.3302V95.7902H72.2928V95.2002C72.1028 95.4302 71.8928 95.6002 71.6628 95.7102C71.4328 95.8302 71.1728 95.8802 70.9028 95.8802C70.4128 95.8802 69.9928 95.7002 69.6528 95.3502C69.3028 94.9902 69.1328 94.5602 69.1328 94.0502C69.1328 93.5402 69.3028 93.1302 69.6528 92.7702C70.0028 92.4202 70.4228 92.2402 70.9128 92.2402C71.1928 92.2402 71.4528 92.3002 71.6828 92.4202C71.9128 92.5402 72.1128 92.7202 72.2928 92.9602V92.3202H72.7328V92.3302ZM70.9528 92.6702C70.7028 92.6702 70.4728 92.7302 70.2628 92.8502C70.0528 92.9702 69.8828 93.1402 69.7628 93.3602C69.6428 93.5802 69.5728 93.8102 69.5728 94.0602C69.5728 94.3102 69.6328 94.5402 69.7628 94.7602C69.8928 94.9802 70.0528 95.1602 70.2628 95.2802C70.4728 95.4002 70.7028 95.4702 70.9428 95.4702C71.1828 95.4702 71.4128 95.4102 71.6328 95.2902C71.8528 95.1702 72.0228 95.0002 72.1328 94.7902C72.2528 94.5802 72.3128 94.3402 72.3128 94.0802C72.3128 93.6802 72.1828 93.3402 71.9128 93.0802C71.6528 92.8102 71.3228 92.6802 70.9428 92.6802L70.9528 92.6702Z" fill="black"></path>
  <path d="M77.0903 93.05L76.7403 93.27C76.4403 92.86 76.0203 92.66 75.4903 92.66C75.0703 92.66 74.7203 92.8 74.4403 93.07C74.1603 93.34 74.0203 93.67 74.0203 94.06C74.0203 94.31 74.0803 94.55 74.2103 94.77C74.3403 94.99 74.5103 95.17 74.7403 95.29C74.9703 95.41 75.2103 95.47 75.4903 95.47C76.0003 95.47 76.4103 95.27 76.7403 94.86L77.0903 95.09C76.9203 95.34 76.7003 95.53 76.4203 95.67C76.1403 95.81 75.8203 95.88 75.4703 95.88C74.9203 95.88 74.4703 95.71 74.1103 95.36C73.7503 95.01 73.5703 94.59 73.5703 94.09C73.5703 93.76 73.6503 93.44 73.8203 93.16C73.9903 92.87 74.2203 92.65 74.5203 92.49C74.8103 92.33 75.1403 92.25 75.5103 92.25C75.7403 92.25 75.9603 92.29 76.1703 92.35C76.3803 92.42 76.5603 92.51 76.7103 92.62C76.8603 92.73 76.9903 92.88 77.0903 93.05Z" fill="black"></path>
  <path d="M77.7834 92.3302H78.2434V92.8402C78.3834 92.6402 78.5234 92.4902 78.6734 92.3902C78.8234 92.2902 78.9834 92.2402 79.1434 92.2402C79.2634 92.2402 79.3934 92.2802 79.5334 92.3602L79.3034 92.7402C79.2134 92.7002 79.1334 92.6802 79.0634 92.6802C78.9134 92.6802 78.7734 92.7402 78.6334 92.8602C78.4934 92.9802 78.3934 93.1702 78.3134 93.4302C78.2634 93.6302 78.2334 94.0302 78.2334 94.6302V95.8002H77.7734V92.3402L77.7834 92.3302Z" fill="black"></path>
  <path d="M81.55 92.2402C82.08 92.2402 82.53 92.4302 82.88 92.8202C83.2 93.1702 83.36 93.5902 83.36 94.0702C83.36 94.5502 83.19 94.9802 82.85 95.3402C82.51 95.7002 82.08 95.8802 81.55 95.8802C81.02 95.8802 80.58 95.7002 80.25 95.3402C79.91 94.9802 79.75 94.5502 79.75 94.0702C79.75 93.5902 79.91 93.1702 80.23 92.8202C80.58 92.4302 81.02 92.2402 81.56 92.2402H81.55ZM81.55 92.6802C81.18 92.6802 80.86 92.8202 80.59 93.0902C80.32 93.3602 80.19 93.6902 80.19 94.0802C80.19 94.3302 80.25 94.5602 80.37 94.7802C80.49 95.0002 80.66 95.1602 80.86 95.2802C81.07 95.4002 81.29 95.4602 81.54 95.4602C81.79 95.4602 82.01 95.4002 82.22 95.2802C82.43 95.1602 82.59 94.9902 82.71 94.7802C82.83 94.5602 82.89 94.3302 82.89 94.0802C82.89 93.6902 82.76 93.3602 82.49 93.0902C82.22 92.8202 81.91 92.6802 81.54 92.6802H81.55Z" fill="black"></path>
  <path d="M85.9216 92.7102L85.6316 93.0102C85.3916 92.7802 85.1616 92.6602 84.9316 92.6602C84.7916 92.6602 84.6616 92.7102 84.5616 92.8002C84.4616 92.9002 84.4016 93.0102 84.4016 93.1302C84.4016 93.2402 84.4416 93.3502 84.5316 93.4502C84.6116 93.5502 84.7916 93.6802 85.0716 93.8202C85.4016 93.9902 85.6316 94.1602 85.7516 94.3202C85.8716 94.4802 85.9216 94.6602 85.9216 94.8602C85.9216 95.1502 85.8216 95.3902 85.6216 95.5802C85.4216 95.7802 85.1716 95.8802 84.8716 95.8802C84.6716 95.8802 84.4816 95.8402 84.3016 95.7502C84.1216 95.6602 83.9716 95.5402 83.8516 95.3902L84.1316 95.0702C84.3616 95.3302 84.6016 95.4602 84.8516 95.4602C85.0316 95.4602 85.1816 95.4002 85.3116 95.2902C85.4416 95.1702 85.5016 95.0402 85.5016 94.8902C85.5016 94.7602 85.4616 94.6502 85.3816 94.5502C85.3016 94.4502 85.1116 94.3302 84.8216 94.1802C84.5116 94.0202 84.2916 93.8602 84.1816 93.7002C84.0716 93.5402 84.0116 93.3602 84.0116 93.1602C84.0116 92.9002 84.1016 92.6802 84.2816 92.5002C84.4616 92.3202 84.6916 92.2402 84.9616 92.2402C85.2816 92.2402 85.6016 92.4002 85.9216 92.7102Z" fill="black"></path>
  <path d="M88.4528 92.7102L88.1628 93.0102C87.9228 92.7802 87.6928 92.6602 87.4628 92.6602C87.3228 92.6602 87.1928 92.7102 87.0928 92.8002C86.9928 92.9002 86.9328 93.0102 86.9328 93.1302C86.9328 93.2402 86.9728 93.3502 87.0628 93.4502C87.1428 93.5502 87.3228 93.6802 87.6028 93.8202C87.9328 93.9902 88.1628 94.1602 88.2828 94.3202C88.4028 94.4802 88.4528 94.6602 88.4528 94.8602C88.4528 95.1502 88.3528 95.3902 88.1528 95.5802C87.9528 95.7802 87.7028 95.8802 87.4028 95.8802C87.2028 95.8802 87.0128 95.8402 86.8328 95.7502C86.6528 95.6602 86.5028 95.5402 86.3828 95.3902L86.6628 95.0702C86.8928 95.3302 87.1328 95.4602 87.3828 95.4602C87.5628 95.4602 87.7128 95.4002 87.8428 95.2902C87.9728 95.1702 88.0328 95.0402 88.0328 94.8902C88.0328 94.7602 87.9928 94.6502 87.9128 94.5502C87.8328 94.4502 87.6428 94.3302 87.3528 94.1802C87.0428 94.0202 86.8228 93.8602 86.7128 93.7002C86.6028 93.5402 86.5428 93.3602 86.5428 93.1602C86.5428 92.9002 86.6328 92.6802 86.8128 92.5002C86.9928 92.3202 87.2228 92.2402 87.4928 92.2402C87.8128 92.2402 88.1328 92.4002 88.4528 92.7102Z" fill="black"></path>
  <path d="M91.0469 91.1094H91.5169V95.7894H91.0469V91.1094Z" fill="black"></path>
  <path d="M92.5234 92.3302H92.9734V92.9502C93.1534 92.7102 93.3534 92.5302 93.5634 92.4202C93.7834 92.3002 94.0134 92.2402 94.2734 92.2402C94.5334 92.2402 94.7634 92.3102 94.9634 92.4402C95.1634 92.5702 95.3134 92.7502 95.4034 92.9702C95.4934 93.1902 95.5434 93.5402 95.5434 94.0102V95.7902H95.0934V94.1402C95.0934 93.7402 95.0734 93.4702 95.0434 93.3402C94.9934 93.1102 94.8934 92.9402 94.7434 92.8202C94.5934 92.7002 94.4034 92.6502 94.1734 92.6502C93.9034 92.6502 93.6634 92.7402 93.4534 92.9202C93.2434 93.1002 93.1034 93.3202 93.0334 93.5802C92.9934 93.7502 92.9734 94.0702 92.9734 94.5202V95.7902H92.5234V92.3302Z" fill="black"></path>
  <path d="M99.9538 90.9902V95.7902H99.5138V95.2002C99.3238 95.4302 99.1138 95.6002 98.8838 95.7102C98.6538 95.8302 98.3938 95.8802 98.1238 95.8802C97.6338 95.8802 97.2138 95.7002 96.8638 95.3502C96.5138 95.0002 96.3438 94.5602 96.3438 94.0502C96.3438 93.5402 96.5138 93.1302 96.8738 92.7702C97.2238 92.4202 97.6438 92.2402 98.1338 92.2402C98.4138 92.2402 98.6738 92.3002 98.9038 92.4202C99.1338 92.5402 99.3338 92.7202 99.5138 92.9602V90.9902H99.9538ZM98.1738 92.6702C97.9238 92.6702 97.6938 92.7302 97.4838 92.8502C97.2738 92.9702 97.1038 93.1402 96.9838 93.3602C96.8638 93.5802 96.7938 93.8102 96.7938 94.0602C96.7938 94.3102 96.8538 94.5402 96.9838 94.7602C97.1138 94.9802 97.2738 95.1602 97.4838 95.2802C97.6938 95.4002 97.9238 95.4702 98.1638 95.4702C98.4038 95.4702 98.6338 95.4102 98.8538 95.2902C99.0738 95.1702 99.2438 95.0002 99.3538 94.7902C99.4738 94.5802 99.5338 94.3402 99.5338 94.0802C99.5338 93.6802 99.4038 93.3402 99.1338 93.0802C98.8738 92.8102 98.5438 92.6802 98.1638 92.6802L98.1738 92.6702Z" fill="black"></path>
  <path d="M101.112 90.9004C101.212 90.9004 101.302 90.9404 101.372 91.0104C101.442 91.0804 101.482 91.1704 101.482 91.2704C101.482 91.3704 101.442 91.4604 101.372 91.5304C101.302 91.6004 101.212 91.6404 101.112 91.6404C101.012 91.6404 100.932 91.6004 100.852 91.5304C100.782 91.4604 100.742 91.3704 100.742 91.2704C100.742 91.1704 100.782 91.0804 100.852 91.0104C100.922 90.9404 101.012 90.9004 101.112 90.9004ZM100.892 92.3304H101.342V95.7904H100.892V92.3304Z" fill="black"></path>
  <path d="M105.709 92.3302V95.7902H105.269V95.2002C105.079 95.4302 104.869 95.6002 104.639 95.7102C104.409 95.8302 104.149 95.8802 103.879 95.8802C103.389 95.8802 102.969 95.7002 102.629 95.3502C102.279 94.9902 102.109 94.5602 102.109 94.0502C102.109 93.5402 102.279 93.1302 102.629 92.7702C102.979 92.4202 103.399 92.2402 103.889 92.2402C104.169 92.2402 104.429 92.3002 104.659 92.4202C104.889 92.5402 105.089 92.7202 105.269 92.9602V92.3202H105.709V92.3302ZM103.929 92.6702C103.679 92.6702 103.449 92.7302 103.239 92.8502C103.029 92.9702 102.859 93.1402 102.739 93.3602C102.619 93.5802 102.549 93.8102 102.549 94.0602C102.549 94.3102 102.609 94.5402 102.739 94.7602C102.869 94.9802 103.029 95.1602 103.239 95.2802C103.449 95.4002 103.679 95.4702 103.919 95.4702C104.159 95.4702 104.389 95.4102 104.609 95.2902C104.829 95.1702 104.999 95.0002 105.109 94.7902C105.229 94.5802 105.289 94.3402 105.289 94.0802C105.289 93.6802 105.159 93.3402 104.889 93.0802C104.629 92.8102 104.299 92.6802 103.919 92.6802L103.929 92.6702Z" fill="black"></path>
  <path d="M104.924 54.1291V54.1091C104.924 54.1091 104.924 54.0991 104.924 54.0891C104.924 54.0791 104.924 54.0791 104.924 54.0691C104.924 54.0591 104.924 54.0591 104.924 54.0491C104.924 54.0391 104.924 54.0391 104.924 54.0291C104.924 54.0191 104.924 54.0191 104.924 54.0091C104.924 53.9991 104.924 53.9991 104.924 53.9891C104.924 53.9891 104.924 53.9791 104.924 53.9691C104.924 53.9691 104.924 53.9591 104.924 53.9491C104.924 53.9491 104.924 53.9291 104.914 53.9291C104.914 53.9291 104.914 53.9291 104.914 53.9191L101.264 48.2491C100.854 47.5891 100.134 47.1891 99.3538 47.1891H94.8938V46.4091C94.8938 45.1591 93.9538 44.0991 92.7138 43.9391C93.1438 39.7091 90.0638 35.9291 85.8338 35.4991C81.6038 35.0691 77.8238 38.1491 77.3938 42.3791C77.3638 42.6391 77.3538 42.8991 77.3538 43.1591C77.3538 43.4191 77.3638 43.6691 77.3938 43.9191H77.1738C75.8038 43.9191 74.6938 45.0291 74.6838 46.4091V48.7491H72.5938C72.3637 48.7491 72.1738 48.9391 72.1738 49.1691C72.1738 49.3991 72.3637 49.5891 72.5938 49.5891H74.6838V52.7891H73.5738C73.3438 52.7891 73.1538 52.9791 73.1538 53.2091C73.1538 53.4391 73.3438 53.6291 73.5738 53.6291H74.6838V54.3791H71.7938C71.5638 54.3791 71.3738 54.5691 71.3738 54.7991C71.3738 55.0291 71.5638 55.2191 71.7938 55.2191H74.6838V59.1591C74.6838 60.5291 75.7938 61.6391 77.1738 61.6491H77.4438C77.8338 63.6191 79.7438 64.8991 81.7138 64.5091C83.1538 64.2191 84.2838 63.0991 84.5738 61.6491H95.9738C96.3638 63.6191 98.2738 64.8991 100.244 64.5091C101.694 64.2191 102.814 63.0991 103.104 61.6491H103.694C104.404 61.6491 104.984 61.0691 104.984 60.3591V54.1291C104.984 54.1291 104.984 54.1291 104.984 54.1191L104.924 54.1291ZM99.2938 48.0391C99.7838 48.0391 100.234 48.2891 100.494 48.7091L103.724 53.7191H94.8338V48.0391H99.2938ZM84.9938 36.3191C88.7738 36.3191 91.8438 39.3891 91.8438 43.1691C91.8438 46.9491 88.7738 50.0191 84.9938 50.0191C81.2138 50.0191 78.1438 46.9491 78.1438 43.1691C78.1438 39.3891 81.2138 36.3291 84.9938 36.3191ZM76.5238 54.3991H75.4738V53.6491H80.3238C80.5538 53.6491 80.7438 53.4591 80.7438 53.2291C80.7438 52.9991 80.5538 52.8091 80.3238 52.8091H75.4738V49.6091H77.5638C77.7938 49.6091 77.9838 49.4191 77.9838 49.1891C77.9838 48.9591 77.7938 48.7691 77.5638 48.7691H75.4738V46.4291C75.4738 45.5291 76.2038 44.7891 77.1138 44.7891H77.4638C78.3538 48.9491 82.4438 51.5991 86.6038 50.7091C89.5738 50.0791 91.8838 47.7591 92.5238 44.7991C93.3538 44.8891 93.9838 45.5891 93.9838 46.4291V55.9091H75.4738V55.2591H76.5238C76.7538 55.2591 76.9438 55.0691 76.9438 54.8391C76.9438 54.6091 76.7538 54.4191 76.5238 54.4191V54.3991ZM80.9438 63.7491C79.4038 63.7491 78.1638 62.4991 78.1638 60.9691C78.1638 59.4391 79.4138 58.1891 80.9438 58.1891C82.4738 58.1891 83.7238 59.4391 83.7238 60.9691C83.7238 62.5091 82.4738 63.7491 80.9438 63.7491ZM84.5738 60.8191C84.4938 58.8191 82.8038 57.2591 80.8038 57.3391C78.9138 57.4191 77.3938 58.9291 77.3238 60.8191H77.1138C76.2138 60.8191 75.4738 60.0891 75.4738 59.1791V56.7391H93.9838V60.8191H84.5738ZM99.4738 63.7491C97.9338 63.7491 96.6938 62.4991 96.6938 60.9691C96.6938 59.4391 97.9438 58.1891 99.4738 58.1891C101.004 58.1891 102.254 59.4391 102.254 60.9691C102.254 62.5091 101.004 63.7491 99.4738 63.7491ZM104.074 60.3691C104.074 60.6191 103.874 60.8091 103.634 60.8091H103.114C103.034 58.8091 101.344 57.2491 99.3438 57.3291C97.4538 57.4091 95.9338 58.9191 95.8638 60.8091H94.8438V54.5591H104.084V60.3691H104.074ZM81.3738 60.9391V60.9791C81.3738 61.2091 81.1838 61.3991 80.9538 61.3991C80.7238 61.3991 80.5338 61.2091 80.5338 60.9791V60.9391C80.5338 60.7091 80.7238 60.5191 80.9538 60.5191C81.1838 60.5191 81.3738 60.7091 81.3738 60.9391ZM99.9038 60.9391V60.9791C99.9038 61.2091 99.7138 61.3991 99.4838 61.3991C99.2538 61.3991 99.0638 61.2091 99.0638 60.9791V60.9391C99.0638 60.7091 99.2538 60.5191 99.4838 60.5191C99.7138 60.5191 99.9038 60.7091 99.9038 60.9391ZM73.3938 51.7491H70.5138C70.2838 51.7491 70.0938 51.5591 70.0938 51.3291C70.0938 51.0991 70.2838 50.9091 70.5138 50.9091H73.3938C73.6238 50.9091 73.8138 51.0991 73.8138 51.3291C73.8138 51.5591 73.6238 51.7491 73.3938 51.7491ZM84.9938 49.4191C88.4438 49.4191 91.2438 46.6191 91.2438 43.1691C91.2438 39.7191 88.4438 36.9191 84.9938 36.9191C81.5438 36.9191 78.7438 39.7191 78.7438 43.1691C78.7438 46.6191 81.5438 49.4191 84.9938 49.4191ZM84.6538 37.7791C84.5738 37.8591 84.5338 37.9691 84.5338 38.0791V38.8691C84.5338 39.0991 84.7238 39.2891 84.9538 39.2891C85.1838 39.2891 85.3738 39.0991 85.3738 38.8691V38.0791C85.3738 37.9691 85.3338 37.8591 85.2438 37.7791C87.9838 37.9191 90.1938 40.0891 90.3638 42.8291C90.2838 42.7491 90.1738 42.7091 90.0638 42.7091H89.2738C89.0438 42.7091 88.8538 42.8991 88.8538 43.1291C88.8538 43.3591 89.0438 43.5491 89.2738 43.5491H90.0638C90.1738 43.5491 90.2838 43.5091 90.3638 43.4191C90.2238 46.1591 88.0538 48.3691 85.3138 48.5391C85.3938 48.4591 85.4338 48.3491 85.4338 48.2391V47.4491C85.4338 47.2191 85.2438 47.0291 85.0138 47.0291C84.7838 47.0291 84.5938 47.2191 84.5938 47.4491V48.2391C84.5938 48.3491 84.6338 48.4591 84.7238 48.5391C81.9838 48.3991 79.7738 46.2291 79.6038 43.4891C79.6838 43.5691 79.7938 43.6091 79.9038 43.6091H80.6938C80.9238 43.6091 81.1138 43.4191 81.1138 43.1891C81.1138 42.9591 80.9238 42.7691 80.6938 42.7691H79.9038C79.7938 42.7691 79.6838 42.8091 79.6038 42.8991C79.7438 40.1591 81.9138 37.9491 84.6538 37.7791ZM86.8538 39.0291L87.0438 38.7091C87.1638 38.5091 87.4238 38.4291 87.6238 38.5491C87.8238 38.6691 87.9038 38.9291 87.7838 39.1291L87.5938 39.4491C87.4738 39.6491 87.2138 39.7191 87.0138 39.5991C86.8138 39.4791 86.7438 39.2291 86.8638 39.0191L86.8538 39.0291ZM88.5138 41.0891C88.3938 40.8891 88.4638 40.6291 88.6738 40.5091L88.9938 40.3191C89.1938 40.1991 89.4538 40.2691 89.5738 40.4791C89.6938 40.6891 89.6238 40.9391 89.4138 41.0591L89.0938 41.2491C88.8937 41.3691 88.6338 41.2991 88.5138 41.0891ZM89.1338 45.0291L89.4538 45.2191C89.6538 45.3391 89.7238 45.5991 89.6138 45.7991C89.5038 45.9991 89.2338 46.0691 89.0338 45.9591L88.7138 45.7691C88.5138 45.6491 88.4438 45.3891 88.5538 45.1891C88.6638 44.9891 88.9338 44.9191 89.1338 45.0291ZM87.8338 47.1691C87.9538 47.3691 87.8838 47.6291 87.6738 47.7491C87.4738 47.8691 87.2137 47.7991 87.0938 47.5891L86.9038 47.2691C86.7838 47.0691 86.8538 46.8091 87.0538 46.6891C87.2538 46.5691 87.5138 46.6391 87.6338 46.8391L87.8238 47.1591L87.8338 47.1691ZM83.1338 47.3091L82.9438 47.6291C82.8238 47.8291 82.5638 47.8991 82.3638 47.7891C82.1638 47.6791 82.0938 47.4091 82.2038 47.2091L82.3938 46.8891C82.5138 46.6891 82.7738 46.6191 82.9738 46.7291C83.1738 46.8391 83.2438 47.1091 83.1338 47.3091ZM81.4638 45.2391C81.5838 45.4391 81.5138 45.6991 81.3038 45.8191L80.9838 46.0091C80.7738 46.1191 80.5238 46.0491 80.4038 45.8391C80.2938 45.6391 80.3638 45.3891 80.5538 45.2691L80.8738 45.0791C81.0738 44.9591 81.3338 45.0291 81.4538 45.2391H81.4638ZM80.3738 40.5391C80.4938 40.3391 80.7538 40.2691 80.9538 40.3791L81.2738 40.5691C81.4738 40.6891 81.5538 40.9491 81.4338 41.1491C81.3138 41.3491 81.0538 41.4291 80.8538 41.3091L80.5338 41.1191C80.3338 40.9991 80.2638 40.7391 80.3738 40.5391ZM82.1538 39.1691C82.0338 38.9691 82.1038 38.7091 82.3038 38.5891C82.5038 38.4691 82.7638 38.5391 82.8838 38.7391L83.0738 39.0591C83.1938 39.2591 83.1238 39.5191 82.9138 39.6391C82.7038 39.7591 82.4538 39.6891 82.3338 39.4791L82.1438 39.1591L82.1538 39.1691ZM83.5938 43.1791C83.5938 42.9491 83.7838 42.7591 84.0138 42.7591H84.5038V39.9691C84.5038 39.7391 84.6938 39.5491 84.9238 39.5491C85.1538 39.5491 85.3438 39.7391 85.3438 39.9691V42.7591H87.7038C87.9338 42.7591 88.1238 42.9491 88.1238 43.1791C88.1238 43.4091 87.9338 43.5991 87.7038 43.5991H85.3438V44.1591C85.3438 44.3891 85.1538 44.5791 84.9238 44.5791C84.6938 44.5791 84.5038 44.3891 84.5038 44.1591V43.5991H84.0138C83.7838 43.5991 83.5938 43.4091 83.5938 43.1791Z" fill="#B2872D"></path>
</svg>
