<svg enable-background="new 0 0 512 512" height="512" viewBox="0 0 512 512" width="512" xmlns="http://www.w3.org/2000/svg"><path d="m119.5 78.4c15.6.1 28.1 12.8 28.1 28.3v35.7c.1 10.9-6 20.8-15.8 25.6-21 10-33.6 29.6-38.4 59.8-2 12.7-3.3 25.2-4.6 38.5-.5 5.7-1.1 11.7-1.8 17.7-.7 6.6 4 12.5 10.6 13.2.4 0 .9.1 1.4.1h71c23 0 41.6 18.7 41.7 41.7v53c0 23-18.7 41.6-41.7 41.7h-115.1c-23.6 0-42.7-19.1-42.8-42.7-.1-23.5-.2-82.2 0-118.9.3-47.1 5-82.6 15.2-115 14.1-44.8 42.5-70.3 86.9-78.2l.4-.1c1.7-.2 3.3-.4 4.9-.4m0-12c-2.3 0-4.6.2-6.9.6l-.5.1c-49.8 8.8-81.2 38.7-96.2 86.4-12.1 38.6-15.5 78.4-15.8 118.5-.2 30.9-.1 80.6 0 119 .1 30.2 24.6 54.6 54.8 54.6h115.1c29.6 0 53.7-24 53.7-53.7v-53c0-29.6-24-53.7-53.6-53.7h-71.1c2.1-19.3 3.4-37.6 6.3-55.7 3.7-23.2 12.7-41.7 31.7-50.8 13.9-6.8 22.7-20.9 22.6-36.4v-35.7c0-22.1-17.9-40.1-40.1-40.2zm288.4 12c15.6.1 28.1 12.8 28 28.3v35.7c.1 10.9-6 20.8-15.8 25.6-21 10-33.6 29.6-38.4 59.8-2 12.7-3.3 25.2-4.6 38.5-.6 5.8-1.2 11.8-1.8 17.8-.7 6.6 4 12.5 10.6 13.2.4 0 .9.1 1.3.1h71.1c23 0 41.6 18.7 41.7 41.6v53c0 23-18.7 41.6-41.7 41.7h-115c-23.6 0-42.7-19.1-42.8-42.7-.1-23.5-.2-82.2 0-118.9.3-47.1 5-82.6 15.2-115 14.1-44.8 42.5-70.3 86.9-78.2l.4-.1c1.6-.2 3.2-.4 4.9-.4m0-12c-2.3 0-4.7.2-7 .6l-.5.1c-49.8 8.8-81.2 38.7-96.2 86.4-12.2 38.6-15.5 78.4-15.8 118.6-.2 30.9-.1 80.6 0 119 .1 30.2 24.6 54.6 54.8 54.6h115.1c29.6 0 53.7-24 53.7-53.6v-53.1c0-29.6-24-53.7-53.6-53.7h-71.1c2.1-19.3 3.4-37.6 6.3-55.7 3.7-23.2 12.7-41.8 31.7-50.8 13.9-6.8 22.7-20.9 22.6-36.4v-35.7c0-22.2-17.9-40.2-40-40.3z" fill="#b2872d"/></svg>