<?xml version="1.0" encoding="UTF-8"?>
<svg xmlns="http://www.w3.org/2000/svg" width="175" height="125" viewBox="0 0 175 125" fill="none">
  <path d="M55.7266 84.1211H58.0766V84.5811H56.1966V86.0511H58.0766V86.5111H56.1966V88.8111H55.7266V84.1311V84.1211Z" fill="black"></path>
  <path d="M58.6428 85.34H59.1028V85.85C59.2428 85.65 59.3828 85.5 59.5328 85.4C59.6828 85.3 59.8428 85.25 60.0028 85.25C60.1228 85.25 60.2528 85.29 60.3928 85.37L60.1628 85.75C60.0728 85.71 59.9928 85.69 59.9228 85.69C59.7728 85.69 59.6328 85.75 59.4928 85.87C59.3528 85.99 59.2528 86.18 59.1728 86.44C59.1228 86.64 59.0928 87.04 59.0928 87.64V88.81H58.6328V85.35L58.6428 85.34Z" fill="black"></path>
  <path d="M63.6894 87.65L64.0694 87.85C63.9494 88.09 63.7994 88.29 63.6394 88.43C63.4794 88.57 63.2994 88.69 63.0994 88.77C62.8994 88.85 62.6694 88.89 62.4194 88.89C61.8594 88.89 61.4094 88.71 61.0894 88.34C60.7694 87.97 60.6094 87.55 60.6094 87.08C60.6094 86.64 60.7394 86.25 61.0094 85.91C61.3494 85.47 61.8094 85.25 62.3794 85.25C62.9494 85.25 63.4394 85.47 63.7894 85.92C64.0394 86.24 64.1694 86.63 64.1694 87.1H61.0494C61.0494 87.5 61.1894 87.83 61.4394 88.09C61.6894 88.35 61.9994 88.48 62.3594 88.48C62.5394 88.48 62.7094 88.45 62.8694 88.39C63.0394 88.33 63.1794 88.25 63.2894 88.15C63.4094 88.05 63.5294 87.88 63.6694 87.66L63.6894 87.65ZM63.6894 86.72C63.6294 86.48 63.5394 86.29 63.4294 86.15C63.3194 86.01 63.1694 85.89 62.9794 85.81C62.7894 85.73 62.5994 85.68 62.3894 85.68C62.0494 85.68 61.7594 85.79 61.5094 86.01C61.3294 86.17 61.1994 86.41 61.1094 86.73H63.6894V86.72Z" fill="black"></path>
  <path d="M67.9238 87.65L68.3037 87.85C68.1837 88.09 68.0337 88.29 67.8737 88.43C67.7137 88.57 67.5337 88.69 67.3337 88.77C67.1337 88.85 66.9038 88.89 66.6538 88.89C66.0938 88.89 65.6438 88.71 65.3238 88.34C65.0038 87.97 64.8438 87.55 64.8438 87.08C64.8438 86.64 64.9738 86.25 65.2438 85.91C65.5838 85.47 66.0438 85.25 66.6138 85.25C67.1838 85.25 67.6738 85.47 68.0238 85.92C68.2738 86.24 68.4038 86.63 68.4038 87.1H65.2838C65.2838 87.5 65.4238 87.83 65.6738 88.09C65.9238 88.35 66.2337 88.48 66.5938 88.48C66.7738 88.48 66.9438 88.45 67.1038 88.39C67.2738 88.33 67.4138 88.25 67.5238 88.15C67.6438 88.05 67.7638 87.88 67.9038 87.66L67.9238 87.65ZM67.9238 86.72C67.8638 86.48 67.7737 86.29 67.6637 86.15C67.5537 86.01 67.4038 85.89 67.2138 85.81C67.0238 85.72 66.8337 85.68 66.6237 85.68C66.2837 85.68 65.9938 85.79 65.7438 86.01C65.5638 86.17 65.4338 86.41 65.3438 86.73H67.9238V86.72Z" fill="black"></path>
  <path d="M71.7566 84.1211H72.6766V88.8011H72.2166V84.5811H71.4766L71.7566 84.1211Z" fill="black"></path>
  <path d="M76.0938 85.3398H76.5638L77.7538 88.0098L78.9137 85.3398H79.3838L77.3138 90.0698H76.8438L77.5137 88.5398L76.0938 85.3398Z" fill="black"></path>
  <path d="M82.8769 87.65L83.2569 87.85C83.1369 88.09 82.9869 88.29 82.8269 88.43C82.6669 88.57 82.4869 88.69 82.2869 88.77C82.0869 88.85 81.8569 88.89 81.6069 88.89C81.0469 88.89 80.5969 88.71 80.2769 88.34C79.9569 87.97 79.7969 87.55 79.7969 87.08C79.7969 86.64 79.9269 86.25 80.1969 85.91C80.5369 85.47 80.9969 85.25 81.5669 85.25C82.1369 85.25 82.6269 85.47 82.9769 85.92C83.2269 86.24 83.3569 86.63 83.3569 87.1H80.2369C80.2369 87.5 80.3769 87.83 80.6269 88.09C80.8769 88.35 81.1869 88.48 81.5469 88.48C81.7269 88.48 81.8969 88.45 82.0569 88.39C82.2269 88.33 82.3669 88.25 82.4769 88.15C82.5969 88.05 82.7169 87.88 82.8569 87.66L82.8769 87.65ZM82.8769 86.72C82.8169 86.48 82.7269 86.29 82.6169 86.15C82.5069 86.01 82.3569 85.89 82.1669 85.81C81.9769 85.73 81.7869 85.68 81.5769 85.68C81.2369 85.68 80.9469 85.79 80.6969 86.01C80.5169 86.17 80.3869 86.41 80.2969 86.73H82.8769V86.72Z" fill="black"></path>
  <path d="M87.6469 85.34V88.8H87.2069V88.21C87.0169 88.44 86.8069 88.61 86.5769 88.72C86.3469 88.84 86.0869 88.89 85.8169 88.89C85.3269 88.89 84.9069 88.71 84.5669 88.36C84.2169 88 84.0469 87.57 84.0469 87.06C84.0469 86.55 84.2169 86.14 84.5669 85.78C84.9169 85.43 85.3369 85.25 85.8269 85.25C86.1069 85.25 86.3669 85.31 86.5969 85.43C86.8269 85.55 87.0269 85.73 87.2069 85.97V85.33H87.6469V85.34ZM85.8669 85.68C85.6169 85.68 85.3869 85.74 85.1769 85.86C84.9669 85.98 84.7969 86.15 84.6769 86.37C84.5569 86.59 84.4869 86.82 84.4869 87.07C84.4869 87.32 84.5469 87.55 84.6769 87.77C84.8069 87.99 84.9669 88.17 85.1769 88.29C85.3869 88.41 85.6169 88.48 85.8569 88.48C86.0969 88.48 86.3269 88.42 86.5469 88.3C86.7669 88.18 86.9369 88.01 87.0469 87.8C87.1669 87.59 87.2269 87.35 87.2269 87.09C87.2269 86.69 87.0969 86.35 86.8269 86.09C86.5669 85.82 86.2369 85.69 85.8569 85.69L85.8669 85.68Z" fill="black"></path>
  <path d="M88.4788 85.34H88.9388V85.85C89.0788 85.65 89.2188 85.5 89.3688 85.4C89.5188 85.3 89.6787 85.25 89.8387 85.25C89.9587 85.25 90.0888 85.29 90.2288 85.37L89.9987 85.75C89.9087 85.71 89.8288 85.69 89.7588 85.69C89.6088 85.69 89.4688 85.75 89.3288 85.87C89.1888 85.99 89.0888 86.18 89.0088 86.44C88.9588 86.64 88.9287 87.04 88.9287 87.64V88.81H88.4688V85.35L88.4788 85.34Z" fill="black"></path>
  <path d="M91.9475 85.3398H92.4075L93.4675 87.8498L94.5675 85.3398H94.6475L95.7575 87.8498L96.8375 85.3398H97.2975L95.7975 88.7999H95.7175L94.6075 86.3198L93.4975 88.7999H93.4175L91.9375 85.3398H91.9475Z" fill="black"></path>
  <path d="M101.28 85.34V88.8H100.84V88.21C100.65 88.44 100.44 88.61 100.21 88.72C99.9797 88.84 99.7197 88.89 99.4497 88.89C98.9597 88.89 98.5397 88.71 98.1997 88.36C97.8497 88 97.6797 87.57 97.6797 87.06C97.6797 86.55 97.8497 86.14 98.1997 85.78C98.5497 85.43 98.9697 85.25 99.4597 85.25C99.7397 85.25 99.9997 85.31 100.23 85.43C100.46 85.55 100.66 85.73 100.84 85.97V85.33H101.28V85.34ZM99.4997 85.68C99.2497 85.68 99.0197 85.74 98.8097 85.86C98.5997 85.98 98.4297 86.15 98.3097 86.37C98.1897 86.59 98.1197 86.82 98.1197 87.07C98.1197 87.32 98.1797 87.55 98.3097 87.77C98.4397 87.99 98.5997 88.17 98.8097 88.29C99.0197 88.41 99.2497 88.48 99.4897 88.48C99.7297 88.48 99.9597 88.42 100.18 88.3C100.4 88.18 100.57 88.01 100.68 87.8C100.8 87.59 100.86 87.35 100.86 87.09C100.86 86.69 100.73 86.35 100.46 86.09C100.2 85.82 99.8697 85.69 99.4897 85.69L99.4997 85.68Z" fill="black"></path>
  <path d="M102.119 85.34H102.579V85.85C102.719 85.65 102.859 85.5 103.009 85.4C103.159 85.3 103.319 85.25 103.479 85.25C103.599 85.25 103.729 85.29 103.869 85.37L103.639 85.75C103.549 85.71 103.469 85.69 103.399 85.69C103.249 85.69 103.109 85.75 102.969 85.87C102.829 85.99 102.729 86.18 102.649 86.44C102.599 86.64 102.569 87.04 102.569 87.64V88.81H102.109V85.35L102.119 85.34Z" fill="black"></path>
  <path d="M104.08 85.34H104.54V85.85C104.68 85.65 104.82 85.5 104.97 85.4C105.12 85.3 105.28 85.25 105.44 85.25C105.56 85.25 105.69 85.29 105.83 85.37L105.6 85.75C105.51 85.71 105.43 85.69 105.36 85.69C105.21 85.69 105.07 85.75 104.93 85.87C104.79 85.99 104.69 86.18 104.61 86.44C104.56 86.64 104.53 87.04 104.53 87.64V88.81H104.07V85.35L104.08 85.34Z" fill="black"></path>
  <path d="M109.655 85.34V88.8H109.215V88.21C109.025 88.44 108.815 88.61 108.585 88.72C108.355 88.84 108.095 88.89 107.825 88.89C107.335 88.89 106.915 88.71 106.575 88.36C106.225 88 106.055 87.57 106.055 87.06C106.055 86.55 106.225 86.14 106.575 85.78C106.925 85.43 107.345 85.25 107.835 85.25C108.115 85.25 108.375 85.31 108.605 85.43C108.835 85.55 109.035 85.73 109.215 85.97V85.33H109.655V85.34ZM107.875 85.68C107.625 85.68 107.395 85.74 107.185 85.86C106.975 85.98 106.805 86.15 106.685 86.37C106.565 86.59 106.495 86.82 106.495 87.07C106.495 87.32 106.555 87.55 106.685 87.77C106.815 87.99 106.975 88.17 107.185 88.29C107.395 88.41 107.625 88.48 107.865 88.48C108.105 88.48 108.335 88.42 108.555 88.3C108.775 88.18 108.945 88.01 109.055 87.8C109.175 87.59 109.235 87.35 109.235 87.09C109.235 86.69 109.105 86.35 108.835 86.09C108.575 85.82 108.245 85.69 107.865 85.69L107.875 85.68Z" fill="black"></path>
  <path d="M110.656 85.34H111.106V85.96C111.286 85.72 111.486 85.54 111.696 85.43C111.916 85.31 112.146 85.25 112.406 85.25C112.666 85.25 112.896 85.32 113.096 85.45C113.296 85.58 113.446 85.76 113.536 85.98C113.626 86.2 113.676 86.55 113.676 87.02V88.8H113.226V87.15C113.226 86.75 113.206 86.48 113.176 86.35C113.126 86.12 113.026 85.95 112.876 85.83C112.726 85.71 112.536 85.66 112.306 85.66C112.036 85.66 111.796 85.75 111.586 85.93C111.376 86.11 111.236 86.33 111.166 86.59C111.126 86.76 111.106 87.08 111.106 87.53V88.8H110.656V85.34Z" fill="black"></path>
  <path d="M115.016 84.0508H115.466V85.3408H116.176V85.7208H115.466V88.8008H115.016V85.7208H114.406V85.3408H115.016V84.0508Z" fill="black"></path>
  <path d="M116.469 85.3398H116.939L118.129 88.0098L119.289 85.3398H119.759L117.689 90.0698H117.219L117.889 88.5398L116.469 85.3398Z" fill="black"></path>
  <path d="M99.6275 38.3293L87.6675 34.7393C87.5575 34.7093 87.4375 34.7093 87.3275 34.7393L75.3675 38.3293C75.1175 38.4093 74.9375 38.6393 74.9375 38.8993V52.0593C74.9375 57.3493 83.0075 62.0493 87.3175 63.3993C87.3775 63.4193 87.4375 63.4293 87.4975 63.4293C87.5575 63.4293 87.6175 63.4293 87.6775 63.3993C91.9975 62.0593 100.057 57.3493 100.057 52.0593V38.8993C100.057 38.6393 99.8875 38.3993 99.6275 38.3293Z" stroke="#B2872D" stroke-miterlimit="10"></path>
  <path d="M92.6578 45.8502L86.5078 52.1002C86.3578 52.2502 86.1578 52.3302 85.9678 52.3302C85.7778 52.3302 85.5778 52.2502 85.4278 52.1002L82.3578 48.9802C82.0578 48.6802 82.0578 48.1802 82.3578 47.8802C82.6578 47.5802 83.1478 47.5802 83.4478 47.8802L85.9778 50.4502L91.5878 44.7602C91.8878 44.4602 92.3778 44.4602 92.6778 44.7602C92.9778 45.0602 92.9778 45.5602 92.6778 45.8602L92.6578 45.8502Z" fill="#B2872D"></path>
</svg>
